<svg id="canvas" height="auto" xmlns="http://www.w3.org/2000/svg" version="1.1" xmlns:xlink="http://www.w3.org/1999/xlink" viewBox="0 0 900 512" width="auto" style="width: auto; height: auto;"><rect width="900" height="512" fill="transparent"/><line x1="0" y1="31.03448275862069" x2="31.03448275862069" y2="0" stroke-linecap="square" stroke-width="1" stroke="#b8f1bc"/><line x1="31.03448275862069" y1="31.03448275862069" x2="62.06896551724138" y2="0" stroke-linecap="square" stroke-width="1" stroke="#b8f1bc"/><line x1="62.06896551724138" y1="31.03448275862069" x2="93.10344827586206" y2="0" stroke-linecap="square" stroke-width="1" stroke="#b8f1bc"/><line x1="93.10344827586206" y1="0" x2="124.13793103448276" y2="31.03448275862069" stroke-linecap="square" stroke-width="1" stroke="#b8f1bc"/><line x1="124.13793103448276" y1="31.03448275862069" x2="155.17241379310346" y2="0" stroke-linecap="square" stroke-width="1" stroke="#b8f1bc"/><line x1="155.17241379310346" y1="31.03448275862069" x2="186.20689655172416" y2="0" stroke-linecap="square" stroke-width="1" stroke="#b8f1bc"/><line x1="186.20689655172416" y1="0" x2="217.24137931034485" y2="31.03448275862069" stroke-linecap="square" stroke-width="1" stroke="#b8f1bc"/><line x1="217.24137931034485" y1="0" x2="248.27586206896555" y2="31.03448275862069" stroke-linecap="square" stroke-width="1" stroke="#b8f1bc"/><line x1="248.27586206896555" y1="0" x2="279.3103448275862" y2="31.03448275862069" stroke-linecap="square" stroke-width="1" stroke="#b8f1bc"/><line x1="279.3103448275862" y1="31.03448275862069" x2="310.3448275862069" y2="0" stroke-linecap="square" stroke-width="1" stroke="#b8f1bc"/><line x1="310.3448275862069" y1="0" x2="341.3793103448276" y2="31.03448275862069" stroke-linecap="square" stroke-width="1" stroke="#b8f1bc"/><line x1="341.3793103448276" y1="31.03448275862069" x2="372.4137931034483" y2="0" stroke-linecap="square" stroke-width="1" stroke="#b8f1bc"/><line x1="372.4137931034483" y1="0" x2="403.448275862069" y2="31.03448275862069" stroke-linecap="square" stroke-width="1" stroke="#b8f1bc"/><line x1="403.448275862069" y1="31.03448275862069" x2="434.4827586206897" y2="0" stroke-linecap="square" stroke-width="1" stroke="#b8f1bc"/><line x1="434.4827586206897" y1="0" x2="465.5172413793104" y2="31.03448275862069" stroke-linecap="square" stroke-width="1" stroke="#b8f1bc"/><line x1="465.5172413793104" y1="0" x2="496.5517241379311" y2="31.03448275862069" stroke-linecap="square" stroke-width="1" stroke="#b8f1bc"/><line x1="496.5517241379311" y1="31.03448275862069" x2="527.5862068965517" y2="0" stroke-linecap="square" stroke-width="1" stroke="#b8f1bc"/><line x1="527.5862068965517" y1="0" x2="558.6206896551724" y2="31.03448275862069" stroke-linecap="square" stroke-width="1" stroke="#b8f1bc"/><line x1="558.6206896551724" y1="31.03448275862069" x2="589.6551724137931" y2="0" stroke-linecap="square" stroke-width="1" stroke="#b8f1bc"/><line x1="589.6551724137931" y1="31.03448275862069" x2="620.6896551724138" y2="0" stroke-linecap="square" stroke-width="1" stroke="#b8f1bc"/><line x1="620.6896551724138" y1="31.03448275862069" x2="651.7241379310345" y2="0" stroke-linecap="square" stroke-width="1" stroke="#b8f1bc"/><line x1="651.7241379310345" y1="31.03448275862069" x2="682.7586206896552" y2="0" stroke-linecap="square" stroke-width="1" stroke="#b8f1bc"/><line x1="682.7586206896552" y1="31.03448275862069" x2="713.7931034482759" y2="0" stroke-linecap="square" stroke-width="1" stroke="#b8f1bc"/><line x1="713.7931034482759" y1="31.03448275862069" x2="744.8275862068966" y2="0" stroke-linecap="square" stroke-width="1" stroke="#b8f1bc"/><line x1="744.8275862068966" y1="0" x2="775.8620689655173" y2="31.03448275862069" stroke-linecap="square" stroke-width="1" stroke="#b8f1bc"/><line x1="775.8620689655173" y1="31.03448275862069" x2="806.896551724138" y2="0" stroke-linecap="square" stroke-width="1" stroke="#b8f1bc"/><line x1="806.896551724138" y1="31.03448275862069" x2="837.9310344827587" y2="0" stroke-linecap="square" stroke-width="1" stroke="#b8f1bc"/><line x1="837.9310344827587" y1="0" x2="868.9655172413794" y2="31.03448275862069" stroke-linecap="square" stroke-width="1" stroke="#b8f1bc"/><line x1="868.9655172413794" y1="0" x2="900.0000000000001" y2="31.03448275862069" stroke-linecap="square" stroke-width="1" stroke="#b8f1bc"/><line x1="0" y1="31.03448275862069" x2="31.03448275862069" y2="62.06896551724138" stroke-linecap="square" stroke-width="1" stroke="#b8f1bc"/><line x1="31.03448275862069" y1="31.03448275862069" x2="62.06896551724138" y2="62.06896551724138" stroke-linecap="square" stroke-width="1" stroke="#b8f1bc"/><line x1="62.06896551724138" y1="62.06896551724138" x2="93.10344827586206" y2="31.03448275862069" stroke-linecap="square" stroke-width="1" stroke="#b8f1bc"/><line x1="93.10344827586206" y1="62.06896551724138" x2="124.13793103448276" y2="31.03448275862069" stroke-linecap="square" stroke-width="1" stroke="#b8f1bc"/><line x1="124.13793103448276" y1="62.06896551724138" x2="155.17241379310346" y2="31.03448275862069" stroke-linecap="square" stroke-width="1" stroke="#b8f1bc"/><line x1="155.17241379310346" y1="62.06896551724138" x2="186.20689655172416" y2="31.03448275862069" stroke-linecap="square" stroke-width="1" stroke="#b8f1bc"/><line x1="186.20689655172416" y1="62.06896551724138" x2="217.24137931034485" y2="31.03448275862069" stroke-linecap="square" stroke-width="1" stroke="#b8f1bc"/><line x1="217.24137931034485" y1="62.06896551724138" x2="248.27586206896555" y2="31.03448275862069" stroke-linecap="square" stroke-width="1" stroke="#b8f1bc"/><line x1="248.27586206896555" y1="31.03448275862069" x2="279.3103448275862" y2="62.06896551724138" stroke-linecap="square" stroke-width="1" stroke="#b8f1bc"/><line x1="279.3103448275862" y1="31.03448275862069" x2="310.3448275862069" y2="62.06896551724138" stroke-linecap="square" stroke-width="1" stroke="#b8f1bc"/><line x1="310.3448275862069" y1="31.03448275862069" x2="341.3793103448276" y2="62.06896551724138" stroke-linecap="square" stroke-width="1" stroke="#b8f1bc"/><line x1="341.3793103448276" y1="31.03448275862069" x2="372.4137931034483" y2="62.06896551724138" stroke-linecap="square" stroke-width="1" stroke="#b8f1bc"/><line x1="372.4137931034483" y1="31.03448275862069" x2="403.448275862069" y2="62.06896551724138" stroke-linecap="square" stroke-width="1" stroke="#b8f1bc"/><line x1="403.448275862069" y1="62.06896551724138" x2="434.4827586206897" y2="31.03448275862069" stroke-linecap="square" stroke-width="1" stroke="#b8f1bc"/><line x1="434.4827586206897" y1="62.06896551724138" x2="465.5172413793104" y2="31.03448275862069" stroke-linecap="square" stroke-width="1" stroke="#b8f1bc"/><line x1="465.5172413793104" y1="31.03448275862069" x2="496.5517241379311" y2="62.06896551724138" stroke-linecap="square" stroke-width="1" stroke="#b8f1bc"/><line x1="496.5517241379311" y1="31.03448275862069" x2="527.5862068965517" y2="62.06896551724138" stroke-linecap="square" stroke-width="1" stroke="#b8f1bc"/><line x1="527.5862068965517" y1="31.03448275862069" x2="558.6206896551724" y2="62.06896551724138" stroke-linecap="square" stroke-width="1" stroke="#b8f1bc"/><line x1="558.6206896551724" y1="62.06896551724138" x2="589.6551724137931" y2="31.03448275862069" stroke-linecap="square" stroke-width="1" stroke="#b8f1bc"/><line x1="589.6551724137931" y1="62.06896551724138" x2="620.6896551724138" y2="31.03448275862069" stroke-linecap="square" stroke-width="1" stroke="#b8f1bc"/><line x1="620.6896551724138" y1="62.06896551724138" x2="651.7241379310345" y2="31.03448275862069" stroke-linecap="square" stroke-width="1" stroke="#b8f1bc"/><line x1="651.7241379310345" y1="62.06896551724138" x2="682.7586206896552" y2="31.03448275862069" stroke-linecap="square" stroke-width="1" stroke="#b8f1bc"/><line x1="682.7586206896552" y1="62.06896551724138" x2="713.7931034482759" y2="31.03448275862069" stroke-linecap="square" stroke-width="1" stroke="#b8f1bc"/><line x1="713.7931034482759" y1="62.06896551724138" x2="744.8275862068966" y2="31.03448275862069" stroke-linecap="square" stroke-width="1" stroke="#b8f1bc"/><line x1="744.8275862068966" y1="62.06896551724138" x2="775.8620689655173" y2="31.03448275862069" stroke-linecap="square" stroke-width="1" stroke="#b8f1bc"/><line x1="775.8620689655173" y1="31.03448275862069" x2="806.896551724138" y2="62.06896551724138" stroke-linecap="square" stroke-width="1" stroke="#b8f1bc"/><line x1="806.896551724138" y1="31.03448275862069" x2="837.9310344827587" y2="62.06896551724138" stroke-linecap="square" stroke-width="1" stroke="#b8f1bc"/><line x1="837.9310344827587" y1="62.06896551724138" x2="868.9655172413794" y2="31.03448275862069" stroke-linecap="square" stroke-width="1" stroke="#b8f1bc"/><line x1="868.9655172413794" y1="31.03448275862069" x2="900.0000000000001" y2="62.06896551724138" stroke-linecap="square" stroke-width="1" stroke="#b8f1bc"/><line x1="0" y1="93.10344827586206" x2="31.03448275862069" y2="62.06896551724138" stroke-linecap="square" stroke-width="1" stroke="#b8f1bc"/><line x1="31.03448275862069" y1="93.10344827586206" x2="62.06896551724138" y2="62.06896551724138" stroke-linecap="square" stroke-width="1" stroke="#b8f1bc"/><line x1="62.06896551724138" y1="62.06896551724138" x2="93.10344827586206" y2="93.10344827586206" stroke-linecap="square" stroke-width="1" stroke="#b8f1bc"/><line x1="93.10344827586206" y1="62.06896551724138" x2="124.13793103448276" y2="93.10344827586206" stroke-linecap="square" stroke-width="1" stroke="#b8f1bc"/><line x1="124.13793103448276" y1="62.06896551724138" x2="155.17241379310346" y2="93.10344827586206" stroke-linecap="square" stroke-width="1" stroke="#b8f1bc"/><line x1="155.17241379310346" y1="62.06896551724138" x2="186.20689655172416" y2="93.10344827586206" stroke-linecap="square" stroke-width="1" stroke="#b8f1bc"/><line x1="186.20689655172416" y1="93.10344827586206" x2="217.24137931034485" y2="62.06896551724138" stroke-linecap="square" stroke-width="1" stroke="#b8f1bc"/><line x1="217.24137931034485" y1="62.06896551724138" x2="248.27586206896555" y2="93.10344827586206" stroke-linecap="square" stroke-width="1" stroke="#b8f1bc"/><line x1="248.27586206896555" y1="62.06896551724138" x2="279.3103448275862" y2="93.10344827586206" stroke-linecap="square" stroke-width="1" stroke="#b8f1bc"/><line x1="279.3103448275862" y1="93.10344827586206" x2="310.3448275862069" y2="62.06896551724138" stroke-linecap="square" stroke-width="1" stroke="#b8f1bc"/><line x1="310.3448275862069" y1="93.10344827586206" x2="341.3793103448276" y2="62.06896551724138" stroke-linecap="square" stroke-width="1" stroke="#b8f1bc"/><line x1="341.3793103448276" y1="62.06896551724138" x2="372.4137931034483" y2="93.10344827586206" stroke-linecap="square" stroke-width="1" stroke="#b8f1bc"/><line x1="372.4137931034483" y1="62.06896551724138" x2="403.448275862069" y2="93.10344827586206" stroke-linecap="square" stroke-width="1" stroke="#b8f1bc"/><line x1="403.448275862069" y1="62.06896551724138" x2="434.4827586206897" y2="93.10344827586206" stroke-linecap="square" stroke-width="1" stroke="#b8f1bc"/><line x1="434.4827586206897" y1="62.06896551724138" x2="465.5172413793104" y2="93.10344827586206" stroke-linecap="square" stroke-width="1" stroke="#b8f1bc"/><line x1="465.5172413793104" y1="62.06896551724138" x2="496.5517241379311" y2="93.10344827586206" stroke-linecap="square" stroke-width="1" stroke="#b8f1bc"/><line x1="496.5517241379311" y1="62.06896551724138" x2="527.5862068965517" y2="93.10344827586206" stroke-linecap="square" stroke-width="1" stroke="#b8f1bc"/><line x1="527.5862068965517" y1="93.10344827586206" x2="558.6206896551724" y2="62.06896551724138" stroke-linecap="square" stroke-width="1" stroke="#b8f1bc"/><line x1="558.6206896551724" y1="62.06896551724138" x2="589.6551724137931" y2="93.10344827586206" stroke-linecap="square" stroke-width="1" stroke="#b8f1bc"/><line x1="589.6551724137931" y1="93.10344827586206" x2="620.6896551724138" y2="62.06896551724138" stroke-linecap="square" stroke-width="1" stroke="#b8f1bc"/><line x1="620.6896551724138" y1="93.10344827586206" x2="651.7241379310345" y2="62.06896551724138" stroke-linecap="square" stroke-width="1" stroke="#b8f1bc"/><line x1="651.7241379310345" y1="93.10344827586206" x2="682.7586206896552" y2="62.06896551724138" stroke-linecap="square" stroke-width="1" stroke="#b8f1bc"/><line x1="682.7586206896552" y1="93.10344827586206" x2="713.7931034482759" y2="62.06896551724138" stroke-linecap="square" stroke-width="1" stroke="#b8f1bc"/><line x1="713.7931034482759" y1="62.06896551724138" x2="744.8275862068966" y2="93.10344827586206" stroke-linecap="square" stroke-width="1" stroke="#b8f1bc"/><line x1="744.8275862068966" y1="62.06896551724138" x2="775.8620689655173" y2="93.10344827586206" stroke-linecap="square" stroke-width="1" stroke="#b8f1bc"/><line x1="775.8620689655173" y1="93.10344827586206" x2="806.896551724138" y2="62.06896551724138" stroke-linecap="square" stroke-width="1" stroke="#b8f1bc"/><line x1="806.896551724138" y1="62.06896551724138" x2="837.9310344827587" y2="93.10344827586206" stroke-linecap="square" stroke-width="1" stroke="#b8f1bc"/><line x1="837.9310344827587" y1="62.06896551724138" x2="868.9655172413794" y2="93.10344827586206" stroke-linecap="square" stroke-width="1" stroke="#b8f1bc"/><line x1="868.9655172413794" y1="62.06896551724138" x2="900.0000000000001" y2="93.10344827586206" stroke-linecap="square" stroke-width="1" stroke="#b8f1bc"/><line x1="0" y1="124.13793103448276" x2="31.03448275862069" y2="93.10344827586206" stroke-linecap="square" stroke-width="1" stroke="#b8f1bc"/><line x1="31.03448275862069" y1="93.10344827586206" x2="62.06896551724138" y2="124.13793103448276" stroke-linecap="square" stroke-width="1" stroke="#b8f1bc"/><line x1="62.06896551724138" y1="124.13793103448276" x2="93.10344827586206" y2="93.10344827586206" stroke-linecap="square" stroke-width="1" stroke="#b8f1bc"/><line x1="93.10344827586206" y1="124.13793103448276" x2="124.13793103448276" y2="93.10344827586206" stroke-linecap="square" stroke-width="1" stroke="#b8f1bc"/><line x1="124.13793103448276" y1="124.13793103448276" x2="155.17241379310346" y2="93.10344827586206" stroke-linecap="square" stroke-width="1" stroke="#b8f1bc"/><line x1="155.17241379310346" y1="124.13793103448276" x2="186.20689655172416" y2="93.10344827586206" stroke-linecap="square" stroke-width="1" stroke="#b8f1bc"/><line x1="186.20689655172416" y1="124.13793103448276" x2="217.24137931034485" y2="93.10344827586206" stroke-linecap="square" stroke-width="1" stroke="#b8f1bc"/><line x1="217.24137931034485" y1="124.13793103448276" x2="248.27586206896555" y2="93.10344827586206" stroke-linecap="square" stroke-width="1" stroke="#b8f1bc"/><line x1="248.27586206896555" y1="124.13793103448276" x2="279.3103448275862" y2="93.10344827586206" stroke-linecap="square" stroke-width="1" stroke="#b8f1bc"/><line x1="279.3103448275862" y1="93.10344827586206" x2="310.3448275862069" y2="124.13793103448276" stroke-linecap="square" stroke-width="1" stroke="#b8f1bc"/><line x1="310.3448275862069" y1="124.13793103448276" x2="341.3793103448276" y2="93.10344827586206" stroke-linecap="square" stroke-width="1" stroke="#b8f1bc"/><line x1="341.3793103448276" y1="93.10344827586206" x2="372.4137931034483" y2="124.13793103448276" stroke-linecap="square" stroke-width="1" stroke="#b8f1bc"/><line x1="372.4137931034483" y1="93.10344827586206" x2="403.448275862069" y2="124.13793103448276" stroke-linecap="square" stroke-width="1" stroke="#b8f1bc"/><line x1="403.448275862069" y1="93.10344827586206" x2="434.4827586206897" y2="124.13793103448276" stroke-linecap="square" stroke-width="1" stroke="#b8f1bc"/><line x1="434.4827586206897" y1="93.10344827586206" x2="465.5172413793104" y2="124.13793103448276" stroke-linecap="square" stroke-width="1" stroke="#b8f1bc"/><line x1="465.5172413793104" y1="124.13793103448276" x2="496.5517241379311" y2="93.10344827586206" stroke-linecap="square" stroke-width="1" stroke="#b8f1bc"/><line x1="496.5517241379311" y1="124.13793103448276" x2="527.5862068965517" y2="93.10344827586206" stroke-linecap="square" stroke-width="1" stroke="#b8f1bc"/><line x1="527.5862068965517" y1="93.10344827586206" x2="558.6206896551724" y2="124.13793103448276" stroke-linecap="square" stroke-width="1" stroke="#b8f1bc"/><line x1="558.6206896551724" y1="93.10344827586206" x2="589.6551724137931" y2="124.13793103448276" stroke-linecap="square" stroke-width="1" stroke="#b8f1bc"/><line x1="589.6551724137931" y1="124.13793103448276" x2="620.6896551724138" y2="93.10344827586206" stroke-linecap="square" stroke-width="1" stroke="#b8f1bc"/><line x1="620.6896551724138" y1="93.10344827586206" x2="651.7241379310345" y2="124.13793103448276" stroke-linecap="square" stroke-width="1" stroke="#b8f1bc"/><line x1="651.7241379310345" y1="124.13793103448276" x2="682.7586206896552" y2="93.10344827586206" stroke-linecap="square" stroke-width="1" stroke="#b8f1bc"/><line x1="682.7586206896552" y1="93.10344827586206" x2="713.7931034482759" y2="124.13793103448276" stroke-linecap="square" stroke-width="1" stroke="#b8f1bc"/><line x1="713.7931034482759" y1="93.10344827586206" x2="744.8275862068966" y2="124.13793103448276" stroke-linecap="square" stroke-width="1" stroke="#b8f1bc"/><line x1="744.8275862068966" y1="124.13793103448276" x2="775.8620689655173" y2="93.10344827586206" stroke-linecap="square" stroke-width="1" stroke="#b8f1bc"/><line x1="775.8620689655173" y1="93.10344827586206" x2="806.896551724138" y2="124.13793103448276" stroke-linecap="square" stroke-width="1" stroke="#b8f1bc"/><line x1="806.896551724138" y1="124.13793103448276" x2="837.9310344827587" y2="93.10344827586206" stroke-linecap="square" stroke-width="1" stroke="#b8f1bc"/><line x1="837.9310344827587" y1="124.13793103448276" x2="868.9655172413794" y2="93.10344827586206" stroke-linecap="square" stroke-width="1" stroke="#b8f1bc"/><line x1="868.9655172413794" y1="93.10344827586206" x2="900.0000000000001" y2="124.13793103448276" stroke-linecap="square" stroke-width="1" stroke="#b8f1bc"/><line x1="0" y1="155.17241379310346" x2="31.03448275862069" y2="124.13793103448276" stroke-linecap="square" stroke-width="1" stroke="#b8f1bc"/><line x1="31.03448275862069" y1="155.17241379310346" x2="62.06896551724138" y2="124.13793103448276" stroke-linecap="square" stroke-width="1" stroke="#b8f1bc"/><line x1="62.06896551724138" y1="155.17241379310346" x2="93.10344827586206" y2="124.13793103448276" stroke-linecap="square" stroke-width="1" stroke="#b8f1bc"/><line x1="93.10344827586206" y1="124.13793103448276" x2="124.13793103448276" y2="155.17241379310346" stroke-linecap="square" stroke-width="1" stroke="#b8f1bc"/><line x1="124.13793103448276" y1="155.17241379310346" x2="155.17241379310346" y2="124.13793103448276" stroke-linecap="square" stroke-width="1" stroke="#b8f1bc"/><line x1="155.17241379310346" y1="155.17241379310346" x2="186.20689655172416" y2="124.13793103448276" stroke-linecap="square" stroke-width="1" stroke="#b8f1bc"/><line x1="186.20689655172416" y1="124.13793103448276" x2="217.24137931034485" y2="155.17241379310346" stroke-linecap="square" stroke-width="1" stroke="#b8f1bc"/><line x1="217.24137931034485" y1="124.13793103448276" x2="248.27586206896555" y2="155.17241379310346" stroke-linecap="square" stroke-width="1" stroke="#b8f1bc"/><line x1="248.27586206896555" y1="124.13793103448276" x2="279.3103448275862" y2="155.17241379310346" stroke-linecap="square" stroke-width="1" stroke="#b8f1bc"/><line x1="279.3103448275862" y1="124.13793103448276" x2="310.3448275862069" y2="155.17241379310346" stroke-linecap="square" stroke-width="1" stroke="#b8f1bc"/><line x1="310.3448275862069" y1="155.17241379310346" x2="341.3793103448276" y2="124.13793103448276" stroke-linecap="square" stroke-width="1" stroke="#b8f1bc"/><line x1="341.3793103448276" y1="124.13793103448276" x2="372.4137931034483" y2="155.17241379310346" stroke-linecap="square" stroke-width="1" stroke="#b8f1bc"/><line x1="372.4137931034483" y1="124.13793103448276" x2="403.448275862069" y2="155.17241379310346" stroke-linecap="square" stroke-width="1" stroke="#b8f1bc"/><line x1="403.448275862069" y1="124.13793103448276" x2="434.4827586206897" y2="155.17241379310346" stroke-linecap="square" stroke-width="1" stroke="#b8f1bc"/><line x1="434.4827586206897" y1="155.17241379310346" x2="465.5172413793104" y2="124.13793103448276" stroke-linecap="square" stroke-width="1" stroke="#b8f1bc"/><line x1="465.5172413793104" y1="155.17241379310346" x2="496.5517241379311" y2="124.13793103448276" stroke-linecap="square" stroke-width="1" stroke="#b8f1bc"/><line x1="496.5517241379311" y1="155.17241379310346" x2="527.5862068965517" y2="124.13793103448276" stroke-linecap="square" stroke-width="1" stroke="#b8f1bc"/><line x1="527.5862068965517" y1="155.17241379310346" x2="558.6206896551724" y2="124.13793103448276" stroke-linecap="square" stroke-width="1" stroke="#b8f1bc"/><line x1="558.6206896551724" y1="124.13793103448276" x2="589.6551724137931" y2="155.17241379310346" stroke-linecap="square" stroke-width="1" stroke="#b8f1bc"/><line x1="589.6551724137931" y1="124.13793103448276" x2="620.6896551724138" y2="155.17241379310346" stroke-linecap="square" stroke-width="1" stroke="#b8f1bc"/><line x1="620.6896551724138" y1="124.13793103448276" x2="651.7241379310345" y2="155.17241379310346" stroke-linecap="square" stroke-width="1" stroke="#b8f1bc"/><line x1="651.7241379310345" y1="155.17241379310346" x2="682.7586206896552" y2="124.13793103448276" stroke-linecap="square" stroke-width="1" stroke="#b8f1bc"/><line x1="682.7586206896552" y1="124.13793103448276" x2="713.7931034482759" y2="155.17241379310346" stroke-linecap="square" stroke-width="1" stroke="#b8f1bc"/><line x1="713.7931034482759" y1="155.17241379310346" x2="744.8275862068966" y2="124.13793103448276" stroke-linecap="square" stroke-width="1" stroke="#b8f1bc"/><line x1="744.8275862068966" y1="124.13793103448276" x2="775.8620689655173" y2="155.17241379310346" stroke-linecap="square" stroke-width="1" stroke="#b8f1bc"/><line x1="775.8620689655173" y1="155.17241379310346" x2="806.896551724138" y2="124.13793103448276" stroke-linecap="square" stroke-width="1" stroke="#b8f1bc"/><line x1="806.896551724138" y1="155.17241379310346" x2="837.9310344827587" y2="124.13793103448276" stroke-linecap="square" stroke-width="1" stroke="#b8f1bc"/><line x1="837.9310344827587" y1="155.17241379310346" x2="868.9655172413794" y2="124.13793103448276" stroke-linecap="square" stroke-width="1" stroke="#b8f1bc"/><line x1="868.9655172413794" y1="124.13793103448276" x2="900.0000000000001" y2="155.17241379310346" stroke-linecap="square" stroke-width="1" stroke="#b8f1bc"/><line x1="0" y1="186.20689655172416" x2="31.03448275862069" y2="155.17241379310346" stroke-linecap="square" stroke-width="1" stroke="#b8f1bc"/><line x1="31.03448275862069" y1="155.17241379310346" x2="62.06896551724138" y2="186.20689655172416" stroke-linecap="square" stroke-width="1" stroke="#b8f1bc"/><line x1="62.06896551724138" y1="155.17241379310346" x2="93.10344827586206" y2="186.20689655172416" stroke-linecap="square" stroke-width="1" stroke="#b8f1bc"/><line x1="93.10344827586206" y1="155.17241379310346" x2="124.13793103448276" y2="186.20689655172416" stroke-linecap="square" stroke-width="1" stroke="#b8f1bc"/><line x1="124.13793103448276" y1="155.17241379310346" x2="155.17241379310346" y2="186.20689655172416" stroke-linecap="square" stroke-width="1" stroke="#b8f1bc"/><line x1="155.17241379310346" y1="186.20689655172416" x2="186.20689655172416" y2="155.17241379310346" stroke-linecap="square" stroke-width="1" stroke="#b8f1bc"/><line x1="186.20689655172416" y1="186.20689655172416" x2="217.24137931034485" y2="155.17241379310346" stroke-linecap="square" stroke-width="1" stroke="#b8f1bc"/><line x1="217.24137931034485" y1="186.20689655172416" x2="248.27586206896555" y2="155.17241379310346" stroke-linecap="square" stroke-width="1" stroke="#b8f1bc"/><line x1="248.27586206896555" y1="155.17241379310346" x2="279.3103448275862" y2="186.20689655172416" stroke-linecap="square" stroke-width="1" stroke="#b8f1bc"/><line x1="279.3103448275862" y1="155.17241379310346" x2="310.3448275862069" y2="186.20689655172416" stroke-linecap="square" stroke-width="1" stroke="#b8f1bc"/><line x1="310.3448275862069" y1="155.17241379310346" x2="341.3793103448276" y2="186.20689655172416" stroke-linecap="square" stroke-width="1" stroke="#b8f1bc"/><line x1="341.3793103448276" y1="155.17241379310346" x2="372.4137931034483" y2="186.20689655172416" stroke-linecap="square" stroke-width="1" stroke="#b8f1bc"/><line x1="372.4137931034483" y1="186.20689655172416" x2="403.448275862069" y2="155.17241379310346" stroke-linecap="square" stroke-width="1" stroke="#b8f1bc"/><line x1="403.448275862069" y1="186.20689655172416" x2="434.4827586206897" y2="155.17241379310346" stroke-linecap="square" stroke-width="1" stroke="#b8f1bc"/><line x1="434.4827586206897" y1="186.20689655172416" x2="465.5172413793104" y2="155.17241379310346" stroke-linecap="square" stroke-width="1" stroke="#b8f1bc"/><line x1="465.5172413793104" y1="155.17241379310346" x2="496.5517241379311" y2="186.20689655172416" stroke-linecap="square" stroke-width="1" stroke="#b8f1bc"/><line x1="496.5517241379311" y1="155.17241379310346" x2="527.5862068965517" y2="186.20689655172416" stroke-linecap="square" stroke-width="1" stroke="#b8f1bc"/><line x1="527.5862068965517" y1="186.20689655172416" x2="558.6206896551724" y2="155.17241379310346" stroke-linecap="square" stroke-width="1" stroke="#b8f1bc"/><line x1="558.6206896551724" y1="186.20689655172416" x2="589.6551724137931" y2="155.17241379310346" stroke-linecap="square" stroke-width="1" stroke="#b8f1bc"/><line x1="589.6551724137931" y1="155.17241379310346" x2="620.6896551724138" y2="186.20689655172416" stroke-linecap="square" stroke-width="1" stroke="#b8f1bc"/><line x1="620.6896551724138" y1="155.17241379310346" x2="651.7241379310345" y2="186.20689655172416" stroke-linecap="square" stroke-width="1" stroke="#b8f1bc"/><line x1="651.7241379310345" y1="186.20689655172416" x2="682.7586206896552" y2="155.17241379310346" stroke-linecap="square" stroke-width="1" stroke="#b8f1bc"/><line x1="682.7586206896552" y1="186.20689655172416" x2="713.7931034482759" y2="155.17241379310346" stroke-linecap="square" stroke-width="1" stroke="#b8f1bc"/><line x1="713.7931034482759" y1="155.17241379310346" x2="744.8275862068966" y2="186.20689655172416" stroke-linecap="square" stroke-width="1" stroke="#b8f1bc"/><line x1="744.8275862068966" y1="186.20689655172416" x2="775.8620689655173" y2="155.17241379310346" stroke-linecap="square" stroke-width="1" stroke="#b8f1bc"/><line x1="775.8620689655173" y1="186.20689655172416" x2="806.896551724138" y2="155.17241379310346" stroke-linecap="square" stroke-width="1" stroke="#b8f1bc"/><line x1="806.896551724138" y1="186.20689655172416" x2="837.9310344827587" y2="155.17241379310346" stroke-linecap="square" stroke-width="1" stroke="#b8f1bc"/><line x1="837.9310344827587" y1="186.20689655172416" x2="868.9655172413794" y2="155.17241379310346" stroke-linecap="square" stroke-width="1" stroke="#b8f1bc"/><line x1="868.9655172413794" y1="186.20689655172416" x2="900.0000000000001" y2="155.17241379310346" stroke-linecap="square" stroke-width="1" stroke="#b8f1bc"/><line x1="0" y1="186.20689655172416" x2="31.03448275862069" y2="217.24137931034485" stroke-linecap="square" stroke-width="1" stroke="#b8f1bc"/><line x1="31.03448275862069" y1="186.20689655172416" x2="62.06896551724138" y2="217.24137931034485" stroke-linecap="square" stroke-width="1" stroke="#b8f1bc"/><line x1="62.06896551724138" y1="186.20689655172416" x2="93.10344827586206" y2="217.24137931034485" stroke-linecap="square" stroke-width="1" stroke="#b8f1bc"/><line x1="93.10344827586206" y1="217.24137931034485" x2="124.13793103448276" y2="186.20689655172416" stroke-linecap="square" stroke-width="1" stroke="#b8f1bc"/><line x1="124.13793103448276" y1="186.20689655172416" x2="155.17241379310346" y2="217.24137931034485" stroke-linecap="square" stroke-width="1" stroke="#b8f1bc"/><line x1="155.17241379310346" y1="217.24137931034485" x2="186.20689655172416" y2="186.20689655172416" stroke-linecap="square" stroke-width="1" stroke="#b8f1bc"/><line x1="186.20689655172416" y1="186.20689655172416" x2="217.24137931034485" y2="217.24137931034485" stroke-linecap="square" stroke-width="1" stroke="#b8f1bc"/><line x1="217.24137931034485" y1="217.24137931034485" x2="248.27586206896555" y2="186.20689655172416" stroke-linecap="square" stroke-width="1" stroke="#b8f1bc"/><line x1="248.27586206896555" y1="186.20689655172416" x2="279.3103448275862" y2="217.24137931034485" stroke-linecap="square" stroke-width="1" stroke="#b8f1bc"/><line x1="279.3103448275862" y1="217.24137931034485" x2="310.3448275862069" y2="186.20689655172416" stroke-linecap="square" stroke-width="1" stroke="#b8f1bc"/><line x1="310.3448275862069" y1="217.24137931034485" x2="341.3793103448276" y2="186.20689655172416" stroke-linecap="square" stroke-width="1" stroke="#b8f1bc"/><line x1="341.3793103448276" y1="186.20689655172416" x2="372.4137931034483" y2="217.24137931034485" stroke-linecap="square" stroke-width="1" stroke="#b8f1bc"/><line x1="372.4137931034483" y1="186.20689655172416" x2="403.448275862069" y2="217.24137931034485" stroke-linecap="square" stroke-width="1" stroke="#b8f1bc"/><line x1="403.448275862069" y1="217.24137931034485" x2="434.4827586206897" y2="186.20689655172416" stroke-linecap="square" stroke-width="1" stroke="#b8f1bc"/><line x1="434.4827586206897" y1="186.20689655172416" x2="465.5172413793104" y2="217.24137931034485" stroke-linecap="square" stroke-width="1" stroke="#b8f1bc"/><line x1="465.5172413793104" y1="186.20689655172416" x2="496.5517241379311" y2="217.24137931034485" stroke-linecap="square" stroke-width="1" stroke="#b8f1bc"/><line x1="496.5517241379311" y1="217.24137931034485" x2="527.5862068965517" y2="186.20689655172416" stroke-linecap="square" stroke-width="1" stroke="#b8f1bc"/><line x1="527.5862068965517" y1="217.24137931034485" x2="558.6206896551724" y2="186.20689655172416" stroke-linecap="square" stroke-width="1" stroke="#b8f1bc"/><line x1="558.6206896551724" y1="217.24137931034485" x2="589.6551724137931" y2="186.20689655172416" stroke-linecap="square" stroke-width="1" stroke="#b8f1bc"/><line x1="589.6551724137931" y1="217.24137931034485" x2="620.6896551724138" y2="186.20689655172416" stroke-linecap="square" stroke-width="1" stroke="#b8f1bc"/><line x1="620.6896551724138" y1="217.24137931034485" x2="651.7241379310345" y2="186.20689655172416" stroke-linecap="square" stroke-width="1" stroke="#b8f1bc"/><line x1="651.7241379310345" y1="186.20689655172416" x2="682.7586206896552" y2="217.24137931034485" stroke-linecap="square" stroke-width="1" stroke="#b8f1bc"/><line x1="682.7586206896552" y1="186.20689655172416" x2="713.7931034482759" y2="217.24137931034485" stroke-linecap="square" stroke-width="1" stroke="#b8f1bc"/><line x1="713.7931034482759" y1="217.24137931034485" x2="744.8275862068966" y2="186.20689655172416" stroke-linecap="square" stroke-width="1" stroke="#b8f1bc"/><line x1="744.8275862068966" y1="217.24137931034485" x2="775.8620689655173" y2="186.20689655172416" stroke-linecap="square" stroke-width="1" stroke="#b8f1bc"/><line x1="775.8620689655173" y1="217.24137931034485" x2="806.896551724138" y2="186.20689655172416" stroke-linecap="square" stroke-width="1" stroke="#b8f1bc"/><line x1="806.896551724138" y1="217.24137931034485" x2="837.9310344827587" y2="186.20689655172416" stroke-linecap="square" stroke-width="1" stroke="#b8f1bc"/><line x1="837.9310344827587" y1="217.24137931034485" x2="868.9655172413794" y2="186.20689655172416" stroke-linecap="square" stroke-width="1" stroke="#b8f1bc"/><line x1="868.9655172413794" y1="186.20689655172416" x2="900.0000000000001" y2="217.24137931034485" stroke-linecap="square" stroke-width="1" stroke="#b8f1bc"/><line x1="0" y1="217.24137931034485" x2="31.03448275862069" y2="248.27586206896555" stroke-linecap="square" stroke-width="1" stroke="#b8f1bc"/><line x1="31.03448275862069" y1="217.24137931034485" x2="62.06896551724138" y2="248.27586206896555" stroke-linecap="square" stroke-width="1" stroke="#b8f1bc"/><line x1="62.06896551724138" y1="248.27586206896555" x2="93.10344827586206" y2="217.24137931034485" stroke-linecap="square" stroke-width="1" stroke="#b8f1bc"/><line x1="93.10344827586206" y1="217.24137931034485" x2="124.13793103448276" y2="248.27586206896555" stroke-linecap="square" stroke-width="1" stroke="#b8f1bc"/><line x1="124.13793103448276" y1="248.27586206896555" x2="155.17241379310346" y2="217.24137931034485" stroke-linecap="square" stroke-width="1" stroke="#b8f1bc"/><line x1="155.17241379310346" y1="248.27586206896555" x2="186.20689655172416" y2="217.24137931034485" stroke-linecap="square" stroke-width="1" stroke="#b8f1bc"/><line x1="186.20689655172416" y1="248.27586206896555" x2="217.24137931034485" y2="217.24137931034485" stroke-linecap="square" stroke-width="1" stroke="#b8f1bc"/><line x1="217.24137931034485" y1="217.24137931034485" x2="248.27586206896555" y2="248.27586206896555" stroke-linecap="square" stroke-width="1" stroke="#b8f1bc"/><line x1="248.27586206896555" y1="217.24137931034485" x2="279.3103448275862" y2="248.27586206896555" stroke-linecap="square" stroke-width="1" stroke="#b8f1bc"/><line x1="279.3103448275862" y1="217.24137931034485" x2="310.3448275862069" y2="248.27586206896555" stroke-linecap="square" stroke-width="1" stroke="#b8f1bc"/><line x1="310.3448275862069" y1="248.27586206896555" x2="341.3793103448276" y2="217.24137931034485" stroke-linecap="square" stroke-width="1" stroke="#b8f1bc"/><line x1="341.3793103448276" y1="248.27586206896555" x2="372.4137931034483" y2="217.24137931034485" stroke-linecap="square" stroke-width="1" stroke="#b8f1bc"/><line x1="372.4137931034483" y1="248.27586206896555" x2="403.448275862069" y2="217.24137931034485" stroke-linecap="square" stroke-width="1" stroke="#b8f1bc"/><line x1="403.448275862069" y1="217.24137931034485" x2="434.4827586206897" y2="248.27586206896555" stroke-linecap="square" stroke-width="1" stroke="#b8f1bc"/><line x1="434.4827586206897" y1="248.27586206896555" x2="465.5172413793104" y2="217.24137931034485" stroke-linecap="square" stroke-width="1" stroke="#b8f1bc"/><line x1="465.5172413793104" y1="217.24137931034485" x2="496.5517241379311" y2="248.27586206896555" stroke-linecap="square" stroke-width="1" stroke="#b8f1bc"/><line x1="496.5517241379311" y1="217.24137931034485" x2="527.5862068965517" y2="248.27586206896555" stroke-linecap="square" stroke-width="1" stroke="#b8f1bc"/><line x1="527.5862068965517" y1="217.24137931034485" x2="558.6206896551724" y2="248.27586206896555" stroke-linecap="square" stroke-width="1" stroke="#b8f1bc"/><line x1="558.6206896551724" y1="217.24137931034485" x2="589.6551724137931" y2="248.27586206896555" stroke-linecap="square" stroke-width="1" stroke="#b8f1bc"/><line x1="589.6551724137931" y1="217.24137931034485" x2="620.6896551724138" y2="248.27586206896555" stroke-linecap="square" stroke-width="1" stroke="#b8f1bc"/><line x1="620.6896551724138" y1="248.27586206896555" x2="651.7241379310345" y2="217.24137931034485" stroke-linecap="square" stroke-width="1" stroke="#b8f1bc"/><line x1="651.7241379310345" y1="248.27586206896555" x2="682.7586206896552" y2="217.24137931034485" stroke-linecap="square" stroke-width="1" stroke="#b8f1bc"/><line x1="682.7586206896552" y1="217.24137931034485" x2="713.7931034482759" y2="248.27586206896555" stroke-linecap="square" stroke-width="1" stroke="#b8f1bc"/><line x1="713.7931034482759" y1="217.24137931034485" x2="744.8275862068966" y2="248.27586206896555" stroke-linecap="square" stroke-width="1" stroke="#b8f1bc"/><line x1="744.8275862068966" y1="248.27586206896555" x2="775.8620689655173" y2="217.24137931034485" stroke-linecap="square" stroke-width="1" stroke="#b8f1bc"/><line x1="775.8620689655173" y1="217.24137931034485" x2="806.896551724138" y2="248.27586206896555" stroke-linecap="square" stroke-width="1" stroke="#b8f1bc"/><line x1="806.896551724138" y1="248.27586206896555" x2="837.9310344827587" y2="217.24137931034485" stroke-linecap="square" stroke-width="1" stroke="#b8f1bc"/><line x1="837.9310344827587" y1="248.27586206896555" x2="868.9655172413794" y2="217.24137931034485" stroke-linecap="square" stroke-width="1" stroke="#b8f1bc"/><line x1="868.9655172413794" y1="217.24137931034485" x2="900.0000000000001" y2="248.27586206896555" stroke-linecap="square" stroke-width="1" stroke="#b8f1bc"/><line x1="0" y1="248.27586206896555" x2="31.03448275862069" y2="279.3103448275862" stroke-linecap="square" stroke-width="1" stroke="#b8f1bc"/><line x1="31.03448275862069" y1="279.3103448275862" x2="62.06896551724138" y2="248.27586206896555" stroke-linecap="square" stroke-width="1" stroke="#b8f1bc"/><line x1="62.06896551724138" y1="248.27586206896555" x2="93.10344827586206" y2="279.3103448275862" stroke-linecap="square" stroke-width="1" stroke="#b8f1bc"/><line x1="93.10344827586206" y1="248.27586206896555" x2="124.13793103448276" y2="279.3103448275862" stroke-linecap="square" stroke-width="1" stroke="#b8f1bc"/><line x1="124.13793103448276" y1="279.3103448275862" x2="155.17241379310346" y2="248.27586206896555" stroke-linecap="square" stroke-width="1" stroke="#b8f1bc"/><line x1="155.17241379310346" y1="279.3103448275862" x2="186.20689655172416" y2="248.27586206896555" stroke-linecap="square" stroke-width="1" stroke="#b8f1bc"/><line x1="186.20689655172416" y1="279.3103448275862" x2="217.24137931034485" y2="248.27586206896555" stroke-linecap="square" stroke-width="1" stroke="#b8f1bc"/><line x1="217.24137931034485" y1="248.27586206896555" x2="248.27586206896555" y2="279.3103448275862" stroke-linecap="square" stroke-width="1" stroke="#b8f1bc"/><line x1="248.27586206896555" y1="248.27586206896555" x2="279.3103448275862" y2="279.3103448275862" stroke-linecap="square" stroke-width="1" stroke="#b8f1bc"/><line x1="279.3103448275862" y1="248.27586206896555" x2="310.3448275862069" y2="279.3103448275862" stroke-linecap="square" stroke-width="1" stroke="#b8f1bc"/><line x1="310.3448275862069" y1="279.3103448275862" x2="341.3793103448276" y2="248.27586206896555" stroke-linecap="square" stroke-width="1" stroke="#b8f1bc"/><line x1="341.3793103448276" y1="248.27586206896555" x2="372.4137931034483" y2="279.3103448275862" stroke-linecap="square" stroke-width="1" stroke="#b8f1bc"/><line x1="372.4137931034483" y1="248.27586206896555" x2="403.448275862069" y2="279.3103448275862" stroke-linecap="square" stroke-width="1" stroke="#b8f1bc"/><line x1="403.448275862069" y1="248.27586206896555" x2="434.4827586206897" y2="279.3103448275862" stroke-linecap="square" stroke-width="1" stroke="#b8f1bc"/><line x1="434.4827586206897" y1="248.27586206896555" x2="465.5172413793104" y2="279.3103448275862" stroke-linecap="square" stroke-width="1" stroke="#b8f1bc"/><line x1="465.5172413793104" y1="248.27586206896555" x2="496.5517241379311" y2="279.3103448275862" stroke-linecap="square" stroke-width="1" stroke="#b8f1bc"/><line x1="496.5517241379311" y1="279.3103448275862" x2="527.5862068965517" y2="248.27586206896555" stroke-linecap="square" stroke-width="1" stroke="#b8f1bc"/><line x1="527.5862068965517" y1="279.3103448275862" x2="558.6206896551724" y2="248.27586206896555" stroke-linecap="square" stroke-width="1" stroke="#b8f1bc"/><line x1="558.6206896551724" y1="248.27586206896555" x2="589.6551724137931" y2="279.3103448275862" stroke-linecap="square" stroke-width="1" stroke="#b8f1bc"/><line x1="589.6551724137931" y1="279.3103448275862" x2="620.6896551724138" y2="248.27586206896555" stroke-linecap="square" stroke-width="1" stroke="#b8f1bc"/><line x1="620.6896551724138" y1="279.3103448275862" x2="651.7241379310345" y2="248.27586206896555" stroke-linecap="square" stroke-width="1" stroke="#b8f1bc"/><line x1="651.7241379310345" y1="279.3103448275862" x2="682.7586206896552" y2="248.27586206896555" stroke-linecap="square" stroke-width="1" stroke="#b8f1bc"/><line x1="682.7586206896552" y1="248.27586206896555" x2="713.7931034482759" y2="279.3103448275862" stroke-linecap="square" stroke-width="1" stroke="#b8f1bc"/><line x1="713.7931034482759" y1="248.27586206896555" x2="744.8275862068966" y2="279.3103448275862" stroke-linecap="square" stroke-width="1" stroke="#b8f1bc"/><line x1="744.8275862068966" y1="279.3103448275862" x2="775.8620689655173" y2="248.27586206896555" stroke-linecap="square" stroke-width="1" stroke="#b8f1bc"/><line x1="775.8620689655173" y1="279.3103448275862" x2="806.896551724138" y2="248.27586206896555" stroke-linecap="square" stroke-width="1" stroke="#b8f1bc"/><line x1="806.896551724138" y1="248.27586206896555" x2="837.9310344827587" y2="279.3103448275862" stroke-linecap="square" stroke-width="1" stroke="#b8f1bc"/><line x1="837.9310344827587" y1="248.27586206896555" x2="868.9655172413794" y2="279.3103448275862" stroke-linecap="square" stroke-width="1" stroke="#b8f1bc"/><line x1="868.9655172413794" y1="279.3103448275862" x2="900.0000000000001" y2="248.27586206896555" stroke-linecap="square" stroke-width="1" stroke="#b8f1bc"/><line x1="0" y1="279.3103448275862" x2="31.03448275862069" y2="310.3448275862069" stroke-linecap="square" stroke-width="1" stroke="#b8f1bc"/><line x1="31.03448275862069" y1="310.3448275862069" x2="62.06896551724138" y2="279.3103448275862" stroke-linecap="square" stroke-width="1" stroke="#b8f1bc"/><line x1="62.06896551724138" y1="279.3103448275862" x2="93.10344827586206" y2="310.3448275862069" stroke-linecap="square" stroke-width="1" stroke="#b8f1bc"/><line x1="93.10344827586206" y1="310.3448275862069" x2="124.13793103448276" y2="279.3103448275862" stroke-linecap="square" stroke-width="1" stroke="#b8f1bc"/><line x1="124.13793103448276" y1="279.3103448275862" x2="155.17241379310346" y2="310.3448275862069" stroke-linecap="square" stroke-width="1" stroke="#b8f1bc"/><line x1="155.17241379310346" y1="279.3103448275862" x2="186.20689655172416" y2="310.3448275862069" stroke-linecap="square" stroke-width="1" stroke="#b8f1bc"/><line x1="186.20689655172416" y1="310.3448275862069" x2="217.24137931034485" y2="279.3103448275862" stroke-linecap="square" stroke-width="1" stroke="#b8f1bc"/><line x1="217.24137931034485" y1="279.3103448275862" x2="248.27586206896555" y2="310.3448275862069" stroke-linecap="square" stroke-width="1" stroke="#b8f1bc"/><line x1="248.27586206896555" y1="310.3448275862069" x2="279.3103448275862" y2="279.3103448275862" stroke-linecap="square" stroke-width="1" stroke="#b8f1bc"/><line x1="279.3103448275862" y1="279.3103448275862" x2="310.3448275862069" y2="310.3448275862069" stroke-linecap="square" stroke-width="1" stroke="#b8f1bc"/><line x1="310.3448275862069" y1="279.3103448275862" x2="341.3793103448276" y2="310.3448275862069" stroke-linecap="square" stroke-width="1" stroke="#b8f1bc"/><line x1="341.3793103448276" y1="310.3448275862069" x2="372.4137931034483" y2="279.3103448275862" stroke-linecap="square" stroke-width="1" stroke="#b8f1bc"/><line x1="372.4137931034483" y1="310.3448275862069" x2="403.448275862069" y2="279.3103448275862" stroke-linecap="square" stroke-width="1" stroke="#b8f1bc"/><line x1="403.448275862069" y1="279.3103448275862" x2="434.4827586206897" y2="310.3448275862069" stroke-linecap="square" stroke-width="1" stroke="#b8f1bc"/><line x1="434.4827586206897" y1="279.3103448275862" x2="465.5172413793104" y2="310.3448275862069" stroke-linecap="square" stroke-width="1" stroke="#b8f1bc"/><line x1="465.5172413793104" y1="279.3103448275862" x2="496.5517241379311" y2="310.3448275862069" stroke-linecap="square" stroke-width="1" stroke="#b8f1bc"/><line x1="496.5517241379311" y1="279.3103448275862" x2="527.5862068965517" y2="310.3448275862069" stroke-linecap="square" stroke-width="1" stroke="#b8f1bc"/><line x1="527.5862068965517" y1="310.3448275862069" x2="558.6206896551724" y2="279.3103448275862" stroke-linecap="square" stroke-width="1" stroke="#b8f1bc"/><line x1="558.6206896551724" y1="279.3103448275862" x2="589.6551724137931" y2="310.3448275862069" stroke-linecap="square" stroke-width="1" stroke="#b8f1bc"/><line x1="589.6551724137931" y1="279.3103448275862" x2="620.6896551724138" y2="310.3448275862069" stroke-linecap="square" stroke-width="1" stroke="#b8f1bc"/><line x1="620.6896551724138" y1="279.3103448275862" x2="651.7241379310345" y2="310.3448275862069" stroke-linecap="square" stroke-width="1" stroke="#b8f1bc"/><line x1="651.7241379310345" y1="279.3103448275862" x2="682.7586206896552" y2="310.3448275862069" stroke-linecap="square" stroke-width="1" stroke="#b8f1bc"/><line x1="682.7586206896552" y1="310.3448275862069" x2="713.7931034482759" y2="279.3103448275862" stroke-linecap="square" stroke-width="1" stroke="#b8f1bc"/><line x1="713.7931034482759" y1="279.3103448275862" x2="744.8275862068966" y2="310.3448275862069" stroke-linecap="square" stroke-width="1" stroke="#b8f1bc"/><line x1="744.8275862068966" y1="279.3103448275862" x2="775.8620689655173" y2="310.3448275862069" stroke-linecap="square" stroke-width="1" stroke="#b8f1bc"/><line x1="775.8620689655173" y1="279.3103448275862" x2="806.896551724138" y2="310.3448275862069" stroke-linecap="square" stroke-width="1" stroke="#b8f1bc"/><line x1="806.896551724138" y1="310.3448275862069" x2="837.9310344827587" y2="279.3103448275862" stroke-linecap="square" stroke-width="1" stroke="#b8f1bc"/><line x1="837.9310344827587" y1="310.3448275862069" x2="868.9655172413794" y2="279.3103448275862" stroke-linecap="square" stroke-width="1" stroke="#b8f1bc"/><line x1="868.9655172413794" y1="279.3103448275862" x2="900.0000000000001" y2="310.3448275862069" stroke-linecap="square" stroke-width="1" stroke="#b8f1bc"/><line x1="0" y1="341.3793103448276" x2="31.03448275862069" y2="310.3448275862069" stroke-linecap="square" stroke-width="1" stroke="#b8f1bc"/><line x1="31.03448275862069" y1="310.3448275862069" x2="62.06896551724138" y2="341.3793103448276" stroke-linecap="square" stroke-width="1" stroke="#b8f1bc"/><line x1="62.06896551724138" y1="310.3448275862069" x2="93.10344827586206" y2="341.3793103448276" stroke-linecap="square" stroke-width="1" stroke="#b8f1bc"/><line x1="93.10344827586206" y1="310.3448275862069" x2="124.13793103448276" y2="341.3793103448276" stroke-linecap="square" stroke-width="1" stroke="#b8f1bc"/><line x1="124.13793103448276" y1="341.3793103448276" x2="155.17241379310346" y2="310.3448275862069" stroke-linecap="square" stroke-width="1" stroke="#b8f1bc"/><line x1="155.17241379310346" y1="310.3448275862069" x2="186.20689655172416" y2="341.3793103448276" stroke-linecap="square" stroke-width="1" stroke="#b8f1bc"/><line x1="186.20689655172416" y1="341.3793103448276" x2="217.24137931034485" y2="310.3448275862069" stroke-linecap="square" stroke-width="1" stroke="#b8f1bc"/><line x1="217.24137931034485" y1="310.3448275862069" x2="248.27586206896555" y2="341.3793103448276" stroke-linecap="square" stroke-width="1" stroke="#b8f1bc"/><line x1="248.27586206896555" y1="341.3793103448276" x2="279.3103448275862" y2="310.3448275862069" stroke-linecap="square" stroke-width="1" stroke="#b8f1bc"/><line x1="279.3103448275862" y1="341.3793103448276" x2="310.3448275862069" y2="310.3448275862069" stroke-linecap="square" stroke-width="1" stroke="#b8f1bc"/><line x1="310.3448275862069" y1="310.3448275862069" x2="341.3793103448276" y2="341.3793103448276" stroke-linecap="square" stroke-width="1" stroke="#b8f1bc"/><line x1="341.3793103448276" y1="310.3448275862069" x2="372.4137931034483" y2="341.3793103448276" stroke-linecap="square" stroke-width="1" stroke="#b8f1bc"/><line x1="372.4137931034483" y1="341.3793103448276" x2="403.448275862069" y2="310.3448275862069" stroke-linecap="square" stroke-width="1" stroke="#b8f1bc"/><line x1="403.448275862069" y1="341.3793103448276" x2="434.4827586206897" y2="310.3448275862069" stroke-linecap="square" stroke-width="1" stroke="#b8f1bc"/><line x1="434.4827586206897" y1="341.3793103448276" x2="465.5172413793104" y2="310.3448275862069" stroke-linecap="square" stroke-width="1" stroke="#b8f1bc"/><line x1="465.5172413793104" y1="341.3793103448276" x2="496.5517241379311" y2="310.3448275862069" stroke-linecap="square" stroke-width="1" stroke="#b8f1bc"/><line x1="496.5517241379311" y1="310.3448275862069" x2="527.5862068965517" y2="341.3793103448276" stroke-linecap="square" stroke-width="1" stroke="#b8f1bc"/><line x1="527.5862068965517" y1="310.3448275862069" x2="558.6206896551724" y2="341.3793103448276" stroke-linecap="square" stroke-width="1" stroke="#b8f1bc"/><line x1="558.6206896551724" y1="310.3448275862069" x2="589.6551724137931" y2="341.3793103448276" stroke-linecap="square" stroke-width="1" stroke="#b8f1bc"/><line x1="589.6551724137931" y1="341.3793103448276" x2="620.6896551724138" y2="310.3448275862069" stroke-linecap="square" stroke-width="1" stroke="#b8f1bc"/><line x1="620.6896551724138" y1="341.3793103448276" x2="651.7241379310345" y2="310.3448275862069" stroke-linecap="square" stroke-width="1" stroke="#b8f1bc"/><line x1="651.7241379310345" y1="310.3448275862069" x2="682.7586206896552" y2="341.3793103448276" stroke-linecap="square" stroke-width="1" stroke="#b8f1bc"/><line x1="682.7586206896552" y1="341.3793103448276" x2="713.7931034482759" y2="310.3448275862069" stroke-linecap="square" stroke-width="1" stroke="#b8f1bc"/><line x1="713.7931034482759" y1="310.3448275862069" x2="744.8275862068966" y2="341.3793103448276" stroke-linecap="square" stroke-width="1" stroke="#b8f1bc"/><line x1="744.8275862068966" y1="310.3448275862069" x2="775.8620689655173" y2="341.3793103448276" stroke-linecap="square" stroke-width="1" stroke="#b8f1bc"/><line x1="775.8620689655173" y1="341.3793103448276" x2="806.896551724138" y2="310.3448275862069" stroke-linecap="square" stroke-width="1" stroke="#b8f1bc"/><line x1="806.896551724138" y1="310.3448275862069" x2="837.9310344827587" y2="341.3793103448276" stroke-linecap="square" stroke-width="1" stroke="#b8f1bc"/><line x1="837.9310344827587" y1="310.3448275862069" x2="868.9655172413794" y2="341.3793103448276" stroke-linecap="square" stroke-width="1" stroke="#b8f1bc"/><line x1="868.9655172413794" y1="341.3793103448276" x2="900.0000000000001" y2="310.3448275862069" stroke-linecap="square" stroke-width="1" stroke="#b8f1bc"/><line x1="0" y1="372.4137931034483" x2="31.03448275862069" y2="341.3793103448276" stroke-linecap="square" stroke-width="1" stroke="#b8f1bc"/><line x1="31.03448275862069" y1="372.4137931034483" x2="62.06896551724138" y2="341.3793103448276" stroke-linecap="square" stroke-width="1" stroke="#b8f1bc"/><line x1="62.06896551724138" y1="372.4137931034483" x2="93.10344827586206" y2="341.3793103448276" stroke-linecap="square" stroke-width="1" stroke="#b8f1bc"/><line x1="93.10344827586206" y1="341.3793103448276" x2="124.13793103448276" y2="372.4137931034483" stroke-linecap="square" stroke-width="1" stroke="#b8f1bc"/><line x1="124.13793103448276" y1="372.4137931034483" x2="155.17241379310346" y2="341.3793103448276" stroke-linecap="square" stroke-width="1" stroke="#b8f1bc"/><line x1="155.17241379310346" y1="341.3793103448276" x2="186.20689655172416" y2="372.4137931034483" stroke-linecap="square" stroke-width="1" stroke="#b8f1bc"/><line x1="186.20689655172416" y1="341.3793103448276" x2="217.24137931034485" y2="372.4137931034483" stroke-linecap="square" stroke-width="1" stroke="#b8f1bc"/><line x1="217.24137931034485" y1="341.3793103448276" x2="248.27586206896555" y2="372.4137931034483" stroke-linecap="square" stroke-width="1" stroke="#b8f1bc"/><line x1="248.27586206896555" y1="372.4137931034483" x2="279.3103448275862" y2="341.3793103448276" stroke-linecap="square" stroke-width="1" stroke="#b8f1bc"/><line x1="279.3103448275862" y1="341.3793103448276" x2="310.3448275862069" y2="372.4137931034483" stroke-linecap="square" stroke-width="1" stroke="#b8f1bc"/><line x1="310.3448275862069" y1="341.3793103448276" x2="341.3793103448276" y2="372.4137931034483" stroke-linecap="square" stroke-width="1" stroke="#b8f1bc"/><line x1="341.3793103448276" y1="372.4137931034483" x2="372.4137931034483" y2="341.3793103448276" stroke-linecap="square" stroke-width="1" stroke="#b8f1bc"/><line x1="372.4137931034483" y1="372.4137931034483" x2="403.448275862069" y2="341.3793103448276" stroke-linecap="square" stroke-width="1" stroke="#b8f1bc"/><line x1="403.448275862069" y1="341.3793103448276" x2="434.4827586206897" y2="372.4137931034483" stroke-linecap="square" stroke-width="1" stroke="#b8f1bc"/><line x1="434.4827586206897" y1="372.4137931034483" x2="465.5172413793104" y2="341.3793103448276" stroke-linecap="square" stroke-width="1" stroke="#b8f1bc"/><line x1="465.5172413793104" y1="341.3793103448276" x2="496.5517241379311" y2="372.4137931034483" stroke-linecap="square" stroke-width="1" stroke="#b8f1bc"/><line x1="496.5517241379311" y1="372.4137931034483" x2="527.5862068965517" y2="341.3793103448276" stroke-linecap="square" stroke-width="1" stroke="#b8f1bc"/><line x1="527.5862068965517" y1="372.4137931034483" x2="558.6206896551724" y2="341.3793103448276" stroke-linecap="square" stroke-width="1" stroke="#b8f1bc"/><line x1="558.6206896551724" y1="341.3793103448276" x2="589.6551724137931" y2="372.4137931034483" stroke-linecap="square" stroke-width="1" stroke="#b8f1bc"/><line x1="589.6551724137931" y1="341.3793103448276" x2="620.6896551724138" y2="372.4137931034483" stroke-linecap="square" stroke-width="1" stroke="#b8f1bc"/><line x1="620.6896551724138" y1="372.4137931034483" x2="651.7241379310345" y2="341.3793103448276" stroke-linecap="square" stroke-width="1" stroke="#b8f1bc"/><line x1="651.7241379310345" y1="372.4137931034483" x2="682.7586206896552" y2="341.3793103448276" stroke-linecap="square" stroke-width="1" stroke="#b8f1bc"/><line x1="682.7586206896552" y1="372.4137931034483" x2="713.7931034482759" y2="341.3793103448276" stroke-linecap="square" stroke-width="1" stroke="#b8f1bc"/><line x1="713.7931034482759" y1="341.3793103448276" x2="744.8275862068966" y2="372.4137931034483" stroke-linecap="square" stroke-width="1" stroke="#b8f1bc"/><line x1="744.8275862068966" y1="341.3793103448276" x2="775.8620689655173" y2="372.4137931034483" stroke-linecap="square" stroke-width="1" stroke="#b8f1bc"/><line x1="775.8620689655173" y1="341.3793103448276" x2="806.896551724138" y2="372.4137931034483" stroke-linecap="square" stroke-width="1" stroke="#b8f1bc"/><line x1="806.896551724138" y1="372.4137931034483" x2="837.9310344827587" y2="341.3793103448276" stroke-linecap="square" stroke-width="1" stroke="#b8f1bc"/><line x1="837.9310344827587" y1="372.4137931034483" x2="868.9655172413794" y2="341.3793103448276" stroke-linecap="square" stroke-width="1" stroke="#b8f1bc"/><line x1="868.9655172413794" y1="372.4137931034483" x2="900.0000000000001" y2="341.3793103448276" stroke-linecap="square" stroke-width="1" stroke="#b8f1bc"/><line x1="0" y1="403.448275862069" x2="31.03448275862069" y2="372.4137931034483" stroke-linecap="square" stroke-width="1" stroke="#b8f1bc"/><line x1="31.03448275862069" y1="372.4137931034483" x2="62.06896551724138" y2="403.448275862069" stroke-linecap="square" stroke-width="1" stroke="#b8f1bc"/><line x1="62.06896551724138" y1="403.448275862069" x2="93.10344827586206" y2="372.4137931034483" stroke-linecap="square" stroke-width="1" stroke="#b8f1bc"/><line x1="93.10344827586206" y1="403.448275862069" x2="124.13793103448276" y2="372.4137931034483" stroke-linecap="square" stroke-width="1" stroke="#b8f1bc"/><line x1="124.13793103448276" y1="372.4137931034483" x2="155.17241379310346" y2="403.448275862069" stroke-linecap="square" stroke-width="1" stroke="#b8f1bc"/><line x1="155.17241379310346" y1="372.4137931034483" x2="186.20689655172416" y2="403.448275862069" stroke-linecap="square" stroke-width="1" stroke="#b8f1bc"/><line x1="186.20689655172416" y1="403.448275862069" x2="217.24137931034485" y2="372.4137931034483" stroke-linecap="square" stroke-width="1" stroke="#b8f1bc"/><line x1="217.24137931034485" y1="372.4137931034483" x2="248.27586206896555" y2="403.448275862069" stroke-linecap="square" stroke-width="1" stroke="#b8f1bc"/><line x1="248.27586206896555" y1="403.448275862069" x2="279.3103448275862" y2="372.4137931034483" stroke-linecap="square" stroke-width="1" stroke="#b8f1bc"/><line x1="279.3103448275862" y1="372.4137931034483" x2="310.3448275862069" y2="403.448275862069" stroke-linecap="square" stroke-width="1" stroke="#b8f1bc"/><line x1="310.3448275862069" y1="372.4137931034483" x2="341.3793103448276" y2="403.448275862069" stroke-linecap="square" stroke-width="1" stroke="#b8f1bc"/><line x1="341.3793103448276" y1="372.4137931034483" x2="372.4137931034483" y2="403.448275862069" stroke-linecap="square" stroke-width="1" stroke="#b8f1bc"/><line x1="372.4137931034483" y1="403.448275862069" x2="403.448275862069" y2="372.4137931034483" stroke-linecap="square" stroke-width="1" stroke="#b8f1bc"/><line x1="403.448275862069" y1="403.448275862069" x2="434.4827586206897" y2="372.4137931034483" stroke-linecap="square" stroke-width="1" stroke="#b8f1bc"/><line x1="434.4827586206897" y1="372.4137931034483" x2="465.5172413793104" y2="403.448275862069" stroke-linecap="square" stroke-width="1" stroke="#b8f1bc"/><line x1="465.5172413793104" y1="403.448275862069" x2="496.5517241379311" y2="372.4137931034483" stroke-linecap="square" stroke-width="1" stroke="#b8f1bc"/><line x1="496.5517241379311" y1="372.4137931034483" x2="527.5862068965517" y2="403.448275862069" stroke-linecap="square" stroke-width="1" stroke="#b8f1bc"/><line x1="527.5862068965517" y1="403.448275862069" x2="558.6206896551724" y2="372.4137931034483" stroke-linecap="square" stroke-width="1" stroke="#b8f1bc"/><line x1="558.6206896551724" y1="403.448275862069" x2="589.6551724137931" y2="372.4137931034483" stroke-linecap="square" stroke-width="1" stroke="#b8f1bc"/><line x1="589.6551724137931" y1="372.4137931034483" x2="620.6896551724138" y2="403.448275862069" stroke-linecap="square" stroke-width="1" stroke="#b8f1bc"/><line x1="620.6896551724138" y1="403.448275862069" x2="651.7241379310345" y2="372.4137931034483" stroke-linecap="square" stroke-width="1" stroke="#b8f1bc"/><line x1="651.7241379310345" y1="403.448275862069" x2="682.7586206896552" y2="372.4137931034483" stroke-linecap="square" stroke-width="1" stroke="#b8f1bc"/><line x1="682.7586206896552" y1="403.448275862069" x2="713.7931034482759" y2="372.4137931034483" stroke-linecap="square" stroke-width="1" stroke="#b8f1bc"/><line x1="713.7931034482759" y1="372.4137931034483" x2="744.8275862068966" y2="403.448275862069" stroke-linecap="square" stroke-width="1" stroke="#b8f1bc"/><line x1="744.8275862068966" y1="403.448275862069" x2="775.8620689655173" y2="372.4137931034483" stroke-linecap="square" stroke-width="1" stroke="#b8f1bc"/><line x1="775.8620689655173" y1="372.4137931034483" x2="806.896551724138" y2="403.448275862069" stroke-linecap="square" stroke-width="1" stroke="#b8f1bc"/><line x1="806.896551724138" y1="403.448275862069" x2="837.9310344827587" y2="372.4137931034483" stroke-linecap="square" stroke-width="1" stroke="#b8f1bc"/><line x1="837.9310344827587" y1="403.448275862069" x2="868.9655172413794" y2="372.4137931034483" stroke-linecap="square" stroke-width="1" stroke="#b8f1bc"/><line x1="868.9655172413794" y1="403.448275862069" x2="900.0000000000001" y2="372.4137931034483" stroke-linecap="square" stroke-width="1" stroke="#b8f1bc"/><line x1="0" y1="403.448275862069" x2="31.03448275862069" y2="434.4827586206897" stroke-linecap="square" stroke-width="1" stroke="#b8f1bc"/><line x1="31.03448275862069" y1="403.448275862069" x2="62.06896551724138" y2="434.4827586206897" stroke-linecap="square" stroke-width="1" stroke="#b8f1bc"/><line x1="62.06896551724138" y1="434.4827586206897" x2="93.10344827586206" y2="403.448275862069" stroke-linecap="square" stroke-width="1" stroke="#b8f1bc"/><line x1="93.10344827586206" y1="434.4827586206897" x2="124.13793103448276" y2="403.448275862069" stroke-linecap="square" stroke-width="1" stroke="#b8f1bc"/><line x1="124.13793103448276" y1="403.448275862069" x2="155.17241379310346" y2="434.4827586206897" stroke-linecap="square" stroke-width="1" stroke="#b8f1bc"/><line x1="155.17241379310346" y1="403.448275862069" x2="186.20689655172416" y2="434.4827586206897" stroke-linecap="square" stroke-width="1" stroke="#b8f1bc"/><line x1="186.20689655172416" y1="403.448275862069" x2="217.24137931034485" y2="434.4827586206897" stroke-linecap="square" stroke-width="1" stroke="#b8f1bc"/><line x1="217.24137931034485" y1="403.448275862069" x2="248.27586206896555" y2="434.4827586206897" stroke-linecap="square" stroke-width="1" stroke="#b8f1bc"/><line x1="248.27586206896555" y1="403.448275862069" x2="279.3103448275862" y2="434.4827586206897" stroke-linecap="square" stroke-width="1" stroke="#b8f1bc"/><line x1="279.3103448275862" y1="434.4827586206897" x2="310.3448275862069" y2="403.448275862069" stroke-linecap="square" stroke-width="1" stroke="#b8f1bc"/><line x1="310.3448275862069" y1="403.448275862069" x2="341.3793103448276" y2="434.4827586206897" stroke-linecap="square" stroke-width="1" stroke="#b8f1bc"/><line x1="341.3793103448276" y1="434.4827586206897" x2="372.4137931034483" y2="403.448275862069" stroke-linecap="square" stroke-width="1" stroke="#b8f1bc"/><line x1="372.4137931034483" y1="434.4827586206897" x2="403.448275862069" y2="403.448275862069" stroke-linecap="square" stroke-width="1" stroke="#b8f1bc"/><line x1="403.448275862069" y1="434.4827586206897" x2="434.4827586206897" y2="403.448275862069" stroke-linecap="square" stroke-width="1" stroke="#b8f1bc"/><line x1="434.4827586206897" y1="434.4827586206897" x2="465.5172413793104" y2="403.448275862069" stroke-linecap="square" stroke-width="1" stroke="#b8f1bc"/><line x1="465.5172413793104" y1="403.448275862069" x2="496.5517241379311" y2="434.4827586206897" stroke-linecap="square" stroke-width="1" stroke="#b8f1bc"/><line x1="496.5517241379311" y1="434.4827586206897" x2="527.5862068965517" y2="403.448275862069" stroke-linecap="square" stroke-width="1" stroke="#b8f1bc"/><line x1="527.5862068965517" y1="434.4827586206897" x2="558.6206896551724" y2="403.448275862069" stroke-linecap="square" stroke-width="1" stroke="#b8f1bc"/><line x1="558.6206896551724" y1="434.4827586206897" x2="589.6551724137931" y2="403.448275862069" stroke-linecap="square" stroke-width="1" stroke="#b8f1bc"/><line x1="589.6551724137931" y1="434.4827586206897" x2="620.6896551724138" y2="403.448275862069" stroke-linecap="square" stroke-width="1" stroke="#b8f1bc"/><line x1="620.6896551724138" y1="434.4827586206897" x2="651.7241379310345" y2="403.448275862069" stroke-linecap="square" stroke-width="1" stroke="#b8f1bc"/><line x1="651.7241379310345" y1="403.448275862069" x2="682.7586206896552" y2="434.4827586206897" stroke-linecap="square" stroke-width="1" stroke="#b8f1bc"/><line x1="682.7586206896552" y1="403.448275862069" x2="713.7931034482759" y2="434.4827586206897" stroke-linecap="square" stroke-width="1" stroke="#b8f1bc"/><line x1="713.7931034482759" y1="434.4827586206897" x2="744.8275862068966" y2="403.448275862069" stroke-linecap="square" stroke-width="1" stroke="#b8f1bc"/><line x1="744.8275862068966" y1="403.448275862069" x2="775.8620689655173" y2="434.4827586206897" stroke-linecap="square" stroke-width="1" stroke="#b8f1bc"/><line x1="775.8620689655173" y1="434.4827586206897" x2="806.896551724138" y2="403.448275862069" stroke-linecap="square" stroke-width="1" stroke="#b8f1bc"/><line x1="806.896551724138" y1="434.4827586206897" x2="837.9310344827587" y2="403.448275862069" stroke-linecap="square" stroke-width="1" stroke="#b8f1bc"/><line x1="837.9310344827587" y1="403.448275862069" x2="868.9655172413794" y2="434.4827586206897" stroke-linecap="square" stroke-width="1" stroke="#b8f1bc"/><line x1="868.9655172413794" y1="434.4827586206897" x2="900.0000000000001" y2="403.448275862069" stroke-linecap="square" stroke-width="1" stroke="#b8f1bc"/><line x1="0" y1="465.5172413793104" x2="31.03448275862069" y2="434.4827586206897" stroke-linecap="square" stroke-width="1" stroke="#b8f1bc"/><line x1="31.03448275862069" y1="465.5172413793104" x2="62.06896551724138" y2="434.4827586206897" stroke-linecap="square" stroke-width="1" stroke="#b8f1bc"/><line x1="62.06896551724138" y1="465.5172413793104" x2="93.10344827586206" y2="434.4827586206897" stroke-linecap="square" stroke-width="1" stroke="#b8f1bc"/><line x1="93.10344827586206" y1="465.5172413793104" x2="124.13793103448276" y2="434.4827586206897" stroke-linecap="square" stroke-width="1" stroke="#b8f1bc"/><line x1="124.13793103448276" y1="434.4827586206897" x2="155.17241379310346" y2="465.5172413793104" stroke-linecap="square" stroke-width="1" stroke="#b8f1bc"/><line x1="155.17241379310346" y1="434.4827586206897" x2="186.20689655172416" y2="465.5172413793104" stroke-linecap="square" stroke-width="1" stroke="#b8f1bc"/><line x1="186.20689655172416" y1="434.4827586206897" x2="217.24137931034485" y2="465.5172413793104" stroke-linecap="square" stroke-width="1" stroke="#b8f1bc"/><line x1="217.24137931034485" y1="434.4827586206897" x2="248.27586206896555" y2="465.5172413793104" stroke-linecap="square" stroke-width="1" stroke="#b8f1bc"/><line x1="248.27586206896555" y1="465.5172413793104" x2="279.3103448275862" y2="434.4827586206897" stroke-linecap="square" stroke-width="1" stroke="#b8f1bc"/><line x1="279.3103448275862" y1="434.4827586206897" x2="310.3448275862069" y2="465.5172413793104" stroke-linecap="square" stroke-width="1" stroke="#b8f1bc"/><line x1="310.3448275862069" y1="465.5172413793104" x2="341.3793103448276" y2="434.4827586206897" stroke-linecap="square" stroke-width="1" stroke="#b8f1bc"/><line x1="341.3793103448276" y1="465.5172413793104" x2="372.4137931034483" y2="434.4827586206897" stroke-linecap="square" stroke-width="1" stroke="#b8f1bc"/><line x1="372.4137931034483" y1="434.4827586206897" x2="403.448275862069" y2="465.5172413793104" stroke-linecap="square" stroke-width="1" stroke="#b8f1bc"/><line x1="403.448275862069" y1="465.5172413793104" x2="434.4827586206897" y2="434.4827586206897" stroke-linecap="square" stroke-width="1" stroke="#b8f1bc"/><line x1="434.4827586206897" y1="465.5172413793104" x2="465.5172413793104" y2="434.4827586206897" stroke-linecap="square" stroke-width="1" stroke="#b8f1bc"/><line x1="465.5172413793104" y1="434.4827586206897" x2="496.5517241379311" y2="465.5172413793104" stroke-linecap="square" stroke-width="1" stroke="#b8f1bc"/><line x1="496.5517241379311" y1="434.4827586206897" x2="527.5862068965517" y2="465.5172413793104" stroke-linecap="square" stroke-width="1" stroke="#b8f1bc"/><line x1="527.5862068965517" y1="434.4827586206897" x2="558.6206896551724" y2="465.5172413793104" stroke-linecap="square" stroke-width="1" stroke="#b8f1bc"/><line x1="558.6206896551724" y1="434.4827586206897" x2="589.6551724137931" y2="465.5172413793104" stroke-linecap="square" stroke-width="1" stroke="#b8f1bc"/><line x1="589.6551724137931" y1="434.4827586206897" x2="620.6896551724138" y2="465.5172413793104" stroke-linecap="square" stroke-width="1" stroke="#b8f1bc"/><line x1="620.6896551724138" y1="434.4827586206897" x2="651.7241379310345" y2="465.5172413793104" stroke-linecap="square" stroke-width="1" stroke="#b8f1bc"/><line x1="651.7241379310345" y1="465.5172413793104" x2="682.7586206896552" y2="434.4827586206897" stroke-linecap="square" stroke-width="1" stroke="#b8f1bc"/><line x1="682.7586206896552" y1="434.4827586206897" x2="713.7931034482759" y2="465.5172413793104" stroke-linecap="square" stroke-width="1" stroke="#b8f1bc"/><line x1="713.7931034482759" y1="465.5172413793104" x2="744.8275862068966" y2="434.4827586206897" stroke-linecap="square" stroke-width="1" stroke="#b8f1bc"/><line x1="744.8275862068966" y1="434.4827586206897" x2="775.8620689655173" y2="465.5172413793104" stroke-linecap="square" stroke-width="1" stroke="#b8f1bc"/><line x1="775.8620689655173" y1="434.4827586206897" x2="806.896551724138" y2="465.5172413793104" stroke-linecap="square" stroke-width="1" stroke="#b8f1bc"/><line x1="806.896551724138" y1="434.4827586206897" x2="837.9310344827587" y2="465.5172413793104" stroke-linecap="square" stroke-width="1" stroke="#b8f1bc"/><line x1="837.9310344827587" y1="465.5172413793104" x2="868.9655172413794" y2="434.4827586206897" stroke-linecap="square" stroke-width="1" stroke="#b8f1bc"/><line x1="868.9655172413794" y1="465.5172413793104" x2="900.0000000000001" y2="434.4827586206897" stroke-linecap="square" stroke-width="1" stroke="#b8f1bc"/><line x1="0" y1="496.5517241379311" x2="31.03448275862069" y2="465.5172413793104" stroke-linecap="square" stroke-width="1" stroke="#b8f1bc"/><line x1="31.03448275862069" y1="465.5172413793104" x2="62.06896551724138" y2="496.5517241379311" stroke-linecap="square" stroke-width="1" stroke="#b8f1bc"/><line x1="62.06896551724138" y1="496.5517241379311" x2="93.10344827586206" y2="465.5172413793104" stroke-linecap="square" stroke-width="1" stroke="#b8f1bc"/><line x1="93.10344827586206" y1="465.5172413793104" x2="124.13793103448276" y2="496.5517241379311" stroke-linecap="square" stroke-width="1" stroke="#b8f1bc"/><line x1="124.13793103448276" y1="496.5517241379311" x2="155.17241379310346" y2="465.5172413793104" stroke-linecap="square" stroke-width="1" stroke="#b8f1bc"/><line x1="155.17241379310346" y1="496.5517241379311" x2="186.20689655172416" y2="465.5172413793104" stroke-linecap="square" stroke-width="1" stroke="#b8f1bc"/><line x1="186.20689655172416" y1="465.5172413793104" x2="217.24137931034485" y2="496.5517241379311" stroke-linecap="square" stroke-width="1" stroke="#b8f1bc"/><line x1="217.24137931034485" y1="496.5517241379311" x2="248.27586206896555" y2="465.5172413793104" stroke-linecap="square" stroke-width="1" stroke="#b8f1bc"/><line x1="248.27586206896555" y1="465.5172413793104" x2="279.3103448275862" y2="496.5517241379311" stroke-linecap="square" stroke-width="1" stroke="#b8f1bc"/><line x1="279.3103448275862" y1="496.5517241379311" x2="310.3448275862069" y2="465.5172413793104" stroke-linecap="square" stroke-width="1" stroke="#b8f1bc"/><line x1="310.3448275862069" y1="465.5172413793104" x2="341.3793103448276" y2="496.5517241379311" stroke-linecap="square" stroke-width="1" stroke="#b8f1bc"/><line x1="341.3793103448276" y1="465.5172413793104" x2="372.4137931034483" y2="496.5517241379311" stroke-linecap="square" stroke-width="1" stroke="#b8f1bc"/><line x1="372.4137931034483" y1="496.5517241379311" x2="403.448275862069" y2="465.5172413793104" stroke-linecap="square" stroke-width="1" stroke="#b8f1bc"/><line x1="403.448275862069" y1="465.5172413793104" x2="434.4827586206897" y2="496.5517241379311" stroke-linecap="square" stroke-width="1" stroke="#b8f1bc"/><line x1="434.4827586206897" y1="496.5517241379311" x2="465.5172413793104" y2="465.5172413793104" stroke-linecap="square" stroke-width="1" stroke="#b8f1bc"/><line x1="465.5172413793104" y1="465.5172413793104" x2="496.5517241379311" y2="496.5517241379311" stroke-linecap="square" stroke-width="1" stroke="#b8f1bc"/><line x1="496.5517241379311" y1="465.5172413793104" x2="527.5862068965517" y2="496.5517241379311" stroke-linecap="square" stroke-width="1" stroke="#b8f1bc"/><line x1="527.5862068965517" y1="465.5172413793104" x2="558.6206896551724" y2="496.5517241379311" stroke-linecap="square" stroke-width="1" stroke="#b8f1bc"/><line x1="558.6206896551724" y1="496.5517241379311" x2="589.6551724137931" y2="465.5172413793104" stroke-linecap="square" stroke-width="1" stroke="#b8f1bc"/><line x1="589.6551724137931" y1="465.5172413793104" x2="620.6896551724138" y2="496.5517241379311" stroke-linecap="square" stroke-width="1" stroke="#b8f1bc"/><line x1="620.6896551724138" y1="496.5517241379311" x2="651.7241379310345" y2="465.5172413793104" stroke-linecap="square" stroke-width="1" stroke="#b8f1bc"/><line x1="651.7241379310345" y1="496.5517241379311" x2="682.7586206896552" y2="465.5172413793104" stroke-linecap="square" stroke-width="1" stroke="#b8f1bc"/><line x1="682.7586206896552" y1="465.5172413793104" x2="713.7931034482759" y2="496.5517241379311" stroke-linecap="square" stroke-width="1" stroke="#b8f1bc"/><line x1="713.7931034482759" y1="496.5517241379311" x2="744.8275862068966" y2="465.5172413793104" stroke-linecap="square" stroke-width="1" stroke="#b8f1bc"/><line x1="744.8275862068966" y1="496.5517241379311" x2="775.8620689655173" y2="465.5172413793104" stroke-linecap="square" stroke-width="1" stroke="#b8f1bc"/><line x1="775.8620689655173" y1="465.5172413793104" x2="806.896551724138" y2="496.5517241379311" stroke-linecap="square" stroke-width="1" stroke="#b8f1bc"/><line x1="806.896551724138" y1="496.5517241379311" x2="837.9310344827587" y2="465.5172413793104" stroke-linecap="square" stroke-width="1" stroke="#b8f1bc"/><line x1="837.9310344827587" y1="496.5517241379311" x2="868.9655172413794" y2="465.5172413793104" stroke-linecap="square" stroke-width="1" stroke="#b8f1bc"/><line x1="868.9655172413794" y1="465.5172413793104" x2="900.0000000000001" y2="496.5517241379311" stroke-linecap="square" stroke-width="1" stroke="#b8f1bc"/><line x1="0" y1="527.5862068965517" x2="31.03448275862069" y2="496.5517241379311" stroke-linecap="square" stroke-width="1" stroke="#b8f1bc"/><line x1="31.03448275862069" y1="496.5517241379311" x2="62.06896551724138" y2="527.5862068965517" stroke-linecap="square" stroke-width="1" stroke="#b8f1bc"/><line x1="62.06896551724138" y1="496.5517241379311" x2="93.10344827586206" y2="527.5862068965517" stroke-linecap="square" stroke-width="1" stroke="#b8f1bc"/><line x1="93.10344827586206" y1="527.5862068965517" x2="124.13793103448276" y2="496.5517241379311" stroke-linecap="square" stroke-width="1" stroke="#b8f1bc"/><line x1="124.13793103448276" y1="527.5862068965517" x2="155.17241379310346" y2="496.5517241379311" stroke-linecap="square" stroke-width="1" stroke="#b8f1bc"/><line x1="155.17241379310346" y1="527.5862068965517" x2="186.20689655172416" y2="496.5517241379311" stroke-linecap="square" stroke-width="1" stroke="#b8f1bc"/><line x1="186.20689655172416" y1="527.5862068965517" x2="217.24137931034485" y2="496.5517241379311" stroke-linecap="square" stroke-width="1" stroke="#b8f1bc"/><line x1="217.24137931034485" y1="496.5517241379311" x2="248.27586206896555" y2="527.5862068965517" stroke-linecap="square" stroke-width="1" stroke="#b8f1bc"/><line x1="248.27586206896555" y1="527.5862068965517" x2="279.3103448275862" y2="496.5517241379311" stroke-linecap="square" stroke-width="1" stroke="#b8f1bc"/><line x1="279.3103448275862" y1="527.5862068965517" x2="310.3448275862069" y2="496.5517241379311" stroke-linecap="square" stroke-width="1" stroke="#b8f1bc"/><line x1="310.3448275862069" y1="527.5862068965517" x2="341.3793103448276" y2="496.5517241379311" stroke-linecap="square" stroke-width="1" stroke="#b8f1bc"/><line x1="341.3793103448276" y1="527.5862068965517" x2="372.4137931034483" y2="496.5517241379311" stroke-linecap="square" stroke-width="1" stroke="#b8f1bc"/><line x1="372.4137931034483" y1="527.5862068965517" x2="403.448275862069" y2="496.5517241379311" stroke-linecap="square" stroke-width="1" stroke="#b8f1bc"/><line x1="403.448275862069" y1="496.5517241379311" x2="434.4827586206897" y2="527.5862068965517" stroke-linecap="square" stroke-width="1" stroke="#b8f1bc"/><line x1="434.4827586206897" y1="527.5862068965517" x2="465.5172413793104" y2="496.5517241379311" stroke-linecap="square" stroke-width="1" stroke="#b8f1bc"/><line x1="465.5172413793104" y1="527.5862068965517" x2="496.5517241379311" y2="496.5517241379311" stroke-linecap="square" stroke-width="1" stroke="#b8f1bc"/><line x1="496.5517241379311" y1="527.5862068965517" x2="527.5862068965517" y2="496.5517241379311" stroke-linecap="square" stroke-width="1" stroke="#b8f1bc"/><line x1="527.5862068965517" y1="527.5862068965517" x2="558.6206896551724" y2="496.5517241379311" stroke-linecap="square" stroke-width="1" stroke="#b8f1bc"/><line x1="558.6206896551724" y1="527.5862068965517" x2="589.6551724137931" y2="496.5517241379311" stroke-linecap="square" stroke-width="1" stroke="#b8f1bc"/><line x1="589.6551724137931" y1="496.5517241379311" x2="620.6896551724138" y2="527.5862068965517" stroke-linecap="square" stroke-width="1" stroke="#b8f1bc"/><line x1="620.6896551724138" y1="527.5862068965517" x2="651.7241379310345" y2="496.5517241379311" stroke-linecap="square" stroke-width="1" stroke="#b8f1bc"/><line x1="651.7241379310345" y1="527.5862068965517" x2="682.7586206896552" y2="496.5517241379311" stroke-linecap="square" stroke-width="1" stroke="#b8f1bc"/><line x1="682.7586206896552" y1="496.5517241379311" x2="713.7931034482759" y2="527.5862068965517" stroke-linecap="square" stroke-width="1" stroke="#b8f1bc"/><line x1="713.7931034482759" y1="527.5862068965517" x2="744.8275862068966" y2="496.5517241379311" stroke-linecap="square" stroke-width="1" stroke="#b8f1bc"/><line x1="744.8275862068966" y1="496.5517241379311" x2="775.8620689655173" y2="527.5862068965517" stroke-linecap="square" stroke-width="1" stroke="#b8f1bc"/><line x1="775.8620689655173" y1="496.5517241379311" x2="806.896551724138" y2="527.5862068965517" stroke-linecap="square" stroke-width="1" stroke="#b8f1bc"/><line x1="806.896551724138" y1="527.5862068965517" x2="837.9310344827587" y2="496.5517241379311" stroke-linecap="square" stroke-width="1" stroke="#b8f1bc"/><line x1="837.9310344827587" y1="527.5862068965517" x2="868.9655172413794" y2="496.5517241379311" stroke-linecap="square" stroke-width="1" stroke="#b8f1bc"/><line x1="868.9655172413794" y1="496.5517241379311" x2="900.0000000000001" y2="527.5862068965517" stroke-linecap="square" stroke-width="1" stroke="#b8f1bc"/></svg>