<svg id="canvas" height="auto" xmlns="http://www.w3.org/2000/svg" version="1.1" xmlns:xlink="http://www.w3.org/1999/xlink" viewBox="0 0 900 512" width="auto" style="width: auto; height: auto;"><rect width="900" height="512" fill="transparent"/><line x1="0" y1="0" x2="100" y2="100" stroke-linecap="square" stroke-width="10" stroke="#000e08"/><line x1="100" y1="100" x2="200" y2="0" stroke-linecap="square" stroke-width="10" stroke="#000e08"/><line x1="200" y1="0" x2="300" y2="100" stroke-linecap="square" stroke-width="10" stroke="#000e08"/><line x1="300" y1="0" x2="400" y2="100" stroke-linecap="square" stroke-width="10" stroke="#000e08"/><line x1="400" y1="100" x2="500" y2="0" stroke-linecap="square" stroke-width="10" stroke="#000e08"/><line x1="500" y1="0" x2="600" y2="100" stroke-linecap="square" stroke-width="10" stroke="#000e08"/><line x1="600" y1="0" x2="700" y2="100" stroke-linecap="square" stroke-width="10" stroke="#000e08"/><line x1="700" y1="100" x2="800" y2="0" stroke-linecap="square" stroke-width="10" stroke="#000e08"/><line x1="800" y1="0" x2="900" y2="100" stroke-linecap="square" stroke-width="10" stroke="#000e08"/><line x1="0" y1="100" x2="100" y2="200" stroke-linecap="square" stroke-width="10" stroke="#000e08"/><line x1="100" y1="100" x2="200" y2="200" stroke-linecap="square" stroke-width="10" stroke="#000e08"/><line x1="200" y1="100" x2="300" y2="200" stroke-linecap="square" stroke-width="10" stroke="#000e08"/><line x1="300" y1="100" x2="400" y2="200" stroke-linecap="square" stroke-width="10" stroke="#000e08"/><line x1="400" y1="100" x2="500" y2="200" stroke-linecap="square" stroke-width="10" stroke="#000e08"/><line x1="500" y1="100" x2="600" y2="200" stroke-linecap="square" stroke-width="10" stroke="#000e08"/><line x1="600" y1="200" x2="700" y2="100" stroke-linecap="square" stroke-width="10" stroke="#000e08"/><line x1="700" y1="200" x2="800" y2="100" stroke-linecap="square" stroke-width="10" stroke="#000e08"/><line x1="800" y1="200" x2="900" y2="100" stroke-linecap="square" stroke-width="10" stroke="#000e08"/><line x1="0" y1="200" x2="100" y2="300" stroke-linecap="square" stroke-width="10" stroke="#000e08"/><line x1="100" y1="200" x2="200" y2="300" stroke-linecap="square" stroke-width="10" stroke="#000e08"/><line x1="200" y1="300" x2="300" y2="200" stroke-linecap="square" stroke-width="10" stroke="#000e08"/><line x1="300" y1="300" x2="400" y2="200" stroke-linecap="square" stroke-width="10" stroke="#000e08"/><line x1="400" y1="200" x2="500" y2="300" stroke-linecap="square" stroke-width="10" stroke="#000e08"/><line x1="500" y1="300" x2="600" y2="200" stroke-linecap="square" stroke-width="10" stroke="#000e08"/><line x1="600" y1="200" x2="700" y2="300" stroke-linecap="square" stroke-width="10" stroke="#000e08"/><line x1="700" y1="300" x2="800" y2="200" stroke-linecap="square" stroke-width="10" stroke="#000e08"/><line x1="800" y1="300" x2="900" y2="200" stroke-linecap="square" stroke-width="10" stroke="#000e08"/><line x1="0" y1="400" x2="100" y2="300" stroke-linecap="square" stroke-width="10" stroke="#000e08"/><line x1="100" y1="400" x2="200" y2="300" stroke-linecap="square" stroke-width="10" stroke="#000e08"/><line x1="200" y1="300" x2="300" y2="400" stroke-linecap="square" stroke-width="10" stroke="#000e08"/><line x1="300" y1="300" x2="400" y2="400" stroke-linecap="square" stroke-width="10" stroke="#000e08"/><line x1="400" y1="300" x2="500" y2="400" stroke-linecap="square" stroke-width="10" stroke="#000e08"/><line x1="500" y1="400" x2="600" y2="300" stroke-linecap="square" stroke-width="10" stroke="#000e08"/><line x1="600" y1="400" x2="700" y2="300" stroke-linecap="square" stroke-width="10" stroke="#000e08"/><line x1="700" y1="400" x2="800" y2="300" stroke-linecap="square" stroke-width="10" stroke="#000e08"/><line x1="800" y1="300" x2="900" y2="400" stroke-linecap="square" stroke-width="10" stroke="#000e08"/><line x1="0" y1="500" x2="100" y2="400" stroke-linecap="square" stroke-width="10" stroke="#000e08"/><line x1="100" y1="500" x2="200" y2="400" stroke-linecap="square" stroke-width="10" stroke="#000e08"/><line x1="200" y1="400" x2="300" y2="500" stroke-linecap="square" stroke-width="10" stroke="#000e08"/><line x1="300" y1="500" x2="400" y2="400" stroke-linecap="square" stroke-width="10" stroke="#000e08"/><line x1="400" y1="500" x2="500" y2="400" stroke-linecap="square" stroke-width="10" stroke="#000e08"/><line x1="500" y1="400" x2="600" y2="500" stroke-linecap="square" stroke-width="10" stroke="#000e08"/><line x1="600" y1="500" x2="700" y2="400" stroke-linecap="square" stroke-width="10" stroke="#000e08"/><line x1="700" y1="400" x2="800" y2="500" stroke-linecap="square" stroke-width="10" stroke="#000e08"/><line x1="800" y1="500" x2="900" y2="400" stroke-linecap="square" stroke-width="10" stroke="#000e08"/><line x1="0" y1="500" x2="100" y2="600" stroke-linecap="square" stroke-width="10" stroke="#000e08"/><line x1="100" y1="600" x2="200" y2="500" stroke-linecap="square" stroke-width="10" stroke="#000e08"/><line x1="200" y1="500" x2="300" y2="600" stroke-linecap="square" stroke-width="10" stroke="#000e08"/><line x1="300" y1="500" x2="400" y2="600" stroke-linecap="square" stroke-width="10" stroke="#000e08"/><line x1="400" y1="500" x2="500" y2="600" stroke-linecap="square" stroke-width="10" stroke="#000e08"/><line x1="500" y1="600" x2="600" y2="500" stroke-linecap="square" stroke-width="10" stroke="#000e08"/><line x1="600" y1="500" x2="700" y2="600" stroke-linecap="square" stroke-width="10" stroke="#000e08"/><line x1="700" y1="600" x2="800" y2="500" stroke-linecap="square" stroke-width="10" stroke="#000e08"/><line x1="800" y1="500" x2="900" y2="600" stroke-linecap="square" stroke-width="10" stroke="#000e08"/></svg>