<svg id="canvas" height="auto" xmlns="http://www.w3.org/2000/svg" version="1.1" xmlns:xlink="http://www.w3.org/1999/xlink" viewBox="0 0 900 512" width="auto" style="width: auto; height: auto;"><rect width="900" height="512" fill="transparent"/><line x1="0" y1="52.94117647058823" x2="52.94117647058823" y2="0" stroke-linecap="square" stroke-width="1" stroke="#d5daef"/><line x1="52.94117647058823" y1="0" x2="105.88235294117646" y2="52.94117647058823" stroke-linecap="square" stroke-width="1" stroke="#d5daef"/><line x1="105.88235294117646" y1="0" x2="158.8235294117647" y2="52.94117647058823" stroke-linecap="square" stroke-width="1" stroke="#d4d9ef"/><line x1="158.8235294117647" y1="0" x2="211.76470588235293" y2="52.94117647058823" stroke-linecap="square" stroke-width="1" stroke="#d4d9ef"/><line x1="211.76470588235293" y1="0" x2="264.70588235294116" y2="52.94117647058823" stroke-linecap="square" stroke-width="1" stroke="#d4d9ef"/><line x1="264.70588235294116" y1="52.94117647058823" x2="317.6470588235294" y2="0" stroke-linecap="square" stroke-width="1" stroke="#d3d8ef"/><line x1="317.6470588235294" y1="0" x2="370.5882352941176" y2="52.94117647058823" stroke-linecap="square" stroke-width="1" stroke="#d3d8ef"/><line x1="370.5882352941176" y1="52.94117647058823" x2="423.52941176470586" y2="0" stroke-linecap="square" stroke-width="1" stroke="#d2d8ef"/><line x1="423.52941176470586" y1="0" x2="476.4705882352941" y2="52.94117647058823" stroke-linecap="square" stroke-width="1" stroke="#d2d8ef"/><line x1="476.4705882352941" y1="52.94117647058823" x2="529.4117647058823" y2="0" stroke-linecap="square" stroke-width="1" stroke="#d2d7ef"/><line x1="529.4117647058823" y1="52.94117647058823" x2="582.3529411764705" y2="0" stroke-linecap="square" stroke-width="1" stroke="#d1d7ef"/><line x1="582.3529411764705" y1="52.94117647058823" x2="635.2941176470588" y2="0" stroke-linecap="square" stroke-width="1" stroke="#d1d7ef"/><line x1="635.2941176470588" y1="0" x2="688.2352941176471" y2="52.94117647058823" stroke-linecap="square" stroke-width="1" stroke="#d1d6ef"/><line x1="688.2352941176471" y1="0" x2="741.1764705882354" y2="52.94117647058823" stroke-linecap="square" stroke-width="1" stroke="#d0d6ef"/><line x1="741.1764705882354" y1="52.94117647058823" x2="794.1176470588236" y2="0" stroke-linecap="square" stroke-width="1" stroke="#d0d6ef"/><line x1="794.1176470588236" y1="52.94117647058823" x2="847.0588235294119" y2="0" stroke-linecap="square" stroke-width="1" stroke="#cfd5ef"/><line x1="847.0588235294119" y1="0" x2="900.0000000000002" y2="52.94117647058823" stroke-linecap="square" stroke-width="1" stroke="#cfd5ef"/><line x1="0" y1="52.94117647058823" x2="52.94117647058823" y2="105.88235294117646" stroke-linecap="square" stroke-width="1" stroke="#d5daef"/><line x1="52.94117647058823" y1="105.88235294117646" x2="105.88235294117646" y2="52.94117647058823" stroke-linecap="square" stroke-width="1" stroke="#d5daef"/><line x1="105.88235294117646" y1="105.88235294117646" x2="158.8235294117647" y2="52.94117647058823" stroke-linecap="square" stroke-width="1" stroke="#d4d9ef"/><line x1="158.8235294117647" y1="52.94117647058823" x2="211.76470588235293" y2="105.88235294117646" stroke-linecap="square" stroke-width="1" stroke="#d4d9ef"/><line x1="211.76470588235293" y1="52.94117647058823" x2="264.70588235294116" y2="105.88235294117646" stroke-linecap="square" stroke-width="1" stroke="#d4d9ef"/><line x1="264.70588235294116" y1="52.94117647058823" x2="317.6470588235294" y2="105.88235294117646" stroke-linecap="square" stroke-width="1" stroke="#d3d8ef"/><line x1="317.6470588235294" y1="52.94117647058823" x2="370.5882352941176" y2="105.88235294117646" stroke-linecap="square" stroke-width="1" stroke="#d3d8ef"/><line x1="370.5882352941176" y1="52.94117647058823" x2="423.52941176470586" y2="105.88235294117646" stroke-linecap="square" stroke-width="1" stroke="#d2d8ef"/><line x1="423.52941176470586" y1="105.88235294117646" x2="476.4705882352941" y2="52.94117647058823" stroke-linecap="square" stroke-width="1" stroke="#d2d8ef"/><line x1="476.4705882352941" y1="105.88235294117646" x2="529.4117647058823" y2="52.94117647058823" stroke-linecap="square" stroke-width="1" stroke="#d2d7ef"/><line x1="529.4117647058823" y1="105.88235294117646" x2="582.3529411764705" y2="52.94117647058823" stroke-linecap="square" stroke-width="1" stroke="#d1d7ef"/><line x1="582.3529411764705" y1="105.88235294117646" x2="635.2941176470588" y2="52.94117647058823" stroke-linecap="square" stroke-width="1" stroke="#d1d7ef"/><line x1="635.2941176470588" y1="105.88235294117646" x2="688.2352941176471" y2="52.94117647058823" stroke-linecap="square" stroke-width="1" stroke="#d1d6ef"/><line x1="688.2352941176471" y1="52.94117647058823" x2="741.1764705882354" y2="105.88235294117646" stroke-linecap="square" stroke-width="1" stroke="#d0d6ef"/><line x1="741.1764705882354" y1="105.88235294117646" x2="794.1176470588236" y2="52.94117647058823" stroke-linecap="square" stroke-width="1" stroke="#d0d6ef"/><line x1="794.1176470588236" y1="52.94117647058823" x2="847.0588235294119" y2="105.88235294117646" stroke-linecap="square" stroke-width="1" stroke="#cfd5ef"/><line x1="847.0588235294119" y1="105.88235294117646" x2="900.0000000000002" y2="52.94117647058823" stroke-linecap="square" stroke-width="1" stroke="#cfd5ef"/><line x1="0" y1="158.8235294117647" x2="52.94117647058823" y2="105.88235294117646" stroke-linecap="square" stroke-width="1" stroke="#d5daef"/><line x1="52.94117647058823" y1="105.88235294117646" x2="105.88235294117646" y2="158.8235294117647" stroke-linecap="square" stroke-width="1" stroke="#d5daef"/><line x1="105.88235294117646" y1="105.88235294117646" x2="158.8235294117647" y2="158.8235294117647" stroke-linecap="square" stroke-width="1" stroke="#d4d9ef"/><line x1="158.8235294117647" y1="158.8235294117647" x2="211.76470588235293" y2="105.88235294117646" stroke-linecap="square" stroke-width="1" stroke="#d4d9ef"/><line x1="211.76470588235293" y1="105.88235294117646" x2="264.70588235294116" y2="158.8235294117647" stroke-linecap="square" stroke-width="1" stroke="#d4d9ef"/><line x1="264.70588235294116" y1="158.8235294117647" x2="317.6470588235294" y2="105.88235294117646" stroke-linecap="square" stroke-width="1" stroke="#d3d8ef"/><line x1="317.6470588235294" y1="105.88235294117646" x2="370.5882352941176" y2="158.8235294117647" stroke-linecap="square" stroke-width="1" stroke="#d3d8ef"/><line x1="370.5882352941176" y1="158.8235294117647" x2="423.52941176470586" y2="105.88235294117646" stroke-linecap="square" stroke-width="1" stroke="#d2d8ef"/><line x1="423.52941176470586" y1="158.8235294117647" x2="476.4705882352941" y2="105.88235294117646" stroke-linecap="square" stroke-width="1" stroke="#d2d8ef"/><line x1="476.4705882352941" y1="158.8235294117647" x2="529.4117647058823" y2="105.88235294117646" stroke-linecap="square" stroke-width="1" stroke="#d2d7ef"/><line x1="529.4117647058823" y1="105.88235294117646" x2="582.3529411764705" y2="158.8235294117647" stroke-linecap="square" stroke-width="1" stroke="#d1d7ef"/><line x1="582.3529411764705" y1="105.88235294117646" x2="635.2941176470588" y2="158.8235294117647" stroke-linecap="square" stroke-width="1" stroke="#d1d7ef"/><line x1="635.2941176470588" y1="158.8235294117647" x2="688.2352941176471" y2="105.88235294117646" stroke-linecap="square" stroke-width="1" stroke="#d1d6ef"/><line x1="688.2352941176471" y1="158.8235294117647" x2="741.1764705882354" y2="105.88235294117646" stroke-linecap="square" stroke-width="1" stroke="#d0d6ef"/><line x1="741.1764705882354" y1="158.8235294117647" x2="794.1176470588236" y2="105.88235294117646" stroke-linecap="square" stroke-width="1" stroke="#d0d6ef"/><line x1="794.1176470588236" y1="105.88235294117646" x2="847.0588235294119" y2="158.8235294117647" stroke-linecap="square" stroke-width="1" stroke="#cfd5ef"/><line x1="847.0588235294119" y1="158.8235294117647" x2="900.0000000000002" y2="105.88235294117646" stroke-linecap="square" stroke-width="1" stroke="#cfd5ef"/><line x1="0" y1="211.76470588235293" x2="52.94117647058823" y2="158.8235294117647" stroke-linecap="square" stroke-width="1" stroke="#d5daef"/><line x1="52.94117647058823" y1="211.76470588235293" x2="105.88235294117646" y2="158.8235294117647" stroke-linecap="square" stroke-width="1" stroke="#d5daef"/><line x1="105.88235294117646" y1="158.8235294117647" x2="158.8235294117647" y2="211.76470588235293" stroke-linecap="square" stroke-width="1" stroke="#d4d9ef"/><line x1="158.8235294117647" y1="211.76470588235293" x2="211.76470588235293" y2="158.8235294117647" stroke-linecap="square" stroke-width="1" stroke="#d4d9ef"/><line x1="211.76470588235293" y1="211.76470588235293" x2="264.70588235294116" y2="158.8235294117647" stroke-linecap="square" stroke-width="1" stroke="#d4d9ef"/><line x1="264.70588235294116" y1="158.8235294117647" x2="317.6470588235294" y2="211.76470588235293" stroke-linecap="square" stroke-width="1" stroke="#d3d8ef"/><line x1="317.6470588235294" y1="158.8235294117647" x2="370.5882352941176" y2="211.76470588235293" stroke-linecap="square" stroke-width="1" stroke="#d3d8ef"/><line x1="370.5882352941176" y1="211.76470588235293" x2="423.52941176470586" y2="158.8235294117647" stroke-linecap="square" stroke-width="1" stroke="#d2d8ef"/><line x1="423.52941176470586" y1="211.76470588235293" x2="476.4705882352941" y2="158.8235294117647" stroke-linecap="square" stroke-width="1" stroke="#d2d8ef"/><line x1="476.4705882352941" y1="211.76470588235293" x2="529.4117647058823" y2="158.8235294117647" stroke-linecap="square" stroke-width="1" stroke="#d2d7ef"/><line x1="529.4117647058823" y1="158.8235294117647" x2="582.3529411764705" y2="211.76470588235293" stroke-linecap="square" stroke-width="1" stroke="#d1d7ef"/><line x1="582.3529411764705" y1="158.8235294117647" x2="635.2941176470588" y2="211.76470588235293" stroke-linecap="square" stroke-width="1" stroke="#d1d7ef"/><line x1="635.2941176470588" y1="211.76470588235293" x2="688.2352941176471" y2="158.8235294117647" stroke-linecap="square" stroke-width="1" stroke="#d1d6ef"/><line x1="688.2352941176471" y1="211.76470588235293" x2="741.1764705882354" y2="158.8235294117647" stroke-linecap="square" stroke-width="1" stroke="#d0d6ef"/><line x1="741.1764705882354" y1="211.76470588235293" x2="794.1176470588236" y2="158.8235294117647" stroke-linecap="square" stroke-width="1" stroke="#d0d6ef"/><line x1="794.1176470588236" y1="211.76470588235293" x2="847.0588235294119" y2="158.8235294117647" stroke-linecap="square" stroke-width="1" stroke="#cfd5ef"/><line x1="847.0588235294119" y1="158.8235294117647" x2="900.0000000000002" y2="211.76470588235293" stroke-linecap="square" stroke-width="1" stroke="#cfd5ef"/><line x1="0" y1="264.70588235294116" x2="52.94117647058823" y2="211.76470588235293" stroke-linecap="square" stroke-width="1" stroke="#d5daef"/><line x1="52.94117647058823" y1="264.70588235294116" x2="105.88235294117646" y2="211.76470588235293" stroke-linecap="square" stroke-width="1" stroke="#d5daef"/><line x1="105.88235294117646" y1="264.70588235294116" x2="158.8235294117647" y2="211.76470588235293" stroke-linecap="square" stroke-width="1" stroke="#d4d9ef"/><line x1="158.8235294117647" y1="211.76470588235293" x2="211.76470588235293" y2="264.70588235294116" stroke-linecap="square" stroke-width="1" stroke="#d4d9ef"/><line x1="211.76470588235293" y1="264.70588235294116" x2="264.70588235294116" y2="211.76470588235293" stroke-linecap="square" stroke-width="1" stroke="#d4d9ef"/><line x1="264.70588235294116" y1="264.70588235294116" x2="317.6470588235294" y2="211.76470588235293" stroke-linecap="square" stroke-width="1" stroke="#d3d8ef"/><line x1="317.6470588235294" y1="211.76470588235293" x2="370.5882352941176" y2="264.70588235294116" stroke-linecap="square" stroke-width="1" stroke="#d3d8ef"/><line x1="370.5882352941176" y1="264.70588235294116" x2="423.52941176470586" y2="211.76470588235293" stroke-linecap="square" stroke-width="1" stroke="#d2d8ef"/><line x1="423.52941176470586" y1="211.76470588235293" x2="476.4705882352941" y2="264.70588235294116" stroke-linecap="square" stroke-width="1" stroke="#d2d8ef"/><line x1="476.4705882352941" y1="264.70588235294116" x2="529.4117647058823" y2="211.76470588235293" stroke-linecap="square" stroke-width="1" stroke="#d2d7ef"/><line x1="529.4117647058823" y1="264.70588235294116" x2="582.3529411764705" y2="211.76470588235293" stroke-linecap="square" stroke-width="1" stroke="#d1d7ef"/><line x1="582.3529411764705" y1="264.70588235294116" x2="635.2941176470588" y2="211.76470588235293" stroke-linecap="square" stroke-width="1" stroke="#d1d7ef"/><line x1="635.2941176470588" y1="264.70588235294116" x2="688.2352941176471" y2="211.76470588235293" stroke-linecap="square" stroke-width="1" stroke="#d1d6ef"/><line x1="688.2352941176471" y1="211.76470588235293" x2="741.1764705882354" y2="264.70588235294116" stroke-linecap="square" stroke-width="1" stroke="#d0d6ef"/><line x1="741.1764705882354" y1="264.70588235294116" x2="794.1176470588236" y2="211.76470588235293" stroke-linecap="square" stroke-width="1" stroke="#d0d6ef"/><line x1="794.1176470588236" y1="264.70588235294116" x2="847.0588235294119" y2="211.76470588235293" stroke-linecap="square" stroke-width="1" stroke="#cfd5ef"/><line x1="847.0588235294119" y1="211.76470588235293" x2="900.0000000000002" y2="264.70588235294116" stroke-linecap="square" stroke-width="1" stroke="#cfd5ef"/><line x1="0" y1="317.6470588235294" x2="52.94117647058823" y2="264.70588235294116" stroke-linecap="square" stroke-width="1" stroke="#d5daef"/><line x1="52.94117647058823" y1="264.70588235294116" x2="105.88235294117646" y2="317.6470588235294" stroke-linecap="square" stroke-width="1" stroke="#d5daef"/><line x1="105.88235294117646" y1="264.70588235294116" x2="158.8235294117647" y2="317.6470588235294" stroke-linecap="square" stroke-width="1" stroke="#d4d9ef"/><line x1="158.8235294117647" y1="317.6470588235294" x2="211.76470588235293" y2="264.70588235294116" stroke-linecap="square" stroke-width="1" stroke="#d4d9ef"/><line x1="211.76470588235293" y1="264.70588235294116" x2="264.70588235294116" y2="317.6470588235294" stroke-linecap="square" stroke-width="1" stroke="#d4d9ef"/><line x1="264.70588235294116" y1="317.6470588235294" x2="317.6470588235294" y2="264.70588235294116" stroke-linecap="square" stroke-width="1" stroke="#d3d8ef"/><line x1="317.6470588235294" y1="264.70588235294116" x2="370.5882352941176" y2="317.6470588235294" stroke-linecap="square" stroke-width="1" stroke="#d3d8ef"/><line x1="370.5882352941176" y1="264.70588235294116" x2="423.52941176470586" y2="317.6470588235294" stroke-linecap="square" stroke-width="1" stroke="#d2d8ef"/><line x1="423.52941176470586" y1="264.70588235294116" x2="476.4705882352941" y2="317.6470588235294" stroke-linecap="square" stroke-width="1" stroke="#d2d8ef"/><line x1="476.4705882352941" y1="264.70588235294116" x2="529.4117647058823" y2="317.6470588235294" stroke-linecap="square" stroke-width="1" stroke="#d2d7ef"/><line x1="529.4117647058823" y1="317.6470588235294" x2="582.3529411764705" y2="264.70588235294116" stroke-linecap="square" stroke-width="1" stroke="#d1d7ef"/><line x1="582.3529411764705" y1="264.70588235294116" x2="635.2941176470588" y2="317.6470588235294" stroke-linecap="square" stroke-width="1" stroke="#d1d7ef"/><line x1="635.2941176470588" y1="264.70588235294116" x2="688.2352941176471" y2="317.6470588235294" stroke-linecap="square" stroke-width="1" stroke="#d1d6ef"/><line x1="688.2352941176471" y1="264.70588235294116" x2="741.1764705882354" y2="317.6470588235294" stroke-linecap="square" stroke-width="1" stroke="#d0d6ef"/><line x1="741.1764705882354" y1="264.70588235294116" x2="794.1176470588236" y2="317.6470588235294" stroke-linecap="square" stroke-width="1" stroke="#d0d6ef"/><line x1="794.1176470588236" y1="264.70588235294116" x2="847.0588235294119" y2="317.6470588235294" stroke-linecap="square" stroke-width="1" stroke="#cfd5ef"/><line x1="847.0588235294119" y1="264.70588235294116" x2="900.0000000000002" y2="317.6470588235294" stroke-linecap="square" stroke-width="1" stroke="#cfd5ef"/><line x1="0" y1="317.6470588235294" x2="52.94117647058823" y2="370.5882352941176" stroke-linecap="square" stroke-width="1" stroke="#d5daef"/><line x1="52.94117647058823" y1="317.6470588235294" x2="105.88235294117646" y2="370.5882352941176" stroke-linecap="square" stroke-width="1" stroke="#d5daef"/><line x1="105.88235294117646" y1="370.5882352941176" x2="158.8235294117647" y2="317.6470588235294" stroke-linecap="square" stroke-width="1" stroke="#d4d9ef"/><line x1="158.8235294117647" y1="317.6470588235294" x2="211.76470588235293" y2="370.5882352941176" stroke-linecap="square" stroke-width="1" stroke="#d4d9ef"/><line x1="211.76470588235293" y1="317.6470588235294" x2="264.70588235294116" y2="370.5882352941176" stroke-linecap="square" stroke-width="1" stroke="#d4d9ef"/><line x1="264.70588235294116" y1="317.6470588235294" x2="317.6470588235294" y2="370.5882352941176" stroke-linecap="square" stroke-width="1" stroke="#d3d8ef"/><line x1="317.6470588235294" y1="317.6470588235294" x2="370.5882352941176" y2="370.5882352941176" stroke-linecap="square" stroke-width="1" stroke="#d3d8ef"/><line x1="370.5882352941176" y1="317.6470588235294" x2="423.52941176470586" y2="370.5882352941176" stroke-linecap="square" stroke-width="1" stroke="#d2d8ef"/><line x1="423.52941176470586" y1="370.5882352941176" x2="476.4705882352941" y2="317.6470588235294" stroke-linecap="square" stroke-width="1" stroke="#d2d8ef"/><line x1="476.4705882352941" y1="370.5882352941176" x2="529.4117647058823" y2="317.6470588235294" stroke-linecap="square" stroke-width="1" stroke="#d2d7ef"/><line x1="529.4117647058823" y1="317.6470588235294" x2="582.3529411764705" y2="370.5882352941176" stroke-linecap="square" stroke-width="1" stroke="#d1d7ef"/><line x1="582.3529411764705" y1="370.5882352941176" x2="635.2941176470588" y2="317.6470588235294" stroke-linecap="square" stroke-width="1" stroke="#d1d7ef"/><line x1="635.2941176470588" y1="370.5882352941176" x2="688.2352941176471" y2="317.6470588235294" stroke-linecap="square" stroke-width="1" stroke="#d1d6ef"/><line x1="688.2352941176471" y1="370.5882352941176" x2="741.1764705882354" y2="317.6470588235294" stroke-linecap="square" stroke-width="1" stroke="#d0d6ef"/><line x1="741.1764705882354" y1="370.5882352941176" x2="794.1176470588236" y2="317.6470588235294" stroke-linecap="square" stroke-width="1" stroke="#d0d6ef"/><line x1="794.1176470588236" y1="370.5882352941176" x2="847.0588235294119" y2="317.6470588235294" stroke-linecap="square" stroke-width="1" stroke="#cfd5ef"/><line x1="847.0588235294119" y1="370.5882352941176" x2="900.0000000000002" y2="317.6470588235294" stroke-linecap="square" stroke-width="1" stroke="#cfd5ef"/><line x1="0" y1="370.5882352941176" x2="52.94117647058823" y2="423.52941176470586" stroke-linecap="square" stroke-width="1" stroke="#d5daef"/><line x1="52.94117647058823" y1="370.5882352941176" x2="105.88235294117646" y2="423.52941176470586" stroke-linecap="square" stroke-width="1" stroke="#d5daef"/><line x1="105.88235294117646" y1="370.5882352941176" x2="158.8235294117647" y2="423.52941176470586" stroke-linecap="square" stroke-width="1" stroke="#d4d9ef"/><line x1="158.8235294117647" y1="370.5882352941176" x2="211.76470588235293" y2="423.52941176470586" stroke-linecap="square" stroke-width="1" stroke="#d4d9ef"/><line x1="211.76470588235293" y1="423.52941176470586" x2="264.70588235294116" y2="370.5882352941176" stroke-linecap="square" stroke-width="1" stroke="#d4d9ef"/><line x1="264.70588235294116" y1="370.5882352941176" x2="317.6470588235294" y2="423.52941176470586" stroke-linecap="square" stroke-width="1" stroke="#d3d8ef"/><line x1="317.6470588235294" y1="370.5882352941176" x2="370.5882352941176" y2="423.52941176470586" stroke-linecap="square" stroke-width="1" stroke="#d3d8ef"/><line x1="370.5882352941176" y1="423.52941176470586" x2="423.52941176470586" y2="370.5882352941176" stroke-linecap="square" stroke-width="1" stroke="#d2d8ef"/><line x1="423.52941176470586" y1="370.5882352941176" x2="476.4705882352941" y2="423.52941176470586" stroke-linecap="square" stroke-width="1" stroke="#d2d8ef"/><line x1="476.4705882352941" y1="423.52941176470586" x2="529.4117647058823" y2="370.5882352941176" stroke-linecap="square" stroke-width="1" stroke="#d2d7ef"/><line x1="529.4117647058823" y1="423.52941176470586" x2="582.3529411764705" y2="370.5882352941176" stroke-linecap="square" stroke-width="1" stroke="#d1d7ef"/><line x1="582.3529411764705" y1="370.5882352941176" x2="635.2941176470588" y2="423.52941176470586" stroke-linecap="square" stroke-width="1" stroke="#d1d7ef"/><line x1="635.2941176470588" y1="370.5882352941176" x2="688.2352941176471" y2="423.52941176470586" stroke-linecap="square" stroke-width="1" stroke="#d1d6ef"/><line x1="688.2352941176471" y1="423.52941176470586" x2="741.1764705882354" y2="370.5882352941176" stroke-linecap="square" stroke-width="1" stroke="#d0d6ef"/><line x1="741.1764705882354" y1="423.52941176470586" x2="794.1176470588236" y2="370.5882352941176" stroke-linecap="square" stroke-width="1" stroke="#d0d6ef"/><line x1="794.1176470588236" y1="423.52941176470586" x2="847.0588235294119" y2="370.5882352941176" stroke-linecap="square" stroke-width="1" stroke="#cfd5ef"/><line x1="847.0588235294119" y1="370.5882352941176" x2="900.0000000000002" y2="423.52941176470586" stroke-linecap="square" stroke-width="1" stroke="#cfd5ef"/><line x1="0" y1="423.52941176470586" x2="52.94117647058823" y2="476.4705882352941" stroke-linecap="square" stroke-width="1" stroke="#d5daef"/><line x1="52.94117647058823" y1="476.4705882352941" x2="105.88235294117646" y2="423.52941176470586" stroke-linecap="square" stroke-width="1" stroke="#d5daef"/><line x1="105.88235294117646" y1="476.4705882352941" x2="158.8235294117647" y2="423.52941176470586" stroke-linecap="square" stroke-width="1" stroke="#d4d9ef"/><line x1="158.8235294117647" y1="476.4705882352941" x2="211.76470588235293" y2="423.52941176470586" stroke-linecap="square" stroke-width="1" stroke="#d4d9ef"/><line x1="211.76470588235293" y1="476.4705882352941" x2="264.70588235294116" y2="423.52941176470586" stroke-linecap="square" stroke-width="1" stroke="#d4d9ef"/><line x1="264.70588235294116" y1="423.52941176470586" x2="317.6470588235294" y2="476.4705882352941" stroke-linecap="square" stroke-width="1" stroke="#d3d8ef"/><line x1="317.6470588235294" y1="476.4705882352941" x2="370.5882352941176" y2="423.52941176470586" stroke-linecap="square" stroke-width="1" stroke="#d3d8ef"/><line x1="370.5882352941176" y1="476.4705882352941" x2="423.52941176470586" y2="423.52941176470586" stroke-linecap="square" stroke-width="1" stroke="#d2d8ef"/><line x1="423.52941176470586" y1="423.52941176470586" x2="476.4705882352941" y2="476.4705882352941" stroke-linecap="square" stroke-width="1" stroke="#d2d8ef"/><line x1="476.4705882352941" y1="423.52941176470586" x2="529.4117647058823" y2="476.4705882352941" stroke-linecap="square" stroke-width="1" stroke="#d2d7ef"/><line x1="529.4117647058823" y1="476.4705882352941" x2="582.3529411764705" y2="423.52941176470586" stroke-linecap="square" stroke-width="1" stroke="#d1d7ef"/><line x1="582.3529411764705" y1="476.4705882352941" x2="635.2941176470588" y2="423.52941176470586" stroke-linecap="square" stroke-width="1" stroke="#d1d7ef"/><line x1="635.2941176470588" y1="476.4705882352941" x2="688.2352941176471" y2="423.52941176470586" stroke-linecap="square" stroke-width="1" stroke="#d1d6ef"/><line x1="688.2352941176471" y1="423.52941176470586" x2="741.1764705882354" y2="476.4705882352941" stroke-linecap="square" stroke-width="1" stroke="#d0d6ef"/><line x1="741.1764705882354" y1="476.4705882352941" x2="794.1176470588236" y2="423.52941176470586" stroke-linecap="square" stroke-width="1" stroke="#d0d6ef"/><line x1="794.1176470588236" y1="476.4705882352941" x2="847.0588235294119" y2="423.52941176470586" stroke-linecap="square" stroke-width="1" stroke="#cfd5ef"/><line x1="847.0588235294119" y1="423.52941176470586" x2="900.0000000000002" y2="476.4705882352941" stroke-linecap="square" stroke-width="1" stroke="#cfd5ef"/><line x1="0" y1="476.4705882352941" x2="52.94117647058823" y2="529.4117647058823" stroke-linecap="square" stroke-width="1" stroke="#d5daef"/><line x1="52.94117647058823" y1="529.4117647058823" x2="105.88235294117646" y2="476.4705882352941" stroke-linecap="square" stroke-width="1" stroke="#d5daef"/><line x1="105.88235294117646" y1="476.4705882352941" x2="158.8235294117647" y2="529.4117647058823" stroke-linecap="square" stroke-width="1" stroke="#d4d9ef"/><line x1="158.8235294117647" y1="476.4705882352941" x2="211.76470588235293" y2="529.4117647058823" stroke-linecap="square" stroke-width="1" stroke="#d4d9ef"/><line x1="211.76470588235293" y1="529.4117647058823" x2="264.70588235294116" y2="476.4705882352941" stroke-linecap="square" stroke-width="1" stroke="#d4d9ef"/><line x1="264.70588235294116" y1="529.4117647058823" x2="317.6470588235294" y2="476.4705882352941" stroke-linecap="square" stroke-width="1" stroke="#d3d8ef"/><line x1="317.6470588235294" y1="529.4117647058823" x2="370.5882352941176" y2="476.4705882352941" stroke-linecap="square" stroke-width="1" stroke="#d3d8ef"/><line x1="370.5882352941176" y1="529.4117647058823" x2="423.52941176470586" y2="476.4705882352941" stroke-linecap="square" stroke-width="1" stroke="#d2d8ef"/><line x1="423.52941176470586" y1="476.4705882352941" x2="476.4705882352941" y2="529.4117647058823" stroke-linecap="square" stroke-width="1" stroke="#d2d8ef"/><line x1="476.4705882352941" y1="529.4117647058823" x2="529.4117647058823" y2="476.4705882352941" stroke-linecap="square" stroke-width="1" stroke="#d2d7ef"/><line x1="529.4117647058823" y1="529.4117647058823" x2="582.3529411764705" y2="476.4705882352941" stroke-linecap="square" stroke-width="1" stroke="#d1d7ef"/><line x1="582.3529411764705" y1="476.4705882352941" x2="635.2941176470588" y2="529.4117647058823" stroke-linecap="square" stroke-width="1" stroke="#d1d7ef"/><line x1="635.2941176470588" y1="476.4705882352941" x2="688.2352941176471" y2="529.4117647058823" stroke-linecap="square" stroke-width="1" stroke="#d1d6ef"/><line x1="688.2352941176471" y1="476.4705882352941" x2="741.1764705882354" y2="529.4117647058823" stroke-linecap="square" stroke-width="1" stroke="#d0d6ef"/><line x1="741.1764705882354" y1="476.4705882352941" x2="794.1176470588236" y2="529.4117647058823" stroke-linecap="square" stroke-width="1" stroke="#d0d6ef"/><line x1="794.1176470588236" y1="476.4705882352941" x2="847.0588235294119" y2="529.4117647058823" stroke-linecap="square" stroke-width="1" stroke="#cfd5ef"/><line x1="847.0588235294119" y1="529.4117647058823" x2="900.0000000000002" y2="476.4705882352941" stroke-linecap="square" stroke-width="1" stroke="#cfd5ef"/></svg>