<?xml version="1.0" encoding="UTF-8"?>
<svg version="1.1" xmlns="http://www.w3.org/2000/svg" width="512" height="512">
<path d="M0 0 C9.5826798 0.52725261 18.87222586 1.87415688 28.30175781 3.61352539 C29.79461637 3.88383957 31.28758042 4.15357166 32.78063965 4.42277527 C36.82398274 5.15347301 40.86581986 5.89220811 44.90744114 6.63236165 C49.24508723 7.42518724 53.58413897 8.21024801 57.92303467 8.99620056 C66.22881798 10.50187858 74.53339506 12.01410236 82.83753276 13.52882713 C93.73691629 15.51666804 104.63787798 17.49580541 115.53885031 19.47491157 C118.2801985 19.97261895 121.02154068 20.47035943 123.76287842 20.96812439 C125.11546064 21.21371437 125.11546064 21.21371437 126.49536777 21.46426576 C132.31086694 22.5204276 138.12591126 23.57905632 143.94073486 24.63893127 C185.28095023 32.1651175 226.64291063 39.56501764 268 47 C268 124.88 268 202.76 268 283 C246.88 283 225.76 283 204 283 C203.67869065 253.25210961 203.67869065 253.25210961 203.59796906 238.56084633 C203.55363175 230.61423144 203.49734079 222.66828811 203.39648438 214.72216797 C203.31667085 208.43093572 203.26511707 202.14021005 203.24729204 195.84848559 C203.23687356 192.51756548 203.2082366 189.18842997 203.15415955 185.85789108 C203.09613772 182.13664339 203.08808507 178.41840406 203.09179688 174.69677734 C203.06303467 173.59626038 203.03427246 172.49574341 203.00463867 171.36187744 C203.08403713 164.01250283 203.08403713 164.01250283 205.75636292 161.05852127 C207.90441895 159.46817017 207.90441895 159.46817017 210.04389191 158.21256447 C213.88008067 155.83456389 215.59521259 152.21436222 217 148 C217.25782805 144.25446163 217.23139543 140.50347232 217.25 136.75 C217.270625 135.72519531 217.29125 134.70039063 217.3125 133.64453125 C217.35109379 126.14768776 216.63870163 121.13791545 211.6875 115.25 C206.93323979 111.26968912 202.54949617 109.65709294 196.42340088 109.00057983 C194.46379425 108.78200066 194.46379425 108.78200066 192.46459961 108.55900574 C191.02883092 108.41070284 189.59303911 108.26262376 188.15722656 108.11474609 C186.63553202 107.9494357 185.1139482 107.78310344 183.59246826 107.61582947 C179.46938637 107.16546428 175.34490214 106.72941687 171.22001362 106.29595518 C166.8942961 105.83893428 162.57000676 105.36877743 158.24554443 104.90005493 C150.04921913 104.01369268 141.85167006 103.13922481 133.65361953 102.26898062 C124.36010881 101.28184254 115.06807769 100.28111321 105.77613115 99.27937579 C91.3051335 97.71969414 76.8333511 96.16746065 62.36035156 94.62646484 C61.28200294 94.51150004 61.28200294 94.51150004 60.18186951 94.39421272 C37.66661983 90.34112743 37.66661983 90.34112743 17.3125 97.125 C11.99852363 103.73156522 11.51795997 111.35015135 11.625 119.5625 C11.61339844 120.45646484 11.60179687 121.35042969 11.58984375 122.27148438 C11.62090193 129.34757378 12.64234959 135.11842727 17.25 140.75 C20.52580497 143.55707691 20.52580497 143.55707691 27 147 C27 191.88 27 236.76 27 283 C-4.02 283 -35.04 283 -67 283 C-67 205.45 -67 127.9 -67 48 C-60.4 45.36 -53.8 42.72 -47 40 C-34.59633921 33.53758849 -23.75713732 26.02084373 -14 16 C-13.34 16 -12.68 16 -12 16 C-11.7525 15.43410156 -11.505 14.86820313 -11.25 14.28515625 C-9.79764463 11.63006909 -8.04815279 9.66260716 -6 7.4375 C-3.76639308 5.00270422 -1.83774888 2.75662332 0 0 Z " fill="#000000" transform="translate(228,206)"/>
<path d="M0 0 C30.12505224 -1.014027 58.1663495 10.51201293 80.0703125 30.82421875 C99.46864291 49.65479315 113.04414218 75.65567916 113.7734375 103.046875 C113.79275937 105.49992702 113.7962265 107.95314687 113.78515625 110.40625 C113.77778442 112.33331787 113.77778442 112.33331787 113.77026367 114.29931641 C113.65890038 123.30318105 113.05057749 131.48695035 110.47265625 140.15625 C110.13234375 141.37570313 109.79203125 142.59515625 109.44140625 143.8515625 C100.94246759 171.8176647 81.34781937 194.73078353 55.98681641 208.95776367 C39.74124833 217.54239755 22.01675923 221.56455214 3.72265625 221.46875 C2.58449463 221.46311035 1.44633301 221.4574707 0.27368164 221.45166016 C-25.25914461 221.08537716 -49.32170691 212.0755015 -68.52734375 195.15625 C-69.3678125 194.44726562 -70.20828125 193.73828125 -71.07421875 193.0078125 C-90.66275339 176.09044168 -102.79200301 151.62183351 -106.52734375 126.15625 C-107.43715047 109.96796488 -107.54164025 93.69864796 -102.52734375 78.15625 C-102.31835449 77.47997559 -102.10936523 76.80370117 -101.89404297 76.10693359 C-93.02573349 48.02727503 -72.69820723 25.94382729 -47.05078125 11.97265625 C-32.40058716 4.4201726 -16.35449707 1.01109719 0 0 Z M-68.52734375 53.15625 C-68.52734375 56.52105076 -68.18741686 58.32398391 -66.08984375 60.96875 C-62.83172094 63.44492333 -60.43584746 63.26165961 -56.40234375 63.21875 C-55.30664062 63.20972656 -54.2109375 63.20070313 -53.08203125 63.19140625 C-52.23898438 63.17980469 -51.3959375 63.16820312 -50.52734375 63.15625 C-50.38655396 64.90748169 -50.38655396 64.90748169 -50.24291992 66.6940918 C-49.53416643 73.032611 -48.03514934 79.19363281 -46.58254433 85.39368629 C-46.06870137 87.59108039 -45.56279658 89.79016679 -45.05912781 91.98991394 C-43.62795424 98.23715726 -42.18796714 104.48228816 -40.73022461 110.72338867 C-39.83547977 114.55661139 -38.95416467 118.39271367 -38.08138084 122.23099327 C-37.74715406 123.68861555 -37.40781466 125.14507539 -37.06325722 126.6002903 C-36.58329897 128.62904671 -36.12049023 130.66102108 -35.66137695 132.69458008 C-35.39347855 133.84879959 -35.12558014 135.0030191 -34.8495636 136.19221497 C-34.49860331 139.42062744 -34.71642357 140.52665931 -36.52734375 143.15625 C-37.37296875 144.166875 -38.21859375 145.1775 -39.08984375 146.21875 C-42.30185857 150.08963965 -42.88227804 152.96352273 -42.80859375 157.96484375 C-42.15252437 163.07671771 -39.72908004 166.98532746 -36.08984375 170.53125 C-30.7334674 173.92797647 -26.20907347 174.44679394 -19.94506836 174.41503906 C-19.09244919 174.4185437 -18.23983002 174.42204834 -17.3613739 174.42565918 C-14.55072829 174.43444225 -11.74033555 174.42863996 -8.9296875 174.421875 C-6.97343396 174.42322251 -5.01718074 174.42516376 -3.06092834 174.42767334 C1.03534133 174.43061986 5.13152369 174.42634165 9.2277832 174.41699219 C14.47921468 174.40559042 19.73044188 174.41216473 24.98186588 174.42413712 C29.01986736 174.431362 33.05782035 174.42906501 37.09582329 174.42388153 C39.03232281 174.42254717 40.96882673 174.42418529 42.90532112 174.42884064 C45.61025799 174.43391698 48.31486323 174.42618034 51.01977539 174.41503906 C51.82040405 174.41908752 52.62103271 174.42313599 53.44592285 174.42730713 C58.77162195 174.39353367 58.77162195 174.39353367 63.47265625 172.15625 C65.379674 169.61355966 65.47853384 168.30025107 65.34765625 165.09375 C64.28853662 161.53813409 63.70042547 160.9098134 60.47265625 159.15625 C57.58856557 158.85233769 54.91700794 158.71869644 52.03222656 158.72387695 C50.75850945 158.70858948 50.75850945 158.70858948 49.45906067 158.69299316 C46.65623401 158.66283245 43.85374895 158.65359254 41.05078125 158.64453125 C39.1059251 158.62768684 37.16107986 158.60953693 35.21624756 158.59013367 C30.10023404 158.5426017 24.98426471 158.51281297 19.86810303 158.48669434 C14.64635487 158.45690499 9.42475907 158.41036907 4.203125 158.36523438 C-6.04028494 158.27916485 -16.28372621 158.21183574 -26.52734375 158.15625 C-26.85734375 156.83625 -27.18734375 155.51625 -27.52734375 154.15625 C-26.48608841 154.16291183 -25.44483307 154.16957367 -24.37202454 154.17643738 C-14.55794706 154.23725924 -4.74390784 154.28222783 5.07031536 154.31168652 C10.11588587 154.32734068 15.16130419 154.34857451 20.20678711 154.38256836 C25.07620044 154.41517053 29.94546741 154.43310489 34.81498146 154.44088173 C36.67252723 154.44642368 38.53006501 154.45724576 40.38754845 154.47344017 C42.9899055 154.49522586 45.59165818 154.49821645 48.1940918 154.49682617 C48.96157745 154.507612 49.72906311 154.51839783 50.51980591 154.5295105 C55.01292849 154.50354639 57.93034577 153.98646937 61.47265625 151.15625 C64.56312432 145.51444519 65.78945388 139.34250272 67.20703125 133.10546875 C67.44931458 132.05148392 67.6915979 130.99749908 67.94122314 129.91157532 C68.44898894 127.68935505 68.95304883 125.46628511 69.45361328 123.24243164 C70.2186428 119.86148691 71.00723747 116.48659808 71.796875 113.11132812 C72.28922038 110.94303932 72.78015239 108.77442901 73.26953125 106.60546875 C73.50589294 105.6072258 73.74225464 104.60898285 73.98577881 103.58049011 C75.53562104 96.53353965 76.6510228 89.0441483 72.984375 82.5 C72.38238281 81.8915625 71.78039062 81.283125 71.16015625 80.65625 C70.56589844 80.0271875 69.97164062 79.398125 69.359375 78.75 C66.15734831 76.04518242 63.50319511 74.90487555 59.30914307 74.91574097 C58.48747147 74.91299164 57.66579987 74.91024231 56.81922913 74.90740967 C55.48026833 74.9181955 55.48026833 74.9181955 54.11425781 74.92919922 C53.16757736 74.92890717 52.22089691 74.92861511 51.24552917 74.92831421 C48.1180198 74.92970698 44.99074898 74.94526584 41.86328125 74.9609375 C39.69423554 74.96466781 37.52518814 74.9675147 35.35614014 74.96951294 C29.64820704 74.97714793 23.94037578 74.99679535 18.23248291 75.0189209 C12.40760679 75.03938216 6.5827142 75.04851526 0.7578125 75.05859375 C-10.67061765 75.0800413 -22.09897223 75.1141757 -33.52734375 75.15625 C-33.7741785 73.14874172 -34.02101326 71.14123344 -34.26784801 69.13372517 C-34.7256966 65.64471132 -35.51689568 62.26140493 -36.33984375 58.84375 C-36.49259766 58.14185547 -36.64535156 57.43996094 -36.80273438 56.71679688 C-37.51777788 53.75205129 -38.05983164 51.60108045 -40.30371094 49.46606445 C-44.26385762 47.13336935 -48.47556962 47.64400931 -52.96484375 47.65625 C-53.90650391 47.62789062 -54.84816406 47.59953125 -55.81835938 47.5703125 C-61.72285305 47.55364491 -64.94593062 47.97042462 -68.52734375 53.15625 Z " fill="#000000" transform="translate(122.52734375,22.84375)"/>
<path d="M0 0 C0.74411133 0.28117676 1.48822266 0.56235352 2.25488281 0.85205078 C3.84722711 1.28504518 5.44377533 1.7028435 7.04394531 2.10595703 C9.47248903 2.76024915 11.89944217 3.4199093 14.32519531 4.08447266 C15.11925781 4.2978125 15.91332031 4.51115234 16.73144531 4.73095703 C17.78452881 5.01821655 17.78452881 5.01821655 18.85888672 5.3112793 C33.31824 8.57472616 46.86590414 6.85205078 62.25488281 6.85205078 C62.25488281 81.43205078 62.25488281 156.01205078 62.25488281 232.85205078 C54.66488281 230.54205078 47.07488281 228.23205078 39.25488281 225.85205078 C39.11945846 210.53590329 39.00892589 195.2200256 38.94400978 179.90343094 C38.91306722 172.7916852 38.87088023 165.68033775 38.80224609 158.56884766 C38.73607091 151.70887212 38.70120011 144.84931111 38.68561935 137.98903656 C38.67451262 135.36865465 38.65282421 132.74829601 38.62050247 130.1280899 C38.57709513 126.46428521 38.57094258 122.80220305 38.57373047 119.13818359 C38.55215881 118.04917755 38.53058716 116.96017151 38.50836182 115.83816528 C38.53142635 113.04634277 38.59612066 110.56515473 39.25488281 107.85205078 C42.15292358 105.33807373 42.15292358 105.33807373 45.25488281 103.85205078 C50.58363842 96.79505011 50.49437052 91.20698865 50.56738281 82.66455078 C50.59638672 81.55273438 50.62539062 80.44091797 50.65527344 79.29541016 C50.71473235 71.57032517 49.93215394 65.70595939 44.46582031 59.97705078 C37.96110725 55.99118405 32.2859964 56.02879674 24.89611816 57.53799438 C20.9992112 58.51945814 17.13504174 59.58367414 13.27050781 60.68408203 C11.84212119 61.0814073 10.41346581 61.47776752 8.98455811 61.87321472 C6.00710991 62.70009883 3.03222921 63.53547046 0.05908203 64.37768555 C-3.73888862 65.45327573 -7.54131 66.5119655 -11.34560776 67.56493092 C-14.28963598 68.38092485 -17.23181005 69.20343693 -20.17340851 70.02814293 C-21.57474707 70.42067361 -22.97649078 70.81176106 -24.37865448 71.201334 C-26.33947292 71.74769035 -28.29772332 72.30323753 -30.25585938 72.85913086 C-31.36709167 73.17223709 -32.47832397 73.48534332 -33.62322998 73.80793762 C-36.85017302 74.88718664 -39.7262554 76.29163657 -42.74511719 77.85205078 C-44.23011719 78.34705078 -44.23011719 78.34705078 -45.74511719 78.85205078 C-46.88721536 80.63434014 -46.88721536 80.63434014 -47.74511719 82.85205078 C-48.08679932 83.61541748 -48.42848145 84.37878418 -48.78051758 85.1652832 C-50.42305507 89.74035916 -50.15519788 94.34789189 -50.18261719 99.16455078 C-50.21548828 100.17195313 -50.24835937 101.17935547 -50.28222656 102.21728516 C-50.33060865 108.9687854 -49.34311228 113.74359189 -44.74511719 118.85205078 C-44.06418503 119.22600983 -43.38325287 119.59996887 -42.6816864 119.98526001 C-40.74511719 121.85205078 -40.74511719 121.85205078 -40.26409912 125.17399597 C-40.25250189 126.56690567 -40.26314331 127.96010411 -40.29101562 129.3527832 C-40.29043152 130.11399979 -40.28984741 130.87521637 -40.28924561 131.65950012 C-40.29203271 134.17597026 -40.32315266 136.69125631 -40.35449219 139.20751953 C-40.36195239 140.95200452 -40.36764636 142.6964979 -40.37164307 144.44099426 C-40.38691688 149.03285859 -40.4262135 153.62421695 -40.47045898 158.21588135 C-40.51137416 162.90117549 -40.52964604 167.58655137 -40.54980469 172.27197266 C-40.59270626 181.46555436 -40.66097856 190.6587605 -40.74511719 199.85205078 C-47.10941893 198.53969226 -53.16632746 196.83985663 -59.30761719 194.72705078 C-60.12552734 194.44990234 -60.9434375 194.17275391 -61.78613281 193.88720703 C-63.77388287 193.21299941 -65.75971068 192.53312874 -67.74511719 191.85205078 C-68.00227337 172.3025939 -68.19614814 152.75348095 -68.31505108 133.2026825 C-68.37173205 124.12445482 -68.44898016 115.04727899 -68.57495117 105.96972656 C-68.68471826 98.05605549 -68.75558639 90.14314617 -68.78009063 82.22873497 C-68.79441226 78.03902231 -68.82797002 73.85148848 -68.90814781 69.66247559 C-68.98308043 65.71535332 -69.00579702 61.77129619 -68.98930168 57.8235302 C-68.99231672 56.37864421 -69.01405527 54.93365097 -69.05637741 53.48938179 C-69.35979659 42.59646785 -69.35979659 42.59646785 -65.33451271 38.24775696 C-62.55365093 36.20171059 -59.77826945 34.49366745 -56.74511719 32.85205078 C-55.57665614 32.07595933 -54.41589698 31.28794205 -53.26855469 30.48095703 C-51.71007812 29.45808594 -51.71007812 29.45808594 -50.12011719 28.41455078 C-43.01797418 23.72286688 -35.9712419 18.95075851 -28.93261719 14.16455078 C-27.88315918 13.45177979 -26.83370117 12.73900879 -25.75244141 12.00463867 C-24.22321045 10.96424438 -24.22321045 10.96424438 -22.66308594 9.90283203 C-21.6645459 9.23203613 -20.66600586 8.56124023 -19.63720703 7.87011719 C-17.73782782 6.54475263 -15.88046488 5.15662802 -14.07568359 3.70507812 C-9.0479394 -0.26490865 -6.26187018 -2.10151116 0 0 Z " fill="#000000" transform="translate(83.7451171875,251.14794921875)"/>
<path d="M0 0 C23.41889076 0 46.69733274 3.66973327 70 6 C70 48.24 70 90.48 70 134 C46.9 134 23.8 134 0 134 C0 89.78 0 45.56 0 0 Z " fill="#000000" transform="translate(270,355)"/>
<path d="M0 0 C8.37616845 1.30057243 16.61949967 2.94980222 24.87866211 4.85058594 C26.10891617 5.13075058 27.33917023 5.41091522 28.60670471 5.6995697 C31.96194642 6.46375245 35.31618871 7.23223918 38.67025828 8.00154781 C42.2579144 8.82363972 45.84648888 9.64170452 49.43495178 10.46026611 C56.28635526 12.02377382 63.13692551 13.59090129 69.98720795 15.15931249 C77.54123452 16.88865568 85.09621981 18.61379047 92.65128016 20.33861065 C131.44124773 29.19492858 170.22173518 38.09260036 209 47 C209 60.86 209 74.72 209 89 C198.875 87.875 198.875 87.875 194.4375 86.9375 C193.16712891 86.67259766 193.16712891 86.67259766 191.87109375 86.40234375 C191.25363281 86.26957031 190.63617188 86.13679688 190 86 C190 87.65 190 89.3 190 91 C183.21626862 90.57510106 176.56469587 89.66927127 169.875 88.5 C169.11646729 88.36940186 168.35793457 88.23880371 167.57641602 88.10424805 C162.12538012 87.12538012 162.12538012 87.12538012 161 86 C160.95919217 84.00041636 160.95745644 81.99954746 161 80 C159.97770813 79.81272323 159.97770813 79.81272323 158.93476391 79.62166309 C141.91926864 76.49972949 124.93029627 73.26132333 107.95703125 69.91796875 C105.59667936 69.45416198 103.23630182 68.99048572 100.87590027 68.52693176 C94.76532007 67.32653564 88.65508174 66.12440861 82.54492188 64.921875 C76.26909262 63.68707029 69.99292926 62.45396602 63.71679688 61.22070312 C51.47754375 58.81543207 39.23865242 56.40832563 27 54 C27 56.64 27 59.28 27 62 C17.22909933 60.72029806 7.64066177 59.02534911 -2 57 C-2.33 54.03 -2.66 51.06 -3 48 C-4.98 47.34 -6.96 46.68 -9 46 C-8.35229771 42.28116999 -7.34596699 38.73101931 -6.23535156 35.12573242 C-2.65331667 23.4763207 -0.85296232 12.16147282 0 0 Z M13.3125 21.6875 C10.71851633 24.28148367 10 25.35351261 10 29 C11.49012846 32.44409593 12.38427189 33.74172933 15.88867188 35.21166992 C17.07009766 35.48599854 18.25152344 35.76032715 19.46875 36.04296875 C20.12290894 36.19984665 20.77706787 36.35672455 21.4510498 36.51835632 C23.6296547 37.03368849 25.81388621 37.51759238 28 38 C29.55878289 38.35806431 31.11737303 38.71696865 32.67578125 39.07666016 C36.77075964 40.01117836 40.87382977 40.90210439 44.98242188 41.7746582 C47.52731389 42.31833519 50.06815918 42.87887649 52.609375 43.43945312 C54.24977831 43.79010123 55.89039608 44.13974786 57.53125 44.48828125 C58.6532782 44.7396862 58.6532782 44.7396862 59.79797363 44.99617004 C64.46745737 45.96261524 68.26610094 46.06438062 73 45 C75.16666667 43.5 75.16666667 43.5 76 41 C76.08333333 37.41666667 76.08333333 37.41666667 75 34 C72.18563381 31.36521807 69.65860279 30.44531841 65.92773438 29.6496582 C64.41596619 29.31965569 64.41596619 29.31965569 62.87365723 28.98298645 C61.79128784 28.75785873 60.70891846 28.53273102 59.59375 28.30078125 C58.47689819 28.0608696 57.36004639 27.82095795 56.20935059 27.57377625 C53.8500626 27.06903721 51.48971693 26.5692205 49.12841797 26.07397461 C45.51155193 25.31492434 41.89821132 24.54063858 38.28515625 23.76367188 C35.99237856 23.27514412 33.69941569 22.78748447 31.40625 22.30078125 C30.32388062 22.06958084 29.24151123 21.83838043 28.12634277 21.60017395 C27.11849731 21.38962875 26.11065186 21.17908356 25.07226562 20.9621582 C24.18720337 20.775793 23.30214111 20.5894278 22.39025879 20.39741516 C18.65316232 19.77606872 16.56855177 19.64300238 13.3125 21.6875 Z M119.0625 45.0625 C116.67323681 47.89689651 116.67323681 47.89689651 116.875 51.625 C117.6685832 55.03087218 117.6685832 55.03087218 119.97875977 56.56958008 C124.03473255 58.48989883 128.08554012 59.35295995 132.46484375 60.26171875 C133.37577286 60.45723831 134.28670197 60.65275787 135.22523499 60.85420227 C137.1465309 61.26440793 139.06879693 61.67009269 140.99194336 62.0715332 C143.92626733 62.68515105 146.85674021 63.31506129 149.78710938 63.94726562 C151.65864757 64.34472404 153.53038622 64.74124001 155.40234375 65.13671875 C156.2743895 65.3241716 157.14643524 65.51162445 158.04490662 65.70475769 C162.40217406 66.6060658 166.52922938 67.43131974 171 67 C174.06307631 65.02033737 174.06307631 65.02033737 176 62 C176 58.85479551 175.72478799 56.9785858 173.83984375 54.43359375 C171.22998747 52.40001147 168.78409592 51.94695049 165.5625 51.1875 C164.89234863 51.02862305 164.22219727 50.86974609 163.53173828 50.70605469 C161.02465269 50.12097692 158.51289156 49.55962821 156 49 C154.31898193 48.62125732 154.31898193 48.62125732 152.60400391 48.23486328 C148.86322969 47.39613135 145.11980103 46.57055661 141.375 45.75 C140.15369385 45.47953857 138.9323877 45.20907715 137.67407227 44.93041992 C136.51061279 44.6801001 135.34715332 44.42978027 134.1484375 44.171875 C133.10864746 43.9459668 132.06885742 43.72005859 130.99755859 43.48730469 C124.66325518 42.44214449 124.66325518 42.44214449 119.0625 45.0625 Z " fill="#000000" transform="translate(251,137)"/>
<path d="M0 0 C18.45142585 1.15321412 18.45142585 1.15321412 26.390625 1.9375 C27.26853699 2.02249756 28.14644897 2.10749512 29.05096436 2.19506836 C30.86890785 2.37184274 32.68671966 2.5499768 34.50439453 2.72949219 C37.28767887 3.00371227 40.07152683 3.27160956 42.85546875 3.5390625 C44.63805732 3.71316855 46.42061082 3.88763402 48.203125 4.0625 C49.44210541 4.18129517 49.44210541 4.18129517 50.70611572 4.30249023 C54.24775855 4.65614426 57.53813332 5.13453333 61 6 C61 45.6 61 85.2 61 126 C40.87 126 20.74 126 0 126 C0 84.42 0 42.84 0 0 Z " fill="#000000" transform="translate(356,363)"/>
<path d="M0 0 C8.11265734 -0.6283426 16.25903865 0.65335485 24.32275391 1.54467773 C25.85945784 1.7109509 27.39620744 1.87680242 28.93299866 2.04226685 C33.08411183 2.4904429 37.23455443 2.94456773 41.38489199 3.399863 C45.73876723 3.87651629 50.09321765 4.34785762 54.44760132 4.81983948 C61.75610822 5.61278183 69.06422039 6.40927854 76.37207031 7.20825195 C85.7411205 8.23256555 95.11076146 9.25136424 104.48061562 10.26829433 C112.55312895 11.14442783 120.62540974 12.02269659 128.69763136 12.90151334 C130.42633276 13.08968458 132.15504199 13.27778387 133.88375902 13.46581149 C138.81194515 14.0018411 143.74000465 14.53900555 148.66786003 15.07806778 C150.15811153 15.24091837 151.64840574 15.40337862 153.13874626 15.56541252 C155.17877086 15.78729277 157.21862981 16.01063983 159.25845337 16.23435974 C160.39808344 16.35880179 161.53771351 16.48324385 162.71187782 16.61145687 C163.79695814 16.7396761 164.88203846 16.86789534 166 17 C167.2527944 17.13954133 168.5055888 17.27908266 169.79634666 17.42285252 C173 18 173 18 175 20 C175.45027679 23.48053949 175.32407972 26.99366192 175.3125 30.5 C175.32861328 31.47582031 175.34472656 32.45164062 175.36132812 33.45703125 C175.36197266 34.38902344 175.36261719 35.32101562 175.36328125 36.28125 C175.36626221 37.13783203 175.36924316 37.99441406 175.37231445 38.87695312 C175.1880188 39.92786133 175.1880188 39.92786133 175 41 C171.69987839 43.20008107 171.16006504 43.20825758 167.41766357 42.86987305 C166.47352222 42.78977493 165.52938087 42.70967682 164.55662918 42.62715149 C163.51797085 42.52718369 162.47931252 42.42721588 161.40917969 42.32421875 C160.30652142 42.22670822 159.20386314 42.12919769 158.06779099 42.0287323 C154.37728095 41.69823113 150.68870014 41.35009155 147 41 C144.42014369 40.76103214 141.84026864 40.52226648 139.26037598 40.28369141 C131.42301059 39.55396405 123.5882955 38.79743528 115.75394917 38.03606796 C113.42291043 37.80956409 111.091828 37.58351465 108.76073456 37.35757446 C101.4355391 36.64738335 94.11052399 35.93537084 86.7857573 35.22077084 C78.38117893 34.40086168 69.97600692 33.58740877 61.57029271 32.77922916 C55.02147803 32.14918319 48.47323469 31.51341352 41.92539668 30.87329769 C38.03311589 30.49292115 34.14063661 30.11496981 30.24753571 29.74307251 C26.60556559 29.39501839 22.96435674 29.03987124 19.32361031 28.67924881 C17.35601185 28.4861758 15.38769042 28.30051541 13.4193573 28.11508179 C12.24538895 27.99742462 11.07142059 27.87976746 9.86187744 27.75854492 C8.8444257 27.65974533 7.82697395 27.56094574 6.77869034 27.45915222 C3.91967027 26.98672627 1.59967397 26.27559923 -1 25 C-2.81948976 21.36102049 -2.18470453 17.06840712 -2.1875 13.0625 C-2.19974609 12.14275391 -2.21199219 11.22300781 -2.22460938 10.27539062 C-2.22654297 9.39173828 -2.22847656 8.50808594 -2.23046875 7.59765625 C-2.23457764 6.78820557 -2.23868652 5.97875488 -2.24291992 5.14477539 C-2 3 -2 3 0 0 Z " fill="#000000" transform="translate(256,312)"/>
<path d="M0 0 C29.7 0 59.4 0 90 0 C88.875 10.125 88.875 10.125 88.06030273 13.69360352 C87.78639709 14.91013611 87.78639709 14.91013611 87.50695801 16.15124512 C87.2231427 17.37768738 87.2231427 17.37768738 86.93359375 18.62890625 C86.757677 19.40617065 86.58176025 20.18343506 86.4005127 20.98425293 C85.75156703 23.84489713 85.09405126 26.70359179 84.4375 29.5625 C82.973125 35.976875 81.50875 42.39125 80 49 C56.9 49 33.8 49 10 49 C8.35 41.6575 6.7 34.315 5 26.75 C4.47792969 24.43709961 3.95585938 22.12419922 3.41796875 19.74121094 C3.00747544 17.90567431 2.59729768 16.07006706 2.1875 14.234375 C1.97158203 13.28320801 1.75566406 12.33204102 1.53320312 11.35205078 C1.33017578 10.43891113 1.12714844 9.52577148 0.91796875 8.58496094 C0.74031982 7.79442322 0.5626709 7.0038855 0.37963867 6.18939209 C0 4 0 4 0 0 Z " fill="#000000" transform="translate(93,113)"/>
<path d="M0 0 C0 35.97 0 71.94 0 109 C-11.385 105.535 -11.385 105.535 -23 102 C-23 69.99 -23 37.98 -23 5 C-2 0 -2 0 0 0 Z " fill="#000000" transform="translate(108,363)"/>
<path d="M0 0 C2.35955511 2.35955511 1.18542405 8.26752826 1.1875 11.4375 C1.19974609 12.41783203 1.21199219 13.39816406 1.22460938 14.40820312 C1.22654297 15.34470703 1.22847656 16.28121094 1.23046875 17.24609375 C1.23457764 18.10904053 1.23868652 18.9719873 1.24291992 19.86108398 C1 22 1 22 -1 24 C-2.91434898 24.58020722 -4.85667553 25.06931696 -6.80737305 25.51220703 C-8.02591476 25.7923465 -9.24445648 26.07248596 -10.49992371 26.3611145 C-11.83710396 26.66039279 -13.17437125 26.95928243 -14.51171875 27.2578125 C-15.88224294 27.5684109 -17.25266912 27.87944211 -18.6230011 28.19088745 C-21.49947869 28.84284526 -24.37709796 29.48943382 -27.25561523 30.13232422 C-30.93188045 30.95384279 -34.60498277 31.78860714 -38.27731609 32.62750435 C-41.10979601 33.2729587 -43.94386559 33.9111953 -46.77845192 34.54732895 C-48.1324341 34.85209805 -49.48591905 35.15908545 -50.83887291 35.4683876 C-52.73948169 35.90176085 -54.6425356 36.32436724 -56.5456543 36.74658203 C-57.62550095 36.98925812 -58.7053476 37.2319342 -59.81791687 37.48196411 C-63.27536729 38.04482917 -66.50285047 38.15590934 -70 38 C-71 37 -71 37 -71.11352539 35.23413086 C-71.10828857 34.48526611 -71.10305176 33.73640137 -71.09765625 32.96484375 C-71.09443359 32.15595703 -71.09121094 31.34707031 -71.08789062 30.51367188 C-71.07951172 29.66353516 -71.07113281 28.81339844 -71.0625 27.9375 C-71.05798828 27.08349609 -71.05347656 26.22949219 -71.04882812 25.34960938 C-71.03700373 23.23304337 -71.01906769 21.11651315 -71 19 C-64.10940881 16.26774274 -57.09190871 14.2170592 -49.9609375 12.20703125 C-48.72131256 11.85613937 -47.48168762 11.5052475 -46.20449829 11.14372253 C-43.59471788 10.40587583 -40.98413429 9.67095131 -38.37304688 8.93774414 C-35.03776269 8.0006167 -31.70553055 7.05308664 -28.37392235 6.10298634 C-25.17571982 5.19318632 -21.97439717 4.29458222 -18.7734375 3.39453125 C-17.58269623 3.05396194 -16.39195496 2.71339264 -15.16513062 2.36250305 C-14.05022247 2.0518541 -12.93531433 1.74120514 -11.78662109 1.42114258 C-10.81147552 1.14595291 -9.83632996 0.87076324 -8.83163452 0.5872345 C-5.79827851 -0.04183372 -3.08958736 -0.17310221 0 0 Z " fill="#000000" transform="translate(119,322)"/>
<path d="M0 0 C0 29.04 0 58.08 0 88 C-3.96 86.68 -7.92 85.36 -12 84 C-12 56.94 -12 29.88 -12 2 C-4 0 -4 0 0 0 Z " fill="#000000" transform="translate(70,372)"/>
</svg>
