<?xml version="1.0" encoding="UTF-8"?>
<svg version="1.1" xmlns="http://www.w3.org/2000/svg" width="512" height="512">
<path d="M0 0 C1.13766607 -0.00445784 2.27533213 -0.00891569 3.44747293 -0.01350862 C4.68753111 -0.01332426 5.92758929 -0.01313989 7.20522499 -0.01294994 C8.54368624 -0.01625205 9.88214649 -0.01997835 11.22060549 -0.02409142 C14.89307417 -0.03408036 18.5655265 -0.03782321 22.23800683 -0.04048073 C26.20144163 -0.04439311 30.1648636 -0.05397086 34.12829018 -0.0626936 C43.69806492 -0.08243302 53.26784068 -0.0925216 62.83763069 -0.10142139 C67.34932933 -0.10580894 71.86102681 -0.11117459 76.37272453 -0.11641026 C91.37991466 -0.13342099 106.38710408 -0.14791337 121.39430237 -0.155159 C125.28656833 -0.15706875 129.17883429 -0.1589891 133.07110023 -0.16094494 C134.03845067 -0.16142868 135.00580111 -0.16191242 136.0024652 -0.16241082 C151.65970497 -0.17070444 167.31686817 -0.19603076 182.97407453 -0.22852562 C199.06571985 -0.26164852 215.15732634 -0.27961253 231.24900591 -0.28280324 C240.2770466 -0.28496363 249.30497567 -0.29364303 258.33298302 -0.31926441 C266.02454324 -0.34104309 273.71596473 -0.34898681 281.40755229 -0.33929763 C285.32655032 -0.33477341 289.24526256 -0.33652845 293.16422081 -0.35605907 C323.33585948 -0.49806597 323.33585948 -0.49806597 336.2151432 4.13422108 C337.31903578 4.52242873 338.42292835 4.91063639 339.56027222 5.31060791 C359.76774201 12.77909988 376.10320297 29.19353423 385.5276432 48.25922108 C385.84120766 48.87233143 386.15477211 49.48544178 386.47783852 50.11713123 C394.22624214 66.76998372 393.80385416 84.88249594 393.73804188 102.82969427 C393.728881 106.53530704 393.74301499 110.24084849 393.75396156 113.94644642 C393.77163526 121.18114518 393.76795701 128.41567682 393.756311 135.6503818 C393.74723264 141.53653906 393.74607157 147.42264988 393.75040627 153.30881214 C393.7510192 154.15043685 393.75163213 154.99206156 393.75226364 155.85919005 C393.75354269 157.56958128 393.75483955 159.27997251 393.756154 160.99036372 C393.76752713 176.98315439 393.75449761 192.97585296 393.73295254 208.96862853 C393.71508453 222.65505701 393.71818956 236.34134973 393.73662758 250.02777576 C393.75809228 265.9680765 393.7664288 281.90829675 393.75417852 297.84860992 C393.75290449 299.55228327 393.751647 301.25595664 393.75040627 302.95963001 C393.74948061 304.21659273 393.74948061 304.21659273 393.74853626 305.49894863 C393.74510011 311.36975307 393.75087401 317.24050593 393.76032448 323.11130238 C393.77160835 330.2777298 393.76837152 337.44398226 393.7472015 344.61038995 C393.73677613 348.25832275 393.73242117 351.90596514 393.74579811 355.553895 C393.86722463 391.6512844 393.86722463 391.6512844 385.5901432 407.94672108 C385.25313393 408.63556385 384.91612465 409.32440662 384.56890297 410.03412342 C380.97401787 417.08691456 376.37940388 423.16625096 371.2151432 429.13422108 C370.64279945 429.8071117 370.0704557 430.48000233 369.4807682 431.17328358 C357.10329347 444.59242697 338.07782495 453.65795455 320.2151432 456.13422108 C317.54727333 456.21760288 314.90741596 456.25505917 312.24061012 456.23860645 C311.45511919 456.2378999 310.66962826 456.23719335 309.86033458 456.23646539 C307.23744421 456.23310021 304.61462667 456.22274913 301.99175453 456.21259022 C300.10726449 456.20907252 298.22277335 456.20610593 296.33828163 456.20364857 C292.28357019 456.19798119 288.22887218 456.1899716 284.17416763 456.18062496 C277.75630556 456.16742876 271.33850342 456.16918409 264.92063332 456.17485523 C263.29433761 456.17623535 263.29433761 456.17623535 261.63518745 456.17764336 C258.29660485 456.18061436 254.95802248 456.18377916 251.61944008 456.18695545 C237.80414329 456.19974397 223.98913037 456.20174852 210.17388344 456.158391 C200.09226741 456.12685695 190.01108315 456.12362027 179.92945498 456.1531505 C174.59852333 456.16767526 169.26845542 456.16795061 163.93759537 456.13374996 C158.91959892 456.10183256 153.90301686 456.10747284 148.88504601 456.14125156 C147.04972432 456.147046 145.21429926 456.13932887 143.37910843 456.11666012 C131.79666006 455.98305117 125.10846876 457.01726314 116.2151432 465.13422108 C113.76801876 466.68406558 111.25872949 467.99842558 108.6526432 469.25922108 C107.98555336 469.58559559 107.31846352 469.9119701 106.63115883 470.24823475 C101.60223885 472.63277709 96.47894886 474.64378884 91.2151432 476.44672108 C90.55312904 476.67697987 89.89111488 476.90723866 89.20903969 477.14447498 C74.78560933 481.81244021 60.59665609 482.60976252 45.57842445 482.60297108 C43.64028649 482.61009059 41.70215059 482.61779213 39.76401711 482.62604237 C35.73765597 482.63937501 31.71149072 482.64110266 27.68511391 482.63519764 C22.52908435 482.62925338 17.37398081 482.66013861 12.21813107 482.70031452 C8.23154583 482.72613764 4.24518701 482.72907495 0.25852966 482.72542286 C-1.64367411 482.7271132 -3.54588843 482.73674745 -5.44800949 482.75456715 C-8.0969867 482.77669477 -10.74404074 482.76709423 -13.39301109 482.74945545 C-14.17276299 482.7627187 -14.95251488 482.77598194 -15.75589561 482.7896471 C-19.79935474 482.72706417 -21.56987131 482.30939288 -24.74684715 479.72076893 C-27.61701752 476.07808106 -28.13421995 473.86067081 -28.0661068 469.16937733 C-27.6149498 465.90475519 -26.16607815 464.32237043 -23.7848568 462.13422108 C-19.65021077 460.04466878 -15.94059117 459.81924562 -11.3473568 459.63422108 C-6.42756891 459.43564235 -2.39361178 458.90079176 2.2151432 457.13422108 C1.1013932 456.98726795 -0.0123568 456.84031483 -1.1598568 456.68890858 C-26.18005077 453.12643063 -46.59134405 442.43179854 -62.5348568 422.50922108 C-74.20060654 406.19838189 -78.94010975 388.6048364 -78.92529869 368.77643299 C-78.92826981 367.53146848 -78.93124094 366.28650397 -78.93430209 365.00381327 C-78.94146111 361.55969101 -78.94415975 358.11561866 -78.94489956 354.67149258 C-78.94675612 350.95213358 -78.95430655 347.23278528 -78.96103477 343.5134325 C-78.97459509 335.3850014 -78.98063944 327.25657525 -78.98504543 319.12813473 C-78.98781217 314.0475768 -78.99205035 308.96702077 -78.99654961 303.88646412 C-79.00874007 289.80569294 -79.0190393 275.72492326 -79.0224247 261.64414692 C-79.02264426 260.74357715 -79.02286383 259.84300739 -79.02309005 258.91514763 C-79.02330833 258.01248214 -79.02352661 257.10981664 -79.0237515 256.17979765 C-79.02419496 254.35080337 -79.02464152 252.5218091 -79.02509117 250.69281483 C-79.0253126 249.78557987 -79.02553403 248.87834492 -79.02576217 247.943618 C-79.02970696 233.2557589 -79.04715225 218.56794952 -79.07045069 203.88010961 C-79.09420597 188.78171791 -79.10662847 173.68335111 -79.10779262 158.58494043 C-79.10870712 150.1153219 -79.1144024 141.64576811 -79.13261223 133.17616749 C-79.1480698 125.96148563 -79.15310056 118.74688853 -79.14487413 111.53219324 C-79.14098732 107.85638875 -79.14179977 104.18075465 -79.15593147 100.5049715 C-79.28056144 66.10802115 -79.28056144 66.10802115 -72.5348568 51.88422108 C-72.22967125 51.22003162 -71.9244857 50.55584217 -71.61005211 49.87152576 C-61.33362536 28.04071992 -44.03039329 12.06935964 -21.21845055 3.84906483 C-14.14203063 1.60296567 -7.45499538 0.0136148 0 0 Z " fill="#E4E7EE" transform="translate(98.78485679626465,14.865778923034668)"/>
<path d="M0 0 C1.13766607 -0.00445784 2.27533213 -0.00891569 3.44747293 -0.01350862 C4.68753111 -0.01332426 5.92758929 -0.01313989 7.20522499 -0.01294994 C8.54368624 -0.01625205 9.88214649 -0.01997835 11.22060549 -0.02409142 C14.89307417 -0.03408036 18.5655265 -0.03782321 22.23800683 -0.04048073 C26.20144163 -0.04439311 30.1648636 -0.05397086 34.12829018 -0.0626936 C43.69806492 -0.08243302 53.26784068 -0.0925216 62.83763069 -0.10142139 C67.34932933 -0.10580894 71.86102681 -0.11117459 76.37272453 -0.11641026 C91.37991466 -0.13342099 106.38710408 -0.14791337 121.39430237 -0.155159 C125.28656833 -0.15706875 129.17883429 -0.1589891 133.07110023 -0.16094494 C134.03845067 -0.16142868 135.00580111 -0.16191242 136.0024652 -0.16241082 C151.65970497 -0.17070444 167.31686817 -0.19603076 182.97407453 -0.22852562 C199.06571985 -0.26164852 215.15732634 -0.27961253 231.24900591 -0.28280324 C240.2770466 -0.28496363 249.30497567 -0.29364303 258.33298302 -0.31926441 C266.02454324 -0.34104309 273.71596473 -0.34898681 281.40755229 -0.33929763 C285.32655032 -0.33477341 289.24526256 -0.33652845 293.16422081 -0.35605907 C323.33585948 -0.49806597 323.33585948 -0.49806597 336.2151432 4.13422108 C337.31903578 4.52242873 338.42292835 4.91063639 339.56027222 5.31060791 C359.68699583 12.74925685 376.22034789 29.19056306 385.5276432 48.25922108 C394.38152443 67.74508772 393.2151432 84.70924362 393.2151432 107.13422108 C237.4551432 107.13422108 81.6951432 107.13422108 -78.7848568 107.13422108 C-78.7848568 65.06279251 -78.7848568 65.06279251 -72.5348568 51.88422108 C-72.22967125 51.22003162 -71.9244857 50.55584217 -71.61005211 49.87152576 C-61.33362536 28.04071992 -44.03039329 12.06935964 -21.21845055 3.84906483 C-14.14203063 1.60296567 -7.45499538 0.0136148 0 0 Z " fill="#33527D" transform="translate(98.78485679626465,14.865778923034668)"/>
<path d="M0 0 C4.55311387 3.6466587 8.40340204 8.46020613 10.25 14 C10.94023835 23.10583668 9.71905639 31.25874392 7.25 40 C6.9096875 41.23492187 6.569375 42.46984375 6.21875 43.7421875 C-0.97110814 68.79537832 -14.48354437 90.80217182 -30.75 111 C-31.21744629 111.58313965 -31.68489258 112.1662793 -32.16650391 112.76708984 C-39.36561307 121.63994842 -47.32804902 129.77814142 -55.375 137.875 C-55.85619293 138.3615506 -56.33738586 138.8481012 -56.8331604 139.34939575 C-63.45843477 146.03059272 -70.38574746 152.14245987 -77.75 158 C-79.09038773 159.10818234 -80.42795155 160.21979574 -81.76171875 161.3359375 C-90.74561875 168.78915834 -100.01089435 175.57116166 -109.75 182 C-110.42643555 182.45084961 -111.10287109 182.90169922 -111.79980469 183.36621094 C-122.13694123 190.24624183 -132.72315149 196.60616158 -143.52441406 202.72851562 C-145.53630651 203.87791622 -147.53203705 205.04995423 -149.5234375 206.234375 C-161.40015021 213.22011649 -173.95042251 218.8306518 -186.48681641 224.51367188 C-188.64594185 225.49711911 -190.79942621 226.4930556 -192.94677734 227.50195312 C-193.92727051 227.96021484 -194.90776367 228.41847656 -195.91796875 228.890625 C-196.78059326 229.29829102 -197.64321777 229.70595703 -198.53198242 230.12597656 C-200.75 231 -200.75 231 -203.75 231 C-205.29296875 229.49609375 -205.29296875 229.49609375 -206.9375 227.4375 C-209.43233946 224.44580692 -211.96469792 221.83050773 -214.9375 219.3125 C-220.84225709 214.23486842 -220.84225709 214.23486842 -222.75 211 C-222.48001782 204.89647427 -219.48797223 199.55846277 -216.9375 194.125 C-216.19826294 192.53812378 -216.19826294 192.53812378 -215.4440918 190.91918945 C-213.89173768 187.60679776 -212.32365739 184.30231855 -210.75 181 C-210.27594727 179.99984863 -209.80189453 178.99969727 -209.31347656 177.96923828 C-192.35192979 142.40680473 -170.9190395 108.50893193 -144.75 79 C-143.56205822 77.62538166 -142.3744873 76.25044262 -141.1875 74.875 C-140.044292 73.58100917 -138.8982041 72.28955968 -137.75 71 C-136.97785156 70.1234375 -136.20570313 69.246875 -135.41015625 68.34375 C-107.15630046 36.81228098 -68.95602428 7.50539653 -26.75 -1 C-26.1098999 -1.17217041 -25.4697998 -1.34434082 -24.81030273 -1.52172852 C-17.55521511 -3.20589923 -6.56052449 -3.81843027 0 0 Z " fill="#079BFE" transform="translate(463.75,138)"/>
<path d="M0 0 C1.81467773 -0.01836914 1.81467773 -0.01836914 3.66601562 -0.03710938 C4.83197266 -0.03904297 5.99792969 -0.04097656 7.19921875 -0.04296875 C8.25326904 -0.04707764 9.30731934 -0.05118652 10.39331055 -0.05541992 C14.25406168 0.26585192 17.13255896 1.21099707 20.125 3.6875 C21.3125 5.1875 21.3125 5.1875 21.3125 7.1875 C22.12460937 7.51234375 22.12460937 7.51234375 22.953125 7.84375 C26.12895344 9.65249997 28.51978081 12.10473799 31.0625 14.6875 C31.56910156 15.18636719 32.07570312 15.68523437 32.59765625 16.19921875 C36.3125 19.93408861 36.3125 19.93408861 36.3125 22.1875 C36.9725 22.1875 37.6325 22.1875 38.3125 22.1875 C39.38128451 59.52589778 34.67987092 90.1475086 8.78515625 119.00390625 C-4.21816689 132.73281864 -20.51068278 140.61365257 -38.4375 146 C-39.40973511 146.29245605 -39.40973511 146.29245605 -40.40161133 146.59082031 C-53.18938821 150.20756529 -65.74847027 150.52691071 -78.93359375 150.55859375 C-80.87744713 150.56757615 -82.82129987 150.57669825 -84.76515198 150.58595276 C-88.8153755 150.60234543 -92.86551721 150.61012675 -96.91577148 150.61303711 C-102.10326347 150.61845427 -107.28998915 150.65631219 -112.47726345 150.70178127 C-116.48099099 150.73149949 -120.48453118 150.7387593 -124.48835945 150.73976326 C-126.40173977 150.74396505 -128.31512068 150.75639769 -130.22839165 150.77728081 C-132.89690412 150.80412646 -135.56359939 150.79939422 -138.23217773 150.78686523 C-139.41123184 150.80911667 -139.41123184 150.80911667 -140.61410522 150.83181763 C-144.67394364 150.77751618 -146.4613488 150.3714476 -149.65345764 147.77503967 C-152.51808091 144.13090398 -153.03683425 141.911959 -152.96875 137.22265625 C-152.51759301 133.95803411 -151.06872136 132.37564936 -148.6875 130.1875 C-144.5806509 128.1084534 -141.0012333 127.93457517 -136.4375 127.8125 C-128.57019303 127.44123813 -123.07467878 125.76470124 -116.8125 121 C-112.28946845 115.01363472 -111.59598867 109.27554646 -111.3125 101.875 C-110.16511802 74.0261159 -97.32021723 47.54496006 -77.6875 28.1875 C-76.94886719 27.43855469 -76.21023437 26.68960937 -75.44921875 25.91796875 C-55.34644176 6.72379185 -26.97253395 0.01450916 0 0 Z " fill="#FED70C" transform="translate(223.6875,346.8125)"/>
<path d="M0 0 C1.01580576 -0.00256327 1.01580576 -0.00256327 2.05213284 -0.00517833 C4.32003966 -0.00847112 6.58765025 0.00252679 8.85552979 0.01345825 C10.48171481 0.01402241 12.10790035 0.01370571 13.73408508 0.01257324 C18.14904123 0.01199892 22.56388892 0.02376616 26.97881985 0.03772116 C31.59260446 0.05021519 36.20639151 0.05139797 40.82019043 0.05377197 C49.55720036 0.05999064 58.29416029 0.0764067 67.0311482 0.09647095 C76.97784034 0.11881791 86.92453486 0.12982035 96.87124586 0.13986182 C117.33250644 0.16077258 137.79372199 0.1959561 158.25494385 0.24050903 C154.98793144 3.54261397 151.69953732 6.59341823 148.06744385 9.49050903 C142.62502437 13.89974193 137.42370435 18.51612161 132.25494385 23.24050903 C131.30748291 24.08355591 130.36002197 24.92660278 129.3838501 25.79519653 C118.2978258 35.70147037 108.47773775 46.58371864 99.25494385 58.24050903 C98.75269287 58.86489868 98.25044189 59.48928833 97.73297119 60.13259888 C81.37531831 80.47945201 65.84858605 102.7773054 54.25494385 126.24050903 C46.43984526 126.35675493 38.62495211 126.4454012 30.8092041 126.49956989 C27.1793141 126.52557878 23.55001893 126.56081362 19.92047119 126.6177063 C16.41261008 126.67234261 12.90531824 126.70199495 9.39706421 126.71489525 C7.41842858 126.72852518 5.44001956 126.76750808 3.46173096 126.80699158 C-3.91739548 126.80927457 -9.10906533 126.25184189 -14.74505615 121.24050903 C-20.39574703 115.29241337 -21.04241237 109.93804307 -21.01971436 102.07913208 C-21.02482529 101.16466309 -21.02993622 100.25019409 -21.03520203 99.30801392 C-21.049085 96.28935167 -21.04814193 93.27091814 -21.0458374 90.25222778 C-21.0497256 88.14861466 -21.05406053 86.04500232 -21.05882263 83.94139099 C-21.06628248 79.53236344 -21.06599566 75.12341596 -21.06072998 70.71438599 C-21.05494174 65.07542446 -21.07185203 59.43679208 -21.09507465 53.79788494 C-21.10983748 49.45261226 -21.11068011 45.10741833 -21.10756493 40.76212502 C-21.10807705 38.68378867 -21.11329435 36.6054478 -21.12337685 34.52713585 C-21.1357705 31.61456583 -21.12893142 28.70263013 -21.11737061 25.79006958 C-21.12501434 24.93836685 -21.13265808 24.08666412 -21.14053345 23.20915222 C-21.08605156 16.97115202 -20.18748353 11.1759554 -16.0614624 6.21707153 C-15.48267334 5.77105591 -14.90388428 5.32504028 -14.30755615 4.86550903 C-13.73134521 4.40402466 -13.15513428 3.94254028 -12.5614624 3.46707153 C-8.24100565 0.54960181 -5.27698931 -0.00801974 0 0 Z " fill="#ACB8CA" transform="translate(212.74505615234375,167.75949096679688)"/>
<path d="M0 0 C6.87688773 2.07275208 11.70150601 5.3182415 15.4375 11.5625 C19.66888845 21.15607898 16.71616414 32.38390277 14 42 C13.6596875 43.23492187 13.319375 44.46984375 12.96875 45.7421875 C5.77889186 70.79537832 -7.73354437 92.80217182 -24 113 C-24.46744629 113.58313965 -24.93489258 114.1662793 -25.41650391 114.76708984 C-32.61561307 123.63994842 -40.57804902 131.77814142 -48.625 139.875 C-49.10619293 140.3615506 -49.58738586 140.8481012 -50.0831604 141.34939575 C-56.70843477 148.03059272 -63.63574746 154.14245987 -71 160 C-72.34038773 161.10818234 -73.67795155 162.21979574 -75.01171875 163.3359375 C-83.99561875 170.78915834 -93.26089435 177.57116166 -103 184 C-103.67643555 184.45084961 -104.35287109 184.90169922 -105.04980469 185.36621094 C-115.38694123 192.24624183 -125.97315149 198.60616158 -136.77441406 204.72851562 C-138.78630651 205.87791622 -140.78203705 207.04995423 -142.7734375 208.234375 C-154.65015021 215.22011649 -167.20042251 220.8306518 -179.73681641 226.51367188 C-181.89594185 227.49711911 -184.04942621 228.4930556 -186.19677734 229.50195312 C-187.17727051 229.96021484 -188.15776367 230.41847656 -189.16796875 230.890625 C-190.03059326 231.29829102 -190.89321777 231.70595703 -191.78198242 232.12597656 C-194 233 -194 233 -197 233 C-198.54296875 231.49609375 -198.54296875 231.49609375 -200.1875 229.4375 C-202.68233946 226.44580692 -205.21469792 223.83050773 -208.1875 221.3125 C-214.09225709 216.23486842 -214.09225709 216.23486842 -216 213 C-215.60182946 208.82896484 -214.49918972 205.4388671 -212.7421875 201.65625 C-212.05539917 200.16641602 -212.05539917 200.16641602 -211.35473633 198.64648438 C-210.86642334 197.60814453 -210.37811035 196.56980469 -209.875 195.5 C-209.38088623 194.43587891 -208.88677246 193.37175781 -208.37768555 192.27539062 C-204.72501976 184.44527468 -200.96110106 176.67885804 -197 169 C-196.34 169 -195.68 169 -195 169 C-193.60522461 170.41601562 -193.60522461 170.41601562 -191.96484375 172.40625 C-187.74768627 177.36581089 -183.18766693 181.92328365 -178.5625 186.5 C-177.32209961 187.73363281 -177.32209961 187.73363281 -176.05664062 188.9921875 C-174.04005041 190.99712113 -172.02114764 192.99966253 -170 195 C-164.50393405 193.4246381 -159.77955423 190.88726084 -154.8125 188.125 C-153.93754883 187.6403125 -153.06259766 187.155625 -152.16113281 186.65625 C-125.37161518 171.65027244 -100.00379887 153.79956022 -77.3125 133.09375 C-75.34344409 131.31095614 -73.34109798 129.58881553 -71.3125 127.875 C-60.96254497 118.8293076 -51.38739286 108.88364074 -43 98 C-41.98514935 96.72464385 -40.9694622 95.44995307 -39.953125 94.17578125 C-24.99142543 75.23554397 -13.05411959 54.79279306 -5.59326172 31.79638672 C-5.10669449 30.32306917 -4.57682815 28.86411767 -4.03515625 27.41015625 C-2.59185974 23.32440642 -1.83072766 19.25037736 -1.37890625 14.94921875 C-1.28254883 14.03567627 -1.18619141 13.12213379 -1.08691406 12.1809082 C-0.69009114 8.1233585 -0.32946134 4.06355374 0 0 Z " fill="#005FEE" transform="translate(457,136)"/>
<path d="M0 0 C5.703125 -0.234375 5.703125 -0.234375 8.375 1.875 C10 4 10 4 10 6 C10.81210937 6.32484375 10.81210937 6.32484375 11.640625 6.65625 C14.81645344 8.46499997 17.20728081 10.91723799 19.75 13.5 C20.25660156 13.99886719 20.76320312 14.49773437 21.28515625 15.01171875 C25 18.74658861 25 18.74658861 25 21 C25.66 21 26.32 21 27 21 C28.06878451 58.33839778 23.36737092 88.9600086 -2.52734375 117.81640625 C-15.53066689 131.54531864 -31.82318278 139.42615257 -49.75 144.8125 C-50.72223511 145.10495605 -50.72223511 145.10495605 -51.71411133 145.40332031 C-64.50188821 149.02006529 -77.06097027 149.33941071 -90.24609375 149.37109375 C-92.18994713 149.38007615 -94.13379987 149.38919825 -96.07765198 149.39845276 C-100.1278755 149.41484543 -104.17801721 149.42262675 -108.22827148 149.42553711 C-113.41576347 149.43095427 -118.60248915 149.46881219 -123.78976345 149.51428127 C-127.79349099 149.54399949 -131.79703118 149.5512593 -135.80085945 149.55226326 C-137.71423977 149.55646505 -139.62762068 149.56889769 -141.54089165 149.58978081 C-144.20940412 149.61662646 -146.87609939 149.61189422 -149.54467773 149.59936523 C-150.72373184 149.62161667 -150.72373184 149.62161667 -151.92660522 149.64431763 C-155.98644364 149.59001618 -157.7738488 149.1839476 -160.96595764 146.58753967 C-163.83058091 142.94340398 -164.34933425 140.724459 -164.28125 136.03515625 C-163.83009301 132.77053411 -162.38122136 131.18814936 -160 129 C-154.83158793 126.38354897 -149.66796537 126.66877099 -143.984375 126.5390625 C-140.84018304 126.30043558 -138.69797365 125.44518913 -135.91015625 123.99609375 C-129.73250719 121.05021546 -123.41064241 121.45319242 -116.6875 121.4375 C-86.33366137 120.93985821 -58.91013694 114.51923216 -35 95 C-34.3709375 94.53464844 -33.741875 94.06929688 -33.09375 93.58984375 C-15.15917528 79.75822598 -5.11715822 54.8270956 -1.39306641 33.12963867 C-0.6085238 26.88302275 -0.51946116 20.60032239 -0.375 14.3125 C-0.33670856 12.91729633 -0.2976509 11.52211348 -0.2578125 10.12695312 C-0.16437237 6.75142831 -0.07860584 3.3758973 0 0 Z " fill="#FEBE00" transform="translate(235,348)"/>
<path d="M0 0 C0.33 0 0.66 0 1 0 C1.75095608 30.28663645 -0.41553233 55.21198935 -21 79 C-21.57234375 79.67289062 -22.1446875 80.34578125 -22.734375 81.0390625 C-35.11346465 94.45995672 -54.13616406 103.51990966 -72 106 C-74.67955112 106.08823351 -77.33186266 106.13094924 -80.0105896 106.12025452 C-81.1943425 106.12153615 -81.1943425 106.12153615 -82.40200961 106.12284368 C-85.03674721 106.12448603 -87.67142064 106.11899756 -90.30615234 106.11352539 C-92.1986389 106.11324322 -94.09112557 106.11340183 -95.98361206 106.1139679 C-101.11533411 106.11425472 -106.24703276 106.10837651 -111.37874937 106.10139394 C-116.74392293 106.09514131 -122.10909704 106.09455509 -127.47427368 106.09336853 C-137.63137846 106.09026085 -147.78847246 106.08205504 -157.9455725 106.07201904 C-169.51018181 106.06084043 -181.07479164 106.05534304 -192.63940501 106.05032361 C-216.42627598 106.03987197 -240.21313738 106.02228341 -264 106 C-263.0447172 104.88161727 -262.08888094 103.76370728 -261.1328125 102.64599609 C-260.60059082 102.02340912 -260.06836914 101.40082214 -259.52001953 100.7593689 C-257.1196991 97.98108282 -254.62030626 95.29441384 -252.125 92.6015625 C-249.97585232 90.20249136 -249.97585232 90.20249136 -249.025383 87.81522274 C-247.62676107 84.97911618 -246.36303621 83.12044532 -244 81 C-238.86029446 79.63454261 -233.75873079 79.8229197 -228.48632812 79.91821289 C-226.89240077 79.91416053 -225.29847931 79.90612276 -223.70458984 79.89440918 C-219.38109666 79.87364816 -215.05956519 79.90787657 -210.73630714 79.9513886 C-206.19977197 79.98705566 -201.66344699 79.97012976 -197.12683105 79.95835876 C-188.52316194 79.94364309 -179.92026004 79.97295762 -171.31672621 80.01952976 C-158.73024125 80.08597734 -146.14369941 80.09252684 -133.55706024 80.09185696 C-132.6298317 80.09182912 -131.70260316 80.09180129 -130.74727678 80.09177262 C-128.8963917 80.09169756 -127.04550662 80.09150008 -125.19462156 80.09117693 C-119.80766754 80.09179156 -114.42101224 80.10703838 -109.03413486 80.13548005 C-105.66395983 80.15199504 -102.29379016 80.16065979 -98.92358398 80.16797638 C-97.37493757 80.17322537 -95.82629787 80.1819544 -94.2776947 80.19466209 C-81.55969942 80.29701729 -69.04414184 79.56125041 -56.9375 75.375 C-56.18073975 75.11630127 -55.42397949 74.85760254 -54.64428711 74.59106445 C-47.42294719 71.99657564 -41.25183264 68.47979001 -35 64 C-34.05769531 63.33355469 -33.11539063 62.66710937 -32.14453125 61.98046875 C-14.32711247 48.43520962 -3.95238909 27.95080518 -0.54296875 6.06640625 C-0.30703313 4.04994319 -0.14212199 2.02523831 0 0 Z " fill="#CDD4DE" transform="translate(491,365)"/>
<path d="M0 0 C1.2249971 -0.00960754 2.4499942 -0.01921509 3.71211243 -0.02911377 C5.05571304 -0.03396211 6.3993158 -0.03824085 7.74291992 -0.04199219 C9.11813865 -0.04774453 10.49335736 -0.05350226 11.86857605 -0.05926514 C14.75451023 -0.06977596 17.64041655 -0.07561777 20.52636719 -0.07910156 C24.21856257 -0.08458005 27.91038801 -0.10859342 31.60246754 -0.13707352 C34.44468752 -0.15573005 37.28681904 -0.16090713 40.12909508 -0.16243744 C41.48982448 -0.16545879 42.85055251 -0.17346992 44.21122169 -0.18662262 C46.11860443 -0.20374063 48.02613984 -0.19994974 49.93359375 -0.1953125 C51.01788162 -0.19895813 52.10216949 -0.20260376 53.21931458 -0.20635986 C57.74002526 0.35841533 60.30530138 2.2864836 63.44018555 5.49121094 C66.56098304 10.61716989 65.72856899 17.10051179 65.69213867 22.87988281 C65.69483685 24.22457153 65.69872198 25.56925835 65.70373535 26.91394043 C65.70961526 29.72488071 65.70111726 32.53531071 65.68237305 35.34619141 C65.65958314 38.9375343 65.67271452 42.52768133 65.6966629 46.11898041 C65.71116249 48.89354354 65.70649615 51.66782619 65.69615173 54.44239807 C65.69221057 56.40655296 65.70429396 58.37071904 65.7166748 60.33483887 C65.59818993 71.62497138 65.59818993 71.62497138 61.16088867 76.16113281 C57.35895075 78.88349008 54.73984966 79.54135417 50.08886719 79.56518555 C48.28658409 79.58421181 48.28658409 79.58421181 46.44789124 79.60362244 C45.15821945 79.6006868 43.86854767 79.59775116 42.53979492 79.59472656 C41.19367714 79.59929172 39.84756168 79.60459828 38.50144958 79.61061096 C35.68462639 79.61952931 32.8680869 79.617134 30.05126953 79.60717773 C26.45209388 79.59569208 22.85389997 79.61589812 19.25485325 79.64509487 C16.47602683 79.66349458 13.69743402 79.663157 10.91856194 79.65745735 C8.94995325 79.65723061 6.98136642 79.67409461 5.01283264 79.69126892 C-6.3068094 79.60312143 -6.3068094 79.60312143 -10.83911133 75.16113281 C-13.5755074 71.3423723 -14.22493575 68.68504957 -14.27490234 64.01318359 C-14.2940419 62.79486847 -14.31318146 61.57655334 -14.332901 60.32131958 C-14.33623947 59.01291107 -14.33957794 57.70450256 -14.34301758 56.35644531 C-14.35266777 54.99030243 -14.36276092 53.62416262 -14.37327576 52.25802612 C-14.39120508 49.3983441 -14.39680015 46.53893345 -14.39501953 43.67919922 C-14.39471486 40.02820347 -14.43566219 36.37896079 -14.48733616 32.7283802 C-14.52081866 29.90746185 -14.52677356 27.08696198 -14.52519035 24.26586533 C-14.53041647 22.27005782 -14.56286107 20.27438096 -14.59584045 18.27883911 C-14.51956678 8.15886596 -14.51956678 8.15886596 -10.92089844 3.84423828 C-7.33964188 0.37372391 -4.96102536 0.0313096 0 0 Z " fill="#ADB9CA" transform="translate(87.839111328125,167.8388671875)"/>
<path d="M0 0 C1.83715576 -0.01418472 1.83715576 -0.01418472 3.71142578 -0.02865601 C5.0261084 -0.02258331 6.34079102 -0.01651062 7.6953125 -0.01025391 C9.06624506 -0.01227659 10.43717657 -0.01518965 11.80810547 -0.01895142 C14.67621135 -0.02336568 17.54403625 -0.01697304 20.41210938 -0.00292969 C24.08074309 0.01416212 27.7487183 0.00431605 31.41732788 -0.01364708 C34.2467135 -0.02450946 37.07594408 -0.02102743 39.90533447 -0.0132637 C41.91329376 -0.01030115 43.92125917 -0.01938107 45.92919922 -0.02865601 C47.15396973 -0.01919952 48.37874023 -0.00974304 49.640625 0 C51.25348389 0.00358017 51.25348389 0.00358017 52.89892578 0.00723267 C57.54627009 0.6132497 60.06548677 2.51737443 63.09082031 6.00756836 C65.29715941 10.32026986 65.46631586 13.70029052 65.4921875 18.47802734 C65.5055011 19.34077774 65.5188147 20.20352814 65.53253174 21.09242249 C65.55270794 22.9102429 65.56216815 24.72821031 65.56152344 26.54614258 C65.57028076 29.3156472 65.64297814 32.07878887 65.71875 34.84716797 C65.88382366 47.70017516 65.88382366 47.70017516 63.16430664 52.01660156 C61.14042562 53.77013953 59.14220852 55.06635003 56.8203125 56.38818359 C50.67964422 62.48480116 45.56077083 68.85697517 41.09765625 76.27099609 C39.8203125 78.38818359 39.8203125 78.38818359 38.8203125 79.38818359 C37.4713288 79.50161126 36.11657032 79.5476829 34.76293945 79.56518555 C33.47073235 79.5844384 33.47073235 79.5844384 32.15242004 79.6040802 C31.21395737 79.61146713 30.27549469 79.61885406 29.30859375 79.62646484 C28.34761276 79.63453659 27.38663177 79.64260834 26.39653015 79.65092468 C24.35625015 79.66478642 22.31594675 79.67549917 20.27563477 79.68334961 C17.1631216 79.70051643 14.05168303 79.74437833 10.93945312 79.78857422 C8.95834116 79.79870479 6.97722014 79.80721975 4.99609375 79.81396484 C4.06775223 79.83147293 3.13941071 79.84898102 2.18293762 79.86701965 C-3.42520602 79.84831651 -6.82972321 79.28529542 -11.1796875 75.38818359 C-13.95138211 71.56315968 -14.55745394 68.90140176 -14.56787109 64.20849609 C-14.57732758 62.98372559 -14.58678406 61.75895508 -14.5965271 60.49707031 C-14.59045441 59.1823877 -14.58438171 57.86770508 -14.578125 56.51318359 C-14.58014768 55.14225103 -14.58306074 53.77131952 -14.58682251 52.40039062 C-14.59123678 49.53228474 -14.58484413 46.66445985 -14.57080078 43.79638672 C-14.55370898 40.12775301 -14.56355504 36.45977779 -14.58151817 32.79116821 C-14.59238056 29.9617826 -14.58889852 27.13255202 -14.5811348 24.30316162 C-14.57817224 22.29520234 -14.58725216 20.28723692 -14.5965271 18.27929688 C-14.58707062 17.05452637 -14.57761414 15.82975586 -14.56787109 14.56787109 C-14.56548431 13.49263184 -14.56309753 12.41739258 -14.56063843 11.30957031 C-13.97566138 6.82357477 -12.43653773 4.36483929 -8.87841797 1.59994507 C-5.71210688 0.17823444 -3.46537097 0.00769231 0 0 Z " fill="#ADB9C9" transform="translate(88.1796875,320.61181640625)"/>
<path d="M0 0 C0.33 0 0.66 0 1 0 C1.07476563 0.80179687 1.14953125 1.60359375 1.2265625 2.4296875 C3.7308122 24.08408193 12.5058686 45.14366599 29.61474609 59.33984375 C48.8845598 74.5311279 68.90031438 79.56417389 93 81 C93.03410249 82.56625149 93.05815329 84.13272335 93.078125 85.69921875 C93.09262695 86.57151123 93.10712891 87.44380371 93.12207031 88.3425293 C92.82555064 94.79776262 90.50370793 100.35101117 86 105 C77.59287698 109.20356151 65.45747449 104.6330894 57 102 C36.16790226 95.00618941 18.44677578 79.275882 8.68286133 59.65625 C3.09314913 47.93243175 -0.15201327 36.63519773 -0.09765625 23.53515625 C-0.0962413 22.85698349 -0.09482635 22.17881073 -0.09336853 21.48008728 C-0.08782745 19.34084422 -0.07528653 17.20171075 -0.0625 15.0625 C-0.05747736 13.60091298 -0.0529158 12.13932431 -0.04882812 10.67773438 C-0.03787745 7.11845474 -0.02065445 3.55923809 0 0 Z " fill="#CDD4DE" transform="translate(20,365)"/>
<path d="M0 0 C0.66 0 1.32 0 2 0 C3.41235352 1.43139648 3.41235352 1.43139648 5.06640625 3.43359375 C9.13279941 8.21331538 13.49069315 12.63820863 17.9375 17.0625 C18.69740234 17.82626953 19.45730469 18.59003906 20.24023438 19.37695312 C24.4386934 23.56824143 28.72716105 27.58433363 33.22094727 31.45678711 C35.55504988 33.48146978 37.792459 35.58844943 40 37.75 C40.763125 38.48734375 41.52625 39.2246875 42.3125 39.984375 C44 42 44 42 44 45 C39.28679251 47.22528841 34.57282046 49.4489463 29.8581543 51.67114258 C28.25670969 52.42623623 26.65546936 53.18176331 25.05444336 53.93774414 C22.7438723 55.02866736 20.43255403 56.11799363 18.12109375 57.20703125 C17.41351425 57.54152786 16.70593475 57.87602448 15.97691345 58.22065735 C13.98871932 59.15634305 11.99640085 60.08196499 10 61 C9.35451202 61.29788422 8.70902405 61.59576843 8.04397583 61.90267944 C5.17762786 63.1857105 3.17822948 64 0 64 C-1.54296875 62.49609375 -1.54296875 62.49609375 -3.1875 60.4375 C-5.68233946 57.44580692 -8.21469792 54.83050773 -11.1875 52.3125 C-17.09225709 47.23486842 -17.09225709 47.23486842 -19 44 C-18.60182946 39.82896484 -17.49918972 36.4388671 -15.7421875 32.65625 C-15.28432861 31.66302734 -14.82646973 30.66980469 -14.35473633 29.64648438 C-13.86642334 28.60814453 -13.37811035 27.56980469 -12.875 26.5 C-12.38088623 25.43587891 -11.88677246 24.37175781 -11.37768555 23.27539062 C-7.72501976 15.44527468 -3.96110106 7.67885804 0 0 Z " fill="#33527E" transform="translate(260,305)"/>
<path d="M0 0 C1.2416391 -0.0127597 2.4832782 -0.02551941 3.76254272 -0.03866577 C5.11464278 -0.04172353 6.46674493 -0.04395124 7.81884766 -0.04541016 C9.21123389 -0.05184067 10.60361878 -0.05856922 11.9960022 -0.06558228 C14.91289399 -0.07754662 17.82966743 -0.081264 20.74658203 -0.08007812 C24.47464613 -0.07987502 28.20194716 -0.10717075 31.92983055 -0.14162254 C34.8055669 -0.16391878 37.68112043 -0.16791485 40.55693436 -0.16685867 C41.93079888 -0.16921079 43.30466875 -0.17801244 44.67844772 -0.19352341 C58.05144772 -0.33037386 58.05144772 -0.33037386 62.85791016 4.29052734 C64.75714641 7.34582045 64.85791016 9.17579516 64.85791016 12.79052734 C63.85905722 16.28651262 62.93635566 18.02282753 60.07351685 20.25827026 C54.84010086 22.69653276 48.67379487 21.97758418 43.01025391 21.91943359 C41.55106937 21.92026306 40.09188493 21.92272538 38.63270569 21.92674255 C35.58207914 21.92959408 32.53218943 21.91496244 29.48168945 21.88745117 C25.57860545 21.85333776 21.6768356 21.85940202 17.77368832 21.87811375 C14.76324068 21.88869919 11.75309707 21.8797327 8.74267769 21.86472893 C7.30382758 21.85955994 5.86494555 21.86001333 4.42609978 21.86627388 C2.41366323 21.87174485 0.40121107 21.84845736 -1.61108398 21.82397461 C-2.75436661 21.81777603 -3.89764923 21.81157745 -5.07557678 21.80519104 C-8.79419037 21.18108301 -10.46279638 19.8919005 -13.14208984 17.29052734 C-14.74515908 14.08438887 -14.62949445 10.76912737 -14.14208984 7.29052734 C-10.50027886 1.30755216 -6.78077524 0.04732969 0 0 Z " fill="#AEBACA" transform="translate(88.14208984375,272.70947265625)"/>
<path d="M0 0 C0.33 0 0.66 0 1 0 C1.12428105 5.95898975 1.21465997 11.91721295 1.2746582 17.87719727 C1.29968848 19.90141963 1.33372347 21.92555264 1.37719727 23.94946289 C1.43835747 26.87148164 1.46632485 29.79229816 1.48828125 32.71484375 C1.51408768 33.60896469 1.5398941 34.50308563 1.56648254 35.42430115 C1.56935814 41.97426829 -0.05095157 46.73233191 -4 52 C-8.53133339 56.25215833 -12.88504108 58.13349013 -19.03417969 58.11352539 C-20.20494049 58.11341209 -20.20494049 58.11341209 -21.39935303 58.11329651 C-22.23178528 58.10813522 -23.06421753 58.10297394 -23.921875 58.09765625 C-24.78186096 58.0962413 -25.64184692 58.09482635 -26.52789307 58.09336853 C-29.26863109 58.08778097 -32.00928676 58.07523075 -34.75 58.0625 C-36.6106759 58.05748339 -38.47135309 58.05292077 -40.33203125 58.04882812 C-44.88805246 58.03781561 -49.44401228 58.02055951 -54 58 C-50.68460564 54.6652759 -47.3145042 51.45065961 -43.8125 48.3125 C-31.76469495 37.35889361 -19.85369455 25.99929704 -10 13 C-8.62791516 11.20424313 -7.25406488 9.4098592 -5.87890625 7.61645508 C-4.9757927 6.43495614 -4.07717012 5.25000765 -3.18359375 4.0612793 C-2.14515639 2.68998269 -1.07559001 1.3423534 0 0 Z " fill="#ACB8CA" transform="translate(442,236)"/>
<path d="M0 0 C1.26650391 -0.00064453 2.53300781 -0.00128906 3.83789062 -0.00195312 C5.14822266 0.01802734 6.45855469 0.03800781 7.80859375 0.05859375 C9.12279297 0.05150391 10.43699219 0.04441406 11.79101562 0.03710938 C19.04632048 0.08515775 23.49358914 0.24392309 29.12109375 5.12109375 C30.92548789 8.93037026 30.34110937 12.49818436 29.24609375 16.49609375 C27.0002005 19.49061809 25.79740008 20.31232497 22.24609375 21.49609375 C20.14519354 21.58541683 18.04151498 21.61368644 15.9387207 21.60961914 C14.63759842 21.60954361 13.33647614 21.60946808 11.9959259 21.60939026 C10.57540855 21.6042836 9.15489158 21.5990676 7.734375 21.59375 C6.28134713 21.59188466 4.82831864 21.59046131 3.37528992 21.58946228 C-0.44696797 21.58564621 -4.2691878 21.57582368 -8.09143066 21.5647583 C-11.99258916 21.55452462 -15.89375382 21.54996046 -19.79492188 21.54492188 C-27.44793401 21.53420061 -35.10091479 21.5171351 -42.75390625 21.49609375 C-39.82344566 19.54245336 -36.85110089 17.85715645 -33.765625 16.16015625 C-32.57222569 15.50137442 -31.37886763 14.84251786 -30.18554688 14.18359375 C-28.31672234 13.15359851 -26.44745831 12.12441981 -24.57739258 11.09667969 C-22.76385193 10.09931632 -20.95214872 9.09867716 -19.140625 8.09765625 C-18.05998779 7.50291504 -16.97935059 6.90817383 -15.8659668 6.29541016 C-12.70260077 4.5430317 -12.70260077 4.5430317 -9.77685547 2.30200195 C-6.22274437 0.17877793 -4.1110858 -0.00661455 0 0 Z " fill="#ADB9CA" transform="translate(341.75390625,330.50390625)"/>
<path d="M0 0 C0.66 0 1.32 0 2 0 C3.39477539 1.42041016 3.39477539 1.42041016 5.03515625 3.4140625 C9.98450373 9.23727714 15.47360524 14.48733948 20.94335938 19.81640625 C21.72388672 20.58597656 22.50441406 21.35554688 23.30859375 22.1484375 C24.01814209 22.84114746 24.72769043 23.53385742 25.45874023 24.24755859 C27 26 27 26 27 28 C3.81808985 39.77968555 3.81808985 39.77968555 -6.25 44.3125 C-6.88550781 44.60777588 -7.52101562 44.90305176 -8.17578125 45.20727539 C-10.67754267 46.30660709 -12.54509799 47.04100307 -15.296875 46.79296875 C-17 46 -17 46 -19 44 C-18.65035318 39.82759656 -17.49592403 36.43183645 -15.7421875 32.65625 C-15.28432861 31.66302734 -14.82646973 30.66980469 -14.35473633 29.64648438 C-13.86642334 28.60814453 -13.37811035 27.56980469 -12.875 26.5 C-12.38088623 25.43587891 -11.88677246 24.37175781 -11.37768555 23.27539062 C-7.72501976 15.44527468 -3.96110106 7.67885804 0 0 Z " fill="#435E88" transform="translate(260,305)"/>
<path d="M0 0 C0.73997726 -0.00570007 1.47995453 -0.01140015 2.24235535 -0.01727295 C3.81007456 -0.02672518 5.37781366 -0.03325782 6.94555664 -0.03710938 C9.33580582 -0.04679532 11.7251878 -0.07780695 14.11523438 -0.109375 C15.63931782 -0.11590723 17.1634074 -0.12115684 18.6875 -0.125 C19.39912796 -0.1373468 20.11075592 -0.1496936 20.84394836 -0.16241455 C26.31613418 -0.13804411 29.51546529 1.17562154 33.35546875 5.015625 C34.98859035 8.02400689 35.01717125 9.8159643 34.54296875 13.203125 C32.41092303 17.16263847 30.79136258 19.6639419 26.54296875 21.203125 C23.95512036 21.40644433 21.47793519 21.50723982 18.890625 21.50390625 C17.78490395 21.51033394 17.78490395 21.51033394 16.65684509 21.51689148 C15.10107447 21.52262246 13.54527706 21.52314412 11.98950195 21.51879883 C9.61688242 21.51564019 7.24551226 21.5391068 4.87304688 21.56445312 C3.35807448 21.56672649 1.84309875 21.56742944 0.328125 21.56640625 C-0.37722885 21.575616 -1.0825827 21.58482574 -1.80931091 21.59431458 C-6.20390069 21.55330128 -8.94114386 20.85878129 -12.45703125 18.203125 C-14.78135299 15.21471133 -14.92819769 11.90609881 -14.8515625 8.171875 C-14.17909483 4.81619474 -12.05420439 3.24376104 -9.45703125 1.203125 C-6.43965011 -0.30556557 -3.31098952 0.01960609 0 0 Z " fill="#AEB9CA" transform="translate(408.45703125,330.796875)"/>
<path d="M0 0 C0.73997726 -0.00570007 1.47995453 -0.01140015 2.24235535 -0.01727295 C3.81007456 -0.02672518 5.37781366 -0.03325782 6.94555664 -0.03710938 C9.33580582 -0.04679532 11.7251878 -0.07780695 14.11523438 -0.109375 C15.63931782 -0.11590723 17.1634074 -0.12115684 18.6875 -0.125 C19.39912796 -0.1373468 20.11075592 -0.1496936 20.84394836 -0.16241455 C26.30456499 -0.13809564 29.4660085 1.19778407 33.35546875 4.953125 C35.11395604 8.28499566 35.05559362 10.48659473 34.54296875 14.203125 C32.5192898 17.67671952 30.43280051 19.90651441 26.54296875 21.203125 C21.73737877 21.47844707 16.9326116 21.5164804 12.11987305 21.55322266 C10.5321587 21.5697698 8.94451848 21.59704408 7.35717773 21.63525391 C5.05804144 21.69025145 2.76064449 21.71192816 0.4609375 21.7265625 C-0.59405693 21.76056656 -0.59405693 21.76056656 -1.67036438 21.79525757 C-5.52831768 21.77886059 -7.9333932 21.19215313 -10.890625 18.81079102 C-14.11111772 15.53852287 -14.53341298 13.84562017 -14.76953125 9.42578125 C-14.22174624 5.52966034 -12.29602108 3.84404577 -9.45703125 1.203125 C-6.43965011 -0.30556557 -3.31098952 0.01960609 0 0 Z " fill="#ADB9CA" transform="translate(347.45703125,378.796875)"/>
<path d="M0 0 C1.10640839 -0.01210762 1.10640839 -0.01210762 2.23516846 -0.02445984 C3.79868216 -0.03829926 5.36222606 -0.04902206 6.92578125 -0.05688477 C9.30527945 -0.07405391 11.68337193 -0.11793262 14.0625 -0.16210938 C15.58332314 -0.17224058 17.10415807 -0.18075535 18.625 -0.1875 C19.33146667 -0.20500809 20.03793335 -0.22251617 20.76580811 -0.24055481 C25.82802321 -0.21857511 28.68476983 1.05371828 32.578125 4.23828125 C34.31444136 7.71091398 34.18002902 11.45021138 33.578125 15.23828125 C31.39653355 17.99397572 29.70635006 19.67416872 26.578125 21.23828125 C24.09493908 21.37339907 21.64108193 21.45087509 19.15625 21.4765625 C18.04984161 21.48867012 18.04984161 21.48867012 16.92108154 21.50102234 C15.35756784 21.51486176 13.79402394 21.52558456 12.23046875 21.53344727 C9.85097055 21.55061641 7.47287807 21.59449512 5.09375 21.63867188 C3.57292686 21.64880308 2.05209193 21.65731785 0.53125 21.6640625 C-0.17521667 21.68157059 -0.88168335 21.69907867 -1.60955811 21.71711731 C-6.67177321 21.69513761 -9.52851983 20.42284422 -13.421875 17.23828125 C-15.15819136 13.76564852 -15.02377902 10.02635112 -14.421875 6.23828125 C-9.99833956 0.65065754 -6.77707233 0.07005923 0 0 Z " fill="#ADB9CA" transform="translate(277.421875,378.76171875)"/>
<path d="M0 0 C5.06508622 2.35232469 8.29696266 5.20330032 10.8359375 10.28125 C11.60051656 16.03011025 11.67899772 20.90840054 8.2734375 25.78125 C4.32832216 30.30053705 0.26467138 31.97765826 -5.6640625 32.71875 C-11.26265238 32.01892626 -14.73177668 29.82661101 -18.5390625 25.71875 C-21.76531129 20.87937681 -21.79776601 15.92297154 -21.1640625 10.28125 C-16.89897328 1.75107157 -9.44372169 -3.13654294 0 0 Z " fill="#AF44EE" transform="translate(197.1640625,52.71875)"/>
<path d="M0 0 C4.35699098 2.46622131 7.04335342 5.33670683 9.3125 9.875 C9.87019904 15.83808973 9.81406448 20.80376868 6.3125 25.875 C2.18809561 29.78233047 -1.42661204 31.62379023 -7.0625 32.25 C-12.75238018 31.66139171 -16.20639399 29.47303543 -20.0625 25.3125 C-23.29494831 20.46382753 -23.30548629 15.52516037 -22.6875 9.875 C-17.98205051 -0.10055292 -10.12592282 -3.08926459 0 0 Z " fill="#FBA102" transform="translate(147.6875,53.125)"/>
<path d="M0 0 C4.9710149 2.53240382 8.49430567 5.98861134 11 11 C11.55769904 16.96308973 11.50156448 21.92876868 8 27 C3.89566074 30.88832141 0.27252605 32.69985505 -5.3125 33.4375 C-10.77943841 32.78888019 -14.69201245 30.54719074 -18.39453125 26.4609375 C-21.59017105 21.69570783 -21.91238971 16.57571488 -21 11 C-16.5434163 2.08683261 -9.61062274 -1.1848713 0 0 Z " fill="#4BC46E" transform="translate(95,52)"/>
<path d="M0 0 C0.98086578 0.00007553 1.96173157 0.00015106 2.97232056 0.00022888 C4.03381317 0.00539017 5.09530579 0.01055145 6.18896484 0.01586914 C7.27374115 0.01728409 8.35851746 0.01869904 9.47616577 0.02015686 C12.95077234 0.02576737 16.42531515 0.03832167 19.89990234 0.05102539 C22.25146392 0.05603904 24.60302649 0.06060218 26.95458984 0.06469727 C32.72805202 0.07574022 38.50146636 0.09301193 44.27490234 0.11352539 C41.96490234 5.72352539 39.65490234 11.33352539 37.27490234 17.11352539 C35.19951172 17.09032227 33.12412109 17.06711914 30.98583984 17.04321289 C28.92367155 17.02751229 26.8615105 17.01542725 24.79931641 17.00366211 C23.39140733 16.99374726 21.98351801 16.98021127 20.57568359 16.96264648 C11.81462998 16.85626226 3.68479778 17.27874431 -4.9453125 18.97338867 C-7.72509766 19.11352539 -7.72509766 19.11352539 -9.56738281 17.79199219 C-11.80496991 14.54791557 -12.07367 10.9741285 -11.72509766 7.11352539 C-8.99067322 1.89326057 -5.70431004 -0.01462644 0 0 Z " fill="#ADB9C9" transform="translate(203.72509765625,330.886474609375)"/>
</svg>
